<svg width="644" height="626" viewBox="0 0 644 626" fill="none" xmlns="http://www.w3.org/2000/svg">
<path fill-rule="evenodd" clip-rule="evenodd" d="M600.092 532.554C545.133 636.409 441.334 606.279 357.01 644.413C277.993 680.146 201.88 781.814 128.726 745.717C51.6622 707.691 -0.513976 590.127 0.431358 468.462C1.28054 359.172 87.0747 289.698 133.006 194.893C171.31 115.832 181.584 -2.35537 243.519 -33.2844C305.44 -64.2063 350.004 27.757 407.174 57.9806C477.853 95.3468 574.823 69.2407 612.428 161.747C655.183 266.924 657.207 424.623 600.092 532.554Z" fill="#8ED7EE"/>
<path d="M634.412 282.099C635.115 275.294 627.927 269.695 622.532 269.108C619.96 268.84 617.276 269.36 614.842 268.22C609.548 265.772 607.44 256.637 602.296 253.737C598.432 251.558 594.004 253.485 590.265 256C586.527 258.514 582.826 261.682 578.649 262.051C575.01 262.353 571.121 260.559 567.897 262.923C565.526 264.7 564.284 268.337 562.101 270.5C559.918 272.662 557.171 273.047 554.574 273.232C551.977 273.416 549.18 273.467 546.771 274.908C544.362 276.35 542.355 279.786 542.857 283.29L634.412 282.099Z" fill="#F5F5F5"/>
<path d="M562.704 200.833H506.438V397.629H562.704V200.833Z" fill="#EBEBEB"/>
<path d="M562.716 200.833H534.577V397.629H562.716V200.833Z" fill="#E0E0E0"/>
<path d="M532.745 177.433H512.873V200.834H532.745V177.433Z" fill="#EBEBEB"/>
<path d="M532.745 177.433H528.003V200.834H532.745V177.433Z" fill="#E0E0E0"/>
<path d="M564.359 199.459H501.758V200.817H564.359V199.459Z" fill="#E0E0E0"/>
<path d="M522.32 211.026H517.553V224.453H522.32V211.026Z" fill="white"/>
<path d="M534.577 229.716C534.577 229.85 528.304 229.967 520.501 229.967C512.698 229.967 506.438 229.85 506.438 229.716C506.438 229.582 512.71 229.464 520.501 229.464C528.292 229.464 534.577 229.582 534.577 229.716Z" fill="#E0E0E0"/>
<path d="M550.698 211.026H545.931V224.453H550.698V211.026Z" fill="#F5F5F5"/>
<path d="M562.954 229.716C562.954 229.85 556.682 229.967 548.891 229.967C541.1 229.967 534.815 229.85 534.815 229.716C534.815 229.582 541.088 229.464 548.891 229.464C556.694 229.464 562.954 229.582 562.954 229.716Z" fill="#EBEBEB"/>
<path d="M550.698 237.678H545.931V251.105H550.698V237.678Z" fill="#F5F5F5"/>
<path d="M562.954 256.352C562.954 256.503 556.682 256.62 548.891 256.62C541.1 256.62 534.815 256.503 534.815 256.352C534.815 256.201 541.088 256.1 548.891 256.1C556.694 256.1 562.954 256.234 562.954 256.352Z" fill="#EBEBEB"/>
<path d="M550.698 265.119H545.931V278.546H550.698V265.119Z" fill="#F5F5F5"/>
<path d="M562.954 283.81C562.954 283.944 556.682 284.061 548.891 284.061C541.1 284.061 534.815 283.944 534.815 283.81C534.815 283.675 541.088 283.558 548.891 283.558C556.694 283.558 562.954 283.659 562.954 283.81Z" fill="#EBEBEB"/>
<path d="M550.698 292.559H545.931V305.986H550.698V292.559Z" fill="#F5F5F5"/>
<path d="M562.954 311.25C562.954 311.401 556.682 311.502 548.891 311.502C541.1 311.502 534.815 311.401 534.815 311.25C534.815 311.099 541.088 310.999 548.891 310.999C556.694 310.999 562.954 311.116 562.954 311.25Z" fill="#EBEBEB"/>
<path d="M550.698 319.229H545.931V332.656H550.698V319.229Z" fill="#F5F5F5"/>
<path d="M562.954 337.92C562.954 338.054 556.682 338.171 548.891 338.171C541.1 338.171 534.815 338.054 534.815 337.92C534.815 337.786 541.088 337.652 548.891 337.652C556.694 337.652 562.954 337.769 562.954 337.92Z" fill="#EBEBEB"/>
<path d="M550.698 345.999H545.931V359.426H550.698V345.999Z" fill="#F5F5F5"/>
<path d="M550.698 373.122H545.931V386.549H550.698V373.122Z" fill="#F5F5F5"/>
<path d="M562.954 364.69C562.954 364.824 556.682 364.942 548.891 364.942C541.1 364.942 534.815 364.824 534.815 364.69C534.815 364.556 541.088 364.422 548.891 364.422C556.694 364.422 562.954 364.539 562.954 364.69Z" fill="#EBEBEB"/>
<path d="M522.32 238.081H517.553V251.508H522.32V238.081Z" fill="white"/>
<path d="M534.577 256.771C534.577 256.905 528.304 257.022 520.501 257.022C512.698 257.022 506.438 256.905 506.438 256.771C506.438 256.637 512.71 256.502 520.501 256.502C528.292 256.502 534.577 256.62 534.577 256.771Z" fill="#E0E0E0"/>
<path d="M522.32 265.136H517.553V278.563H522.32V265.136Z" fill="white"/>
<path d="M534.577 283.81C534.577 283.96 528.304 284.078 520.501 284.078C512.698 284.078 506.438 283.96 506.438 283.81C506.438 283.659 512.71 283.558 520.501 283.558C528.292 283.558 534.577 283.675 534.577 283.81Z" fill="#E0E0E0"/>
<path d="M522.32 292.174H517.553V305.601H522.32V292.174Z" fill="white"/>
<path d="M534.577 310.864C534.577 310.998 528.304 311.116 520.501 311.116C512.698 311.116 506.438 310.998 506.438 310.864C506.438 310.73 512.71 310.613 520.501 310.613C528.292 310.613 534.577 310.73 534.577 310.864Z" fill="#E0E0E0"/>
<path d="M522.32 319.229H517.553V332.656H522.32V319.229Z" fill="white"/>
<path d="M534.577 337.92C534.577 338.054 528.304 338.171 520.501 338.171C512.698 338.171 506.438 338.054 506.438 337.92C506.438 337.786 512.71 337.652 520.501 337.652C528.292 337.652 534.577 337.769 534.577 337.92Z" fill="#E0E0E0"/>
<path d="M522.32 346.284H517.553V359.711H522.32V346.284Z" fill="white"/>
<path d="M534.577 364.958C534.577 365.109 528.304 365.227 520.501 365.227C512.698 365.227 506.438 365.109 506.438 364.958C506.438 364.808 512.71 364.707 520.501 364.707C528.292 364.707 534.577 364.824 534.577 364.958Z" fill="#E0E0E0"/>
<path d="M522.32 373.323H517.553V386.75H522.32V373.323Z" fill="white"/>
<path d="M296.78 174.7H202.615V573.454H296.78V174.7Z" fill="#F5F5F5"/>
<path d="M296.78 174.7H249.698V572.347H296.78V174.7Z" fill="#EBEBEB"/>
<path d="M246.611 135.559H213.366V174.7H246.611V135.559Z" fill="#F5F5F5"/>
<path d="M246.624 135.559H238.695V174.7H246.624V135.559Z" fill="#EBEBEB"/>
<path d="M194.774 174.7V172.421H299.54V174.7" fill="#E0E0E0"/>
<path d="M229.173 191.781H221.207V214.244H229.173V191.781Z" fill="#FAFAFA"/>
<path d="M249.698 223.044C249.698 223.279 239.16 223.48 226.15 223.48C213.141 223.48 202.615 223.279 202.615 223.044C202.615 222.81 213.191 222.709 226.15 222.709C239.109 222.709 249.698 222.81 249.698 223.044Z" fill="#E0E0E0"/>
<path d="M276.657 191.781H268.691V214.244H276.657V191.781Z" fill="#E0E0E0"/>
<path d="M297.244 223.045C297.244 223.279 286.706 223.48 273.709 223.48C260.712 223.48 250.162 223.279 250.162 223.045C250.162 222.81 260.7 222.625 273.709 222.625C286.719 222.625 297.244 222.81 297.244 223.045Z" fill="#E0E0E0"/>
<path d="M276.657 236.354H268.691V258.816H276.657V236.354Z" fill="#E0E0E0"/>
<path d="M297.244 267.633C297.244 267.868 286.706 268.052 273.709 268.052C260.712 268.052 250.162 267.868 250.162 267.633C250.162 267.398 260.7 267.197 273.709 267.197C286.719 267.197 297.244 267.398 297.244 267.633Z" fill="#E0E0E0"/>
<path d="M276.657 282.284H268.691V304.746H276.657V282.284Z" fill="#E0E0E0"/>
<path d="M297.244 313.564C297.244 313.798 286.706 313.983 273.709 313.983C260.712 313.983 250.162 313.798 250.162 313.564C250.162 313.329 260.7 313.128 273.709 313.128C286.719 313.128 297.244 313.329 297.244 313.564Z" fill="#E0E0E0"/>
<path d="M276.657 328.214H268.691V350.676H276.657V328.214Z" fill="#E0E0E0"/>
<path d="M297.244 359.493C297.244 359.728 286.706 359.913 273.709 359.913C260.712 359.913 250.162 359.728 250.162 359.493C250.162 359.259 260.7 359.058 273.709 359.058C286.719 359.058 297.244 359.259 297.244 359.493Z" fill="#E0E0E0"/>
<path d="M276.657 372.837H268.691V395.299H276.657V372.837Z" fill="#E0E0E0"/>
<path d="M297.244 404.116C297.244 404.351 286.706 404.535 273.709 404.535C260.712 404.535 250.162 404.351 250.162 404.116C250.162 403.881 260.7 403.68 273.709 403.68C286.719 403.68 297.244 403.865 297.244 404.116Z" fill="#E0E0E0"/>
<path d="M276.657 417.627H268.691V440.089H276.657V417.627Z" fill="#E0E0E0"/>
<path d="M276.657 463.02H268.691V485.482H276.657V463.02Z" fill="#E0E0E0"/>
<path d="M297.244 448.906C297.244 449.141 286.706 449.325 273.709 449.325C260.712 449.325 250.162 449.141 250.162 448.906C250.162 448.672 260.7 448.47 273.709 448.47C286.719 448.47 297.244 448.672 297.244 448.906Z" fill="#E0E0E0"/>
<path d="M229.173 237.041H221.207V259.503H229.173V237.041Z" fill="#FAFAFA"/>
<path d="M249.698 268.304C249.698 268.555 239.16 268.74 226.15 268.74C213.141 268.74 202.615 268.555 202.615 268.304C202.615 268.052 213.153 267.885 226.15 267.885C239.147 267.885 249.698 268.069 249.698 268.304Z" fill="#E0E0E0"/>
<path d="M229.173 282.301H221.207V304.763H229.173V282.301Z" fill="#FAFAFA"/>
<path d="M249.698 313.58C249.698 313.815 239.16 313.999 226.15 313.999C213.141 313.999 202.615 313.815 202.615 313.58C202.615 313.345 213.153 313.144 226.15 313.144C239.147 313.144 249.698 313.345 249.698 313.58Z" fill="#E0E0E0"/>
<path d="M229.173 327.577H221.207V350.039H229.173V327.577Z" fill="#FAFAFA"/>
<path d="M249.698 358.839C249.698 359.074 239.16 359.275 226.15 359.275C213.141 359.275 202.615 359.074 202.615 358.839C202.615 358.605 213.153 358.42 226.15 358.42C239.147 358.42 249.698 358.605 249.698 358.839Z" fill="#E0E0E0"/>
<path d="M229.173 372.837H221.207V395.299H229.173V372.837Z" fill="#FAFAFA"/>
<path d="M249.698 404.116C249.698 404.351 239.16 404.535 226.15 404.535C213.141 404.535 202.615 404.351 202.615 404.116C202.615 403.881 213.153 403.68 226.15 403.68C239.147 403.68 249.698 403.865 249.698 404.116Z" fill="#E0E0E0"/>
<path d="M229.173 418.096H221.207V440.558H229.173V418.096Z" fill="#FAFAFA"/>
<path d="M249.698 449.375C249.698 449.61 239.16 449.794 226.15 449.794C213.141 449.794 202.615 449.61 202.615 449.375C202.615 449.141 213.153 448.939 226.15 448.939C239.147 448.939 249.698 449.141 249.698 449.375Z" fill="#E0E0E0"/>
<path d="M229.173 463.373H221.207V485.835H229.173V463.373Z" fill="#FAFAFA"/>
<path d="M607.039 336.612H479.214V660.754H607.039V336.612Z" fill="#E0E0E0"/>
<path d="M607.026 336.612H547.097V660.754H607.026V336.612Z" fill="#EBEBEB"/>
<path d="M517.503 367.121H506.011V404.435H517.503V367.121Z" fill="#F5F5F5"/>
<path d="M517.503 513.141H506.011V550.455H517.503V513.141Z" fill="#F5F5F5"/>
<path d="M547.097 419.069C547.097 419.387 531.892 419.655 513.149 419.655C494.407 419.655 479.202 419.387 479.202 419.069C479.202 418.75 494.407 418.482 513.149 418.482C531.892 418.482 547.097 418.834 547.097 419.069Z" fill="#F5F5F5"/>
<path d="M517.503 440.676H506.011V477.99H517.503V440.676Z" fill="#F5F5F5"/>
<path d="M547.097 492.59C547.097 492.908 531.892 493.16 513.149 493.16C494.407 493.16 479.152 492.958 479.152 492.59C479.152 492.221 494.357 492.003 513.099 492.003C531.842 492.003 547.097 492.305 547.097 492.59Z" fill="#F5F5F5"/>
<path d="M571.322 367.121H559.831V404.435H571.322V367.121Z" fill="#E0E0E0"/>
<path d="M596.249 367.121H584.758V404.435H596.249V367.121Z" fill="#E0E0E0"/>
<path d="M571.322 437.91H559.831V475.224H571.322V437.91Z" fill="#E0E0E0"/>
<path d="M596.249 437.91H584.758V475.224H596.249V437.91Z" fill="#E0E0E0"/>
<path d="M571.322 508.716H559.831V546.03H571.322V508.716Z" fill="#E0E0E0"/>
<path d="M596.249 508.716H584.758V546.03H596.249V508.716Z" fill="#E0E0E0"/>
<path d="M616.648 328.767H469.604V336.897H616.648V328.767Z" fill="#E0E0E0"/>
<path d="M607.929 337.668C607.929 337.987 579.351 338.238 544.124 338.238C508.897 338.238 480.306 337.987 480.306 337.668C480.306 337.35 508.872 337.082 544.124 337.082C579.376 337.082 607.929 337.333 607.929 337.668Z" fill="#EBEBEB"/>
<path d="M423.338 419.655H285.866V661.928H423.338V419.655Z" fill="#EBEBEB"/>
<path d="M423.338 419.655H358.88V661.928H423.338V419.655Z" fill="#E0E0E0"/>
<path d="M327.052 452.443H314.695V492.574H327.052V452.443Z" fill="#F5F5F5"/>
<path d="M327.052 609.493H314.695V649.624H327.052V609.493Z" fill="#F5F5F5"/>
<path d="M358.88 508.313C358.88 508.766 342.571 509.135 322.373 509.135C302.175 509.135 285.866 508.766 285.866 508.313C285.866 507.861 302.175 507.509 322.373 507.509C342.571 507.509 358.88 507.878 358.88 508.313Z" fill="#F5F5F5"/>
<path d="M327.052 531.564H314.695V571.694H327.052V531.564Z" fill="#F5F5F5"/>
<path d="M358.88 587.434C358.88 587.886 342.571 588.255 322.373 588.255C302.175 588.255 285.866 587.886 285.866 587.434C285.866 586.981 302.175 586.612 322.373 586.612C342.571 586.612 358.88 586.981 358.88 587.434Z" fill="#F5F5F5"/>
<path d="M384.924 452.443H372.566V492.574H384.924V452.443Z" fill="#F5F5F5"/>
<path d="M411.746 452.443H399.388V492.574H411.746V452.443Z" fill="#F5F5F5"/>
<path d="M384.924 528.58H372.566V568.71H384.924V528.58Z" fill="#F5F5F5"/>
<path d="M411.746 528.58H399.388V568.71H411.746V528.58Z" fill="#F5F5F5"/>
<path d="M384.924 604.733H372.566V644.863H384.924V604.733Z" fill="#F5F5F5"/>
<path d="M411.746 604.733H399.388V644.863H411.746V604.733Z" fill="#F5F5F5"/>
<path d="M433.662 411.207H275.528V419.94H433.662V411.207Z" fill="#E0E0E0"/>
<path d="M424.291 420.778C424.291 421.231 393.568 421.583 355.668 421.583C317.769 421.583 287.045 421.231 287.045 420.778C287.045 420.326 317.769 419.957 355.668 419.957C393.568 419.957 424.291 420.326 424.291 420.778Z" fill="#EBEBEB"/>
<path d="M285.163 661.425H146.6L145.998 368.814H284.561L285.163 661.425Z" fill="#EBEBEB"/>
<path d="M284.549 368.814H215.273V661.425H284.549V368.814Z" fill="#E0E0E0"/>
<path d="M210.744 311.217H161.818V368.814H210.744V311.217Z" fill="#EBEBEB"/>
<path d="M210.757 311.217H199.09V368.814H210.757V311.217Z" fill="#E0E0E0"/>
<path d="M288.626 365.461H134.456V368.814H288.626V365.461Z" fill="#E0E0E0"/>
<path d="M185.077 393.941H173.347V426.981H185.077V393.941Z" fill="white"/>
<path d="M215.273 439.954C215.273 440.306 199.767 440.591 180.636 440.591C161.504 440.591 145.998 440.306 145.998 439.954C145.998 439.602 161.504 439.334 180.636 439.334C199.767 439.334 215.273 439.602 215.273 439.954Z" fill="#E0E0E0"/>
<path d="M254.967 393.941H243.237V426.981H254.967V393.941Z" fill="#F5F5F5"/>
<path d="M285.164 439.954C285.164 440.306 269.645 440.591 250.526 440.591C231.407 440.591 215.876 440.306 215.876 439.954C215.876 439.602 231.382 439.334 250.526 439.334C269.67 439.334 285.164 439.602 285.164 439.954Z" fill="#EBEBEB"/>
<path d="M254.967 459.551H243.237V492.59H254.967V459.551Z" fill="#F5F5F5"/>
<path d="M285.164 505.564C285.164 505.917 269.645 506.201 250.526 506.201C231.407 506.201 215.876 505.917 215.876 505.564C215.876 505.212 231.382 504.927 250.526 504.927C269.67 504.927 285.164 505.212 285.164 505.564Z" fill="#EBEBEB"/>
<path d="M254.967 527.138H243.237V560.177H254.967V527.138Z" fill="#F5F5F5"/>
<path d="M285.164 573.152C285.164 573.504 269.645 573.789 250.526 573.789C231.407 573.789 215.876 573.504 215.876 573.152C215.876 572.8 231.382 572.515 250.526 572.515C269.67 572.515 285.164 572.8 285.164 573.152Z" fill="#EBEBEB"/>
<path d="M254.967 594.726H243.237V627.766H254.967V594.726Z" fill="#F5F5F5"/>
<path d="M185.077 460.557H173.347V493.596H185.077V460.557Z" fill="white"/>
<path d="M215.273 506.57C215.273 506.922 199.767 507.19 180.636 507.19C161.504 507.19 145.998 506.922 145.998 506.57C145.998 506.218 161.504 506 180.636 506C199.767 506 215.273 506.218 215.273 506.57Z" fill="#E0E0E0"/>
<path d="M185.077 527.155H173.347V560.195H185.077V527.155Z" fill="white"/>
<path d="M215.273 573.169C215.273 573.521 199.767 573.806 180.636 573.806C161.504 573.806 145.998 573.521 145.998 573.169C145.998 572.817 161.504 572.549 180.636 572.549C199.767 572.549 215.273 572.834 215.273 573.169Z" fill="#E0E0E0"/>
<path d="M185.077 593.771H173.347V626.81H185.077V593.771Z" fill="white"/>
<path d="M340.012 147.494C340.438 143.404 336.123 140.035 332.886 139.699C331.336 139.777 329.786 139.596 328.269 139.163C325.095 137.688 323.828 132.206 320.742 130.463C318.421 129.156 315.724 130.312 313.516 131.821C311.308 133.33 309.05 135.173 306.553 135.442C304.37 135.626 301.999 134.553 300.092 135.978C298.662 137.034 297.922 139.23 296.617 140.521C295.251 141.651 293.67 142.232 292.063 142.197C290.469 142.145 288.882 142.491 287.384 143.22C286.645 143.618 286.019 144.32 285.598 145.223C285.176 146.127 284.98 147.186 285.038 148.248L340.012 147.494Z" fill="#F5F5F5"/>
<path d="M486.089 213.422C487.168 202.946 476.053 194.313 467.773 193.424C463.809 192.988 459.681 193.81 455.918 192.05C447.776 188.261 444.526 174.197 436.573 169.722C430.626 166.369 423.789 169.353 418.031 173.225C412.272 177.097 406.577 181.975 400.116 182.478C394.521 182.948 388.436 180.182 383.544 183.836C379.893 186.552 377.974 192.217 374.611 195.57C371.249 198.922 367.084 199.509 362.944 199.794C358.804 200.079 354.639 200.146 350.913 202.426C347.187 204.706 344.126 209.952 344.891 215.316L486.089 213.422Z" fill="#EBEBEB"/>
<path d="M180.272 218.434C180.974 211.629 173.786 206.03 168.379 205.46C165.87 205.175 163.135 205.711 160.689 204.571C155.407 202.107 153.299 192.988 148.143 190.072C144.292 187.892 139.851 189.837 136.112 192.351C132.374 194.866 128.673 198.034 124.508 198.386C120.87 198.688 116.981 196.894 113.744 199.274C111.373 200.951 110.131 204.672 107.948 206.834C105.765 208.997 103.03 209.382 100.421 209.584C97.76 209.483 95.1088 210.052 92.6051 211.26C90.1964 212.735 88.2017 216.155 88.7035 219.641L180.272 218.434Z" fill="#F5F5F5"/>
</svg>
