<svg width="1440" height="264" viewBox="0 0 1440 264" fill="none" xmlns="http://www.w3.org/2000/svg">
<path fill-rule="evenodd" clip-rule="evenodd" d="M-11 44L50.1165 58.6667C111.233 73.3333 233.466 102.667 355.699 102.667C477.932 102.667 600.165 73.3333 722.398 73.3333C844.631 73.3333 966.864 102.667 1089.1 95.3333C1211.33 88 1333.56 44 1394.68 22L1455.8 0V264H1394.68C1333.56 264 1211.33 264 1089.1 264C966.864 264 844.631 264 722.398 264C600.165 264 477.932 264 355.699 264C233.466 264 111.233 264 50.1165 264H-11V44Z" fill="#293241"/>
</svg>
