<svg width="1449" height="206" viewBox="0 0 1449 206" fill="none" xmlns="http://www.w3.org/2000/svg">
<path d="M0.595337 156C27.5953 156 164.535 94.4424 261.095 102.663C357.656 111.204 457.535 209.361 554.095 205.131C650.656 200.581 753.138 63.542 869.638 89.3867C972.285 112.158 977.44 157.736 1074 179.286C1170.56 200.836 1129 143.387 1306.5 143.387L1449 179.286V0.5H1400.72C1352.44 0.5 1255.88 0.5 1159.32 0.5C1062.76 0.5 966.199 0.5 869.638 0.5C773.078 0.5 676.518 0.5 579.957 0.5C483.397 0.5 386.837 0.5 290.276 0.5C193.716 0.5 97.1557 0.5 48.8755 0.5H0.595337V156Z" fill="#293241"/>
</svg>
