<svg width="1440" height="128" viewBox="0 0 1440 128" fill="none" xmlns="http://www.w3.org/2000/svg">
<path d="M-56 102.258L-4.3 89.5047C47.4 76.7511 150.8 51.244 254.2 29.9615C357.6 8.99778 461 -8.53838 564.4 4.45432C667.8 16.9688 771.2 60.0121 874.6 72.5265C978 85.5192 1081.4 67.9831 1184.8 72.5265C1288.2 76.7511 1391.6 102.258 1443.3 115.012L1495 127.765H1443.3C1391.6 127.765 1288.2 127.765 1184.8 127.765C1081.4 127.765 978 127.765 874.6 127.765C771.2 127.765 667.8 127.765 564.4 127.765C461 127.765 357.6 127.765 254.2 127.765C150.8 127.765 47.4 127.765 -4.3 127.765H-56V102.258Z" fill="#293241"/>
</svg>
