<svg width="60" height="35" viewBox="0 0 60 35" fill="none" xmlns="http://www.w3.org/2000/svg">
<g filter="url(#filter0_i_307_21)">
<path d="M5.008 12.176C4.08 12.176 3.28 12.0107 2.608 11.68C1.94667 11.3387 1.43467 10.864 1.072 10.256C0.72 9.63733 0.544 8.912 0.544 8.08C0.544 7.26933 0.714667 6.56 1.056 5.952C1.39733 5.33333 1.872 4.85333 2.48 4.512C3.09867 4.16 3.79733 3.984 4.576 3.984C5.14133 3.984 5.65333 4.08 6.112 4.272C6.57067 4.45333 6.96533 4.72 7.296 5.072C7.62667 5.41333 7.87733 5.83467 8.048 6.336C8.21867 6.82667 8.304 7.376 8.304 7.984C8.304 8.18667 8.24 8.34133 8.112 8.448C7.984 8.544 7.79733 8.592 7.552 8.592H2.528V7.344H6.56L6.304 7.568C6.304 7.13067 6.24 6.768 6.112 6.48C5.984 6.18133 5.79733 5.95733 5.552 5.808C5.31733 5.65867 5.024 5.584 4.672 5.584C4.27733 5.584 3.94133 5.67467 3.664 5.856C3.38667 6.03733 3.17333 6.29867 3.024 6.64C2.87467 6.98133 2.8 7.392 2.8 7.872V8C2.8 8.81067 2.98667 9.408 3.36 9.792C3.744 10.176 4.30933 10.368 5.056 10.368C5.312 10.368 5.60533 10.336 5.936 10.272C6.26667 10.208 6.576 10.1067 6.864 9.968C7.10933 9.85067 7.328 9.81333 7.52 9.856C7.712 9.888 7.86133 9.97333 7.968 10.112C8.07467 10.2507 8.13333 10.4107 8.144 10.592C8.16533 10.7733 8.128 10.9547 8.032 11.136C7.936 11.3067 7.776 11.4507 7.552 11.568C7.18933 11.7707 6.77867 11.92 6.32 12.016C5.872 12.1227 5.43467 12.176 5.008 12.176ZM18.4293 12.176C17.2133 12.176 16.1733 11.936 15.3093 11.456C14.4453 10.976 13.7786 10.304 13.3092 9.44C12.8506 8.56533 12.6212 7.536 12.6212 6.352C12.6212 5.46667 12.7492 4.672 13.0052 3.968C13.2719 3.25333 13.6559 2.64533 14.1573 2.144C14.6586 1.632 15.2666 1.23733 15.9813 0.959999C16.7066 0.682666 17.5226 0.544 18.4293 0.544C18.9626 0.544 19.5013 0.613333 20.0452 0.752C20.5999 0.879999 21.0799 1.06667 21.4853 1.312C21.7519 1.46133 21.9333 1.648 22.0293 1.872C22.1253 2.096 22.1519 2.32 22.1093 2.544C22.0773 2.768 21.9866 2.96 21.8373 3.12C21.6986 3.28 21.5226 3.38133 21.3093 3.424C21.0959 3.46667 20.8559 3.41867 20.5893 3.28C20.2693 3.088 19.9333 2.94933 19.5813 2.864C19.2293 2.77867 18.8719 2.736 18.5093 2.736C17.7946 2.736 17.1919 2.88 16.7013 3.168C16.2213 3.44533 15.8586 3.85067 15.6133 4.384C15.3679 4.91733 15.2453 5.57333 15.2453 6.352C15.2453 7.12 15.3679 7.776 15.6133 8.32C15.8586 8.864 16.2213 9.28 16.7013 9.568C17.1919 9.84533 17.7946 9.984 18.5093 9.984C18.8506 9.984 19.1973 9.94133 19.5493 9.856C19.9119 9.77067 20.2586 9.63733 20.5893 9.456C20.8666 9.31733 21.1119 9.26933 21.3253 9.312C21.5493 9.344 21.7306 9.44 21.8693 9.6C22.0186 9.74933 22.1093 9.93067 22.1413 10.144C22.1839 10.3573 22.1626 10.5707 22.0773 10.784C21.9919 10.9973 21.8319 11.1787 21.5972 11.328C21.2026 11.5947 20.7173 11.8027 20.1413 11.952C19.5653 12.1013 18.9946 12.176 18.4293 12.176ZM28.2308 12C27.8148 12 27.4948 11.888 27.2708 11.664C27.0467 11.44 26.9347 11.12 26.9347 10.704V2.016C26.9347 1.6 27.0467 1.28 27.2708 1.056C27.4948 0.831999 27.8148 0.719999 28.2308 0.719999H33.8148C34.1348 0.719999 34.3748 0.805333 34.5347 0.976C34.7054 1.136 34.7908 1.37067 34.7908 1.68C34.7908 2 34.7054 2.24533 34.5347 2.416C34.3748 2.576 34.1348 2.656 33.8148 2.656H29.3028V5.296H33.4468C33.7774 5.296 34.0228 5.38133 34.1828 5.552C34.3534 5.712 34.4388 5.952 34.4388 6.272C34.4388 6.592 34.3534 6.83733 34.1828 7.008C34.0228 7.168 33.7774 7.248 33.4468 7.248H29.3028V10.064H33.8148C34.1348 10.064 34.3748 10.1493 34.5347 10.32C34.7054 10.48 34.7908 10.7147 34.7908 11.024C34.7908 11.344 34.7054 11.5893 34.5347 11.76C34.3748 11.92 34.1348 12 33.8148 12H28.2308ZM40.9262 12C40.5209 12 40.2062 11.888 39.9822 11.664C39.7689 11.44 39.6622 11.1307 39.6622 10.736V1.952C39.6622 1.536 39.7689 1.22133 39.9822 1.008C40.1956 0.794666 40.5049 0.688 40.9102 0.688C41.3049 0.688 41.6089 0.794666 41.8222 1.008C42.0356 1.22133 42.1422 1.536 42.1422 1.952V9.904H46.4302C46.7716 9.904 47.0329 9.99467 47.2142 10.176C47.4062 10.3573 47.5022 10.6133 47.5022 10.944C47.5022 11.2853 47.4062 11.5467 47.2142 11.728C47.0329 11.9093 46.7716 12 46.4302 12H40.9262ZM53.1381 12C52.7328 12 52.4181 11.888 52.1941 11.664C51.9808 11.44 51.8741 11.1307 51.8741 10.736V1.952C51.8741 1.536 51.9808 1.22133 52.1941 1.008C52.4075 0.794666 52.7168 0.688 53.1221 0.688C53.5168 0.688 53.8208 0.794666 54.0341 1.008C54.2475 1.22133 54.3541 1.536 54.3541 1.952V9.904H58.6421C58.9835 9.904 59.2448 9.99467 59.4261 10.176C59.6181 10.3573 59.7141 10.6133 59.7141 10.944C59.7141 11.2853 59.6181 11.5467 59.4261 11.728C59.2448 11.9093 58.9835 12 58.6421 12H53.1381ZM2.288 34.144C1.91467 34.144 1.62667 34.0427 1.424 33.84C1.232 33.6267 1.136 33.328 1.136 32.944V23.824C1.136 23.4187 1.232 23.1093 1.424 22.896C1.62667 22.6827 1.89333 22.576 2.224 22.576C2.512 22.576 2.73067 22.6347 2.88 22.752C3.04 22.8587 3.22133 23.04 3.424 23.296L9.04 30.448H8.608V23.76C8.608 23.3867 8.704 23.0987 8.896 22.896C9.09867 22.6827 9.38667 22.576 9.76 22.576C10.1333 22.576 10.416 22.6827 10.608 22.896C10.8107 23.0987 10.912 23.3867 10.912 23.76V32.992C10.912 33.344 10.8213 33.6267 10.64 33.84C10.4587 34.0427 10.2133 34.144 9.904 34.144C9.60533 34.144 9.36533 34.0853 9.184 33.968C9.01333 33.8507 8.82667 33.664 8.624 33.408L3.024 26.256H3.44V32.944C3.44 33.328 3.344 33.6267 3.152 33.84C2.96 34.0427 2.672 34.144 2.288 34.144ZM20.2549 34.176C19.8069 34.176 19.3482 34.1387 18.8789 34.064C18.4202 34 17.9775 33.904 17.5509 33.776C17.1349 33.648 16.7615 33.488 16.4309 33.296C16.1962 33.168 16.0309 33.0027 15.9349 32.8C15.8389 32.5867 15.8015 32.3733 15.8229 32.16C15.8549 31.9467 15.9349 31.76 16.0629 31.6C16.2015 31.4293 16.3722 31.3227 16.5749 31.28C16.7882 31.2267 17.0229 31.264 17.2789 31.392C17.7162 31.6373 18.1909 31.8187 18.7029 31.936C19.2255 32.0533 19.7429 32.112 20.2549 32.112C21.0335 32.112 21.5882 31.9947 21.9189 31.76C22.2495 31.5147 22.4149 31.2107 22.4149 30.848C22.4149 30.5387 22.2975 30.2933 22.0629 30.112C21.8282 29.9307 21.4175 29.776 20.8309 29.648L19.0229 29.264C17.9989 29.0507 17.2362 28.688 16.7349 28.176C16.2442 27.6533 15.9989 26.9707 15.9989 26.128C15.9989 25.5947 16.1109 25.1093 16.3349 24.672C16.5589 24.2347 16.8735 23.856 17.2789 23.536C17.6842 23.216 18.1642 22.9707 18.7189 22.8C19.2842 22.6293 19.9029 22.544 20.5749 22.544C21.1722 22.544 21.7589 22.6187 22.3349 22.768C22.9109 22.9067 23.4175 23.1147 23.8549 23.392C24.0682 23.52 24.2122 23.6853 24.2869 23.888C24.3722 24.08 24.3989 24.2773 24.3669 24.48C24.3455 24.672 24.2655 24.8427 24.1269 24.992C23.9989 25.1413 23.8335 25.2373 23.6309 25.28C23.4282 25.3227 23.1829 25.2747 22.8949 25.136C22.5429 24.9547 22.1695 24.8213 21.7749 24.736C21.3802 24.6507 20.9749 24.608 20.5589 24.608C20.1109 24.608 19.7269 24.6667 19.4069 24.784C19.0975 24.9013 18.8575 25.0667 18.6869 25.28C18.5269 25.4933 18.4469 25.7387 18.4469 26.016C18.4469 26.3253 18.5589 26.576 18.7829 26.768C19.0069 26.96 19.3962 27.1147 19.9509 27.232L21.7589 27.616C22.8042 27.84 23.5829 28.2027 24.0949 28.704C24.6069 29.1947 24.8629 29.8453 24.8629 30.656C24.8629 31.1893 24.7562 31.6747 24.5429 32.112C24.3295 32.5387 24.0202 32.9067 23.6149 33.216C23.2095 33.5253 22.7242 33.7653 22.1589 33.936C21.5935 34.096 20.9589 34.176 20.2549 34.176ZM34.3449 34.176C33.5449 34.176 32.8355 34.0747 32.2169 33.872C31.6089 33.6587 31.0969 33.3493 30.6809 32.944C30.2649 32.5387 29.9502 32.032 29.7369 31.424C29.5342 30.8053 29.4329 30.0907 29.4329 29.28V23.84C29.4329 23.424 29.5395 23.1093 29.7529 22.896C29.9662 22.6827 30.2755 22.576 30.6809 22.576C31.0755 22.576 31.3795 22.6827 31.5929 22.896C31.8062 23.1093 31.9129 23.424 31.9129 23.84V29.296C31.9129 30.2133 32.1209 30.9067 32.5369 31.376C32.9529 31.8347 33.5555 32.064 34.3449 32.064C35.1342 32.064 35.7315 31.8347 36.1369 31.376C36.5529 30.9067 36.7609 30.2133 36.7609 29.296V23.84C36.7609 23.424 36.8675 23.1093 37.0809 22.896C37.2942 22.6827 37.5982 22.576 37.9929 22.576C38.3875 22.576 38.6862 22.6827 38.8889 22.896C39.1022 23.1093 39.2089 23.424 39.2089 23.84V29.28C39.2089 30.3573 39.0222 31.264 38.6489 32C38.2862 32.7253 37.7422 33.2693 37.0169 33.632C36.3022 33.9947 35.4115 34.176 34.3449 34.176ZM48.3795 34.144C47.9742 34.144 47.6648 34.032 47.4515 33.808C47.2382 33.584 47.1315 33.2693 47.1315 32.864V24.768H44.2995C43.9688 24.768 43.7128 24.6773 43.5315 24.496C43.3502 24.3147 43.2595 24.064 43.2595 23.744C43.2595 23.4133 43.3502 23.1627 43.5315 22.992C43.7128 22.8107 43.9688 22.72 44.2995 22.72H52.4435C52.7742 22.72 53.0302 22.8107 53.2115 22.992C53.3928 23.1627 53.4835 23.4133 53.4835 23.744C53.4835 24.064 53.3928 24.3147 53.2115 24.496C53.0302 24.6773 52.7742 24.768 52.4435 24.768H49.6115V32.864C49.6115 33.2693 49.5048 33.584 49.2915 33.808C49.0888 34.032 48.7848 34.144 48.3795 34.144Z" fill="black"/>
</g>
<path d="M2.608 11.68L2.37864 12.1244L2.38725 12.1286L2.608 11.68ZM1.072 10.256L0.637326 10.5033L0.64259 10.5121L1.072 10.256ZM1.056 5.952L1.492 6.19677L1.49379 6.19354L1.056 5.952ZM2.48 4.512L2.72477 4.948L2.72726 4.94658L2.48 4.512ZM6.112 4.272L5.91889 4.73331L5.92817 4.73698L6.112 4.272ZM7.296 5.072L6.93153 5.41438L6.93688 5.4199L7.296 5.072ZM8.048 6.336L7.57467 6.49714L7.57575 6.50026L8.048 6.336ZM8.112 8.448L8.412 8.848L8.42225 8.84031L8.43209 8.83211L8.112 8.448ZM2.528 8.592H2.028V9.092H2.528V8.592ZM2.528 7.344V6.844H2.028V7.344H2.528ZM6.56 7.344L6.88925 7.72029L7.89073 6.844H6.56V7.344ZM6.304 7.568H5.804V8.66988L6.63325 7.94429L6.304 7.568ZM6.112 6.48L5.65239 6.67698L5.65509 6.68307L6.112 6.48ZM5.552 5.808L5.28351 6.22991L5.29203 6.2351L5.552 5.808ZM3.664 5.856L3.93762 6.27448H3.93763L3.664 5.856ZM3.36 9.792L3.00147 10.1406L3.00645 10.1456L3.36 9.792ZM5.936 10.272L6.03101 10.7629H6.03101L5.936 10.272ZM6.864 9.968L6.64827 9.51693L6.64709 9.5175L6.864 9.968ZM7.52 9.856L7.41154 10.3441L7.4246 10.347L7.4378 10.3492L7.52 9.856ZM7.968 10.112L7.57169 10.4169L7.968 10.112ZM8.144 10.592L7.64486 10.6214L7.64572 10.6359L7.64742 10.6504L8.144 10.592ZM8.032 11.136L8.46793 11.3812L8.47389 11.3699L8.032 11.136ZM7.552 11.568L7.31991 11.1249L7.30809 11.1315L7.552 11.568ZM6.32 12.016L6.21753 11.5264L6.20419 11.5296L6.32 12.016ZM5.008 11.676C4.13864 11.676 3.41763 11.5211 2.82875 11.2314L2.38725 12.1286C3.14237 12.5002 4.02136 12.676 5.008 12.676V11.676ZM2.83732 11.2357C2.25449 10.9349 1.81375 10.5235 1.50141 9.99986L0.64259 10.5121C1.05558 11.2045 1.63884 11.7425 2.37868 12.1243L2.83732 11.2357ZM1.50658 10.0087C1.20421 9.47729 1.044 8.84006 1.044 8.08H0.044C0.044 8.98394 0.235793 9.79738 0.637418 10.5033L1.50658 10.0087ZM1.044 8.08C1.044 7.341 1.19901 6.71864 1.49199 6.19677L0.620008 5.70723C0.230325 6.40136 0.044 7.19767 0.044 8.08H1.044ZM1.49379 6.19354C1.79078 5.65525 2.1991 5.2431 2.72477 4.94799L2.23523 4.07601C1.5449 4.46356 1.00389 5.01142 0.618211 5.71046L1.49379 6.19354ZM2.72726 4.94658C3.26362 4.64141 3.87566 4.484 4.576 4.484V3.484C3.719 3.484 2.93371 3.67859 2.23274 4.07742L2.72726 4.94658ZM4.576 4.484C5.08408 4.484 5.52923 4.57009 5.91893 4.73322L6.30507 3.81078C5.77744 3.58991 5.19859 3.484 4.576 3.484V4.484ZM5.92817 4.73698C6.31984 4.89183 6.65243 5.11719 6.93158 5.41434L7.66042 4.72966C7.27823 4.32281 6.82149 4.01484 6.29583 3.80702L5.92817 4.73698ZM6.93688 5.4199C7.21054 5.70238 7.42507 6.05766 7.57468 6.49713L8.52133 6.17487C8.3296 5.61167 8.0428 5.12428 7.65512 4.7241L6.93688 5.4199ZM7.57575 6.50026C7.72522 6.92998 7.804 7.4226 7.804 7.984H8.804C8.804 7.3294 8.71212 6.72336 8.52025 6.17174L7.57575 6.50026ZM7.804 7.984C7.804 8.03322 7.79622 8.05544 7.79399 8.06082C7.79289 8.06349 7.79246 8.06378 7.79306 8.06296C7.79367 8.06213 7.79369 8.0624 7.79191 8.06389L8.43209 8.83211C8.69866 8.60997 8.804 8.29979 8.804 7.984H7.804ZM7.812 8.048C7.80577 8.05268 7.74351 8.092 7.552 8.092V9.092C7.85115 9.092 8.16224 9.03532 8.412 8.848L7.812 8.048ZM7.552 8.092H2.528V9.092H7.552V8.092ZM3.028 8.592V7.344H2.028V8.592H3.028ZM2.528 7.844H6.56V6.844H2.528V7.844ZM6.23075 6.96771L5.97475 7.19171L6.63325 7.94429L6.88925 7.72029L6.23075 6.96771ZM6.804 7.568C6.804 7.08608 6.73408 6.64856 6.56891 6.27693L5.65509 6.68307C5.74592 6.88744 5.804 7.17525 5.804 7.568H6.804ZM6.57157 6.28304C6.4082 5.90184 6.15758 5.59127 5.81197 5.3809L5.29203 6.2351C5.43709 6.3234 5.5598 6.46083 5.65243 6.67696L6.57157 6.28304ZM5.82044 5.38617C5.48674 5.17381 5.09402 5.084 4.672 5.084V6.084C4.95398 6.084 5.14793 6.14352 5.28356 6.22983L5.82044 5.38617ZM4.672 5.084C4.19899 5.084 3.76352 5.19354 3.39038 5.43752L3.93763 6.27448C4.11915 6.1558 4.35567 6.084 4.672 6.084V5.084ZM3.39038 5.43752C3.0218 5.67851 2.74922 6.02062 2.56592 6.43959L3.48208 6.84041C3.59745 6.57671 3.75153 6.39616 3.93762 6.27448L3.39038 5.43752ZM2.56592 6.43959C2.3822 6.85953 2.3 7.3421 2.3 7.872H3.3C3.3 7.4419 3.36713 7.10314 3.48208 6.84041L2.56592 6.43959ZM2.3 7.872V8H3.3V7.872H2.3ZM2.3 8C2.3 8.87528 2.50019 9.62491 3.0015 10.1405L3.7185 9.44346C3.47314 9.19109 3.3 8.74605 3.3 8H2.3ZM3.00645 10.1456C3.51488 10.654 4.22752 10.868 5.056 10.868V9.868C4.39114 9.868 3.97312 9.69801 3.71355 9.43845L3.00645 10.1456ZM5.056 10.868C5.35204 10.868 5.67822 10.8312 6.03101 10.7629L5.84099 9.78111C5.53245 9.84083 5.27196 9.868 5.056 9.868V10.868ZM6.03101 10.7629C6.40161 10.6912 6.75216 10.5768 7.08091 10.4185L6.64709 9.5175C6.39984 9.63655 6.13172 9.72484 5.84099 9.78111L6.03101 10.7629ZM7.07973 10.4191C7.26222 10.3318 7.36375 10.3335 7.41154 10.3441L7.62847 9.36791C7.29225 9.29319 6.95644 9.36955 6.64827 9.51693L7.07973 10.4191ZM7.4378 10.3492C7.52026 10.3629 7.55106 10.39 7.57169 10.4169L8.36431 9.80715C8.17161 9.55663 7.90374 9.41306 7.6022 9.3628L7.4378 10.3492ZM7.57169 10.4169C7.6148 10.4729 7.63984 10.536 7.64486 10.6214L8.64314 10.5626C8.62682 10.2853 8.53453 10.0284 8.36431 9.80715L7.57169 10.4169ZM7.64742 10.6504C7.65547 10.7188 7.64475 10.7988 7.59011 10.9021L8.47389 11.3699C8.61125 11.1105 8.6752 10.8279 8.64058 10.5336L7.64742 10.6504ZM7.59621 10.8909C7.55961 10.9559 7.48303 11.0397 7.32 11.1251L7.784 12.0109C8.06897 11.8616 8.31239 11.6574 8.46779 11.3811L7.59621 10.8909ZM7.30809 11.1315C6.99488 11.3066 6.63291 11.4397 6.21757 11.5266L6.42243 12.5054C6.92442 12.4003 7.38379 12.2348 7.79591 12.0045L7.30809 11.1315ZM6.20419 11.5296C5.79115 11.6279 5.39272 11.676 5.008 11.676V12.676C5.47662 12.676 5.95285 12.6174 6.43581 12.5024L6.20419 11.5296ZM15.3092 11.456L15.0664 11.8931H15.0664L15.3092 11.456ZM13.3092 9.44L12.8664 9.67223L12.8699 9.67867L13.3092 9.44ZM13.0052 3.968L12.5368 3.7932L12.5354 3.79713L13.0052 3.968ZM14.1573 2.144L14.5108 2.49757L14.5145 2.49381L14.1573 2.144ZM15.9813 0.959999L15.8027 0.492967L15.8004 0.493866L15.9813 0.959999ZM20.0452 0.752L19.9217 1.23663L19.9328 1.2392L20.0452 0.752ZM21.4853 1.312L21.2263 1.73975L21.2336 1.74412L21.2409 1.74825L21.4853 1.312ZM22.0293 1.872L21.5697 2.06896V2.06896L22.0293 1.872ZM22.1092 2.544L21.6181 2.45044L21.6159 2.46182L21.6143 2.47329L22.1092 2.544ZM21.8372 3.12L21.4717 2.77884L21.4654 2.78557L21.4594 2.79253L21.8372 3.12ZM21.3092 3.424L21.4073 3.91429L21.3092 3.424ZM20.5893 3.28L20.332 3.70875L20.3451 3.71658L20.3586 3.72361L20.5893 3.28ZM19.5812 2.864L19.6991 2.37807L19.5812 2.864ZM16.7013 3.168L16.9514 3.60094L16.9543 3.59921L16.7013 3.168ZM15.6133 4.384L16.0675 4.59295L15.6133 4.384ZM15.6133 8.32L15.1575 8.52555H15.1575L15.6133 8.32ZM16.7013 9.568L16.4439 9.99689L16.4552 10.0033L16.7013 9.568ZM19.5492 9.856L19.4347 9.36928L19.4314 9.37008L19.5492 9.856ZM20.5893 9.456L20.3656 9.00879L20.3572 9.01303L20.3488 9.01759L20.5893 9.456ZM21.3253 9.312L21.2272 9.80229L21.2408 9.80501L21.2545 9.80697L21.3253 9.312ZM21.8693 9.6L21.4914 9.92747L21.5031 9.94094L21.5157 9.95355L21.8693 9.6ZM22.1413 10.144L21.6468 10.2182L21.6486 10.2302L21.651 10.2421L22.1413 10.144ZM22.0773 10.784L21.613 10.5983V10.5983L22.0773 10.784ZM21.5972 11.328L21.3287 10.906L21.3173 10.9137L21.5972 11.328ZM20.1413 11.952L20.2667 12.436L20.1413 11.952ZM18.4293 11.676C17.2789 11.676 16.3265 11.4492 15.5521 11.0189L15.0664 11.8931C16.02 12.4228 17.1476 12.676 18.4293 12.676V11.676ZM15.5521 11.0189C14.7706 10.5848 14.1724 9.98141 13.7486 9.20133L12.8699 9.67867C13.3848 10.6266 14.1199 11.3672 15.0664 11.8931L15.5521 11.0189ZM13.7521 9.20779C13.3377 8.41769 13.1213 7.47109 13.1213 6.352H12.1213C12.1213 7.60091 12.3634 8.71298 12.8664 9.6722L13.7521 9.20779ZM13.1213 6.352C13.1213 5.51459 13.2423 4.77915 13.4751 4.13887L12.5354 3.79713C12.2562 4.56485 12.1213 5.41874 12.1213 6.352H13.1213ZM13.4737 4.14279C13.7172 3.49008 14.0639 2.94446 14.5108 2.49755L13.8037 1.79045C13.2479 2.34621 12.8266 3.01658 12.5368 3.7932L13.4737 4.14279ZM14.5145 2.49381C14.9626 2.0362 15.5092 1.67953 16.1621 1.42613L15.8004 0.493866C15.024 0.795139 14.3546 1.2278 13.8 1.79419L14.5145 2.49381ZM16.1598 1.42702C16.8195 1.17481 17.5736 1.044 18.4293 1.044V0.0439997C17.4716 0.0439997 16.5937 0.190519 15.8027 0.492973L16.1598 1.42702ZM18.4293 1.044C18.9188 1.044 19.416 1.10759 19.9217 1.23651L20.1688 0.267493C19.5865 0.119078 19.0064 0.0439997 18.4293 0.0439997V1.044ZM19.9328 1.2392C20.4459 1.3576 20.8745 1.52676 21.2263 1.73975L21.7442 0.884249C21.2854 0.606573 20.7539 0.402401 20.1577 0.264804L19.9328 1.2392ZM21.2409 1.74825C21.4363 1.85765 21.5271 1.96966 21.5697 2.06896L22.4888 1.67504C22.3394 1.32634 22.0675 1.06502 21.7296 0.875746L21.2409 1.74825ZM21.5697 2.06896C21.6293 2.20804 21.6408 2.33111 21.6181 2.45044L22.6004 2.63756C22.663 2.30889 22.6212 1.98396 22.4888 1.67504L21.5697 2.06896ZM21.6143 2.47329C21.5962 2.59967 21.5488 2.69628 21.4717 2.77884L22.2028 3.46116C22.4244 3.22372 22.5583 2.93633 22.6042 2.61471L21.6143 2.47329ZM21.4594 2.79253C21.3955 2.86628 21.319 2.91214 21.2112 2.93371L21.4073 3.91429C21.7261 3.85052 22.0017 3.69372 22.2151 3.44747L21.4594 2.79253ZM21.2112 2.93371C21.1455 2.94686 21.0237 2.94233 20.8199 2.83639L20.3586 3.72361C20.6882 3.895 21.0464 3.98648 21.4073 3.91429L21.2112 2.93371ZM20.8465 2.85125C20.4845 2.63405 20.1016 2.47567 19.6991 2.37807L19.4634 3.34992C19.7649 3.42299 20.054 3.54195 20.332 3.70875L20.8465 2.85125ZM19.6991 2.37807C19.3084 2.28338 18.9116 2.236 18.5093 2.236V3.236C18.8323 3.236 19.1501 3.27395 19.4634 3.34992L19.6991 2.37807ZM18.5093 2.236C17.7281 2.236 17.0329 2.39357 16.4482 2.73679L16.9543 3.59921C17.3509 3.36642 17.8611 3.236 18.5093 3.236V2.236ZM16.4511 2.73507C15.8761 3.06729 15.4449 3.55361 15.159 4.17505L16.0675 4.59295C16.2723 4.14772 16.5664 3.82337 16.9514 3.60093L16.4511 2.73507ZM15.159 4.17505C14.8754 4.79162 14.7453 5.52362 14.7453 6.352H15.7453C15.7453 5.62304 15.8605 5.04305 16.0675 4.59295L15.159 4.17505ZM14.7453 6.352C14.7453 7.17133 14.8759 7.90123 15.1575 8.52555L16.069 8.11445C15.8599 7.65077 15.7453 7.06867 15.7453 6.352H14.7453ZM15.1575 8.52555C15.4418 9.15597 15.8707 9.65278 16.444 9.99675L16.9585 9.13925C16.5718 8.90722 16.2754 8.57203 16.069 8.11445L15.1575 8.52555ZM16.4552 10.0033C17.0385 10.333 17.731 10.484 18.5093 10.484V9.484C17.8581 9.484 17.3453 9.35771 16.9473 9.13272L16.4552 10.0033ZM18.5093 10.484C18.8926 10.484 19.2788 10.436 19.667 10.3419L19.4314 9.37008C19.1157 9.44663 18.8086 9.484 18.5093 9.484V10.484ZM19.6638 10.3427C20.0709 10.2469 20.4599 10.0972 20.8297 9.89441L20.3488 9.01759C20.0573 9.17748 19.7529 9.29443 19.4347 9.36929L19.6638 10.3427ZM20.8129 9.90321C21.0319 9.79369 21.1608 9.789 21.2272 9.80229L21.4233 8.82171C21.0631 8.74966 20.7013 8.84098 20.3656 9.00879L20.8129 9.90321ZM21.2545 9.80697C21.3682 9.82321 21.4373 9.86502 21.4914 9.92747L22.2471 9.27253C22.0239 9.01498 21.7303 8.86479 21.396 8.81703L21.2545 9.80697ZM21.5157 9.95355C21.5877 10.0255 21.6303 10.1082 21.6468 10.2182L22.6357 10.0698C22.5882 9.75313 22.4495 9.47316 22.2228 9.24645L21.5157 9.95355ZM21.651 10.2421C21.6735 10.3548 21.6644 10.4697 21.613 10.5983L22.5415 10.9697C22.6607 10.6716 22.6943 10.3598 22.6315 10.0459L21.651 10.2421ZM21.613 10.5983C21.5742 10.6953 21.4941 10.801 21.3288 10.9062L21.8657 11.7498C22.1698 11.5563 22.4096 11.2993 22.5415 10.9697L21.613 10.5983ZM21.3173 10.9137C20.9799 11.1417 20.5499 11.3295 20.0158 11.468L20.2667 12.436C20.8846 12.2758 21.4253 12.0476 21.8772 11.7423L21.3173 10.9137ZM20.0158 11.468C19.4786 11.6073 18.9501 11.676 18.4293 11.676V12.676C19.0391 12.676 19.6519 12.5954 20.2667 12.436L20.0158 11.468ZM27.2708 11.664L27.6243 11.3104L27.2708 11.664ZM27.2708 1.056L27.6243 1.40955V1.40955L27.2708 1.056ZM34.5348 0.976L34.17 1.31797L34.181 1.32974L34.1928 1.34077L34.5348 0.976ZM34.5348 2.416L34.1812 2.06245V2.06245L34.5348 2.416ZM29.3027 2.656V2.156H28.8027V2.656H29.3027ZM29.3027 5.296H28.8027V5.796H29.3027V5.296ZM34.1828 5.552L33.818 5.89397L33.829 5.90574L33.8408 5.91677L34.1828 5.552ZM34.1828 7.008L34.5363 7.36155V7.36155L34.1828 7.008ZM29.3027 7.248V6.748H28.8027V7.248H29.3027ZM29.3027 10.064H28.8027V10.564H29.3027V10.064ZM34.5348 10.32L34.17 10.662L34.181 10.6737L34.1928 10.6848L34.5348 10.32ZM34.5348 11.76L34.1812 11.4064L34.5348 11.76ZM28.2308 11.5C27.9042 11.5 27.7279 11.414 27.6243 11.3104L26.9172 12.0176C27.2616 12.362 27.7253 12.5 28.2308 12.5V11.5ZM27.6243 11.3104C27.5207 11.2069 27.4347 11.0305 27.4347 10.704H26.4347C26.4347 11.2095 26.5728 11.6731 26.9172 12.0176L27.6243 11.3104ZM27.4347 10.704V2.016H26.4347V10.704H27.4347ZM27.4347 2.016C27.4347 1.68947 27.5207 1.51315 27.6243 1.40955L26.9172 0.702446C26.5728 1.04685 26.4347 1.51053 26.4347 2.016H27.4347ZM27.6243 1.40955C27.7279 1.30596 27.9042 1.22 28.2308 1.22V0.219999C27.7253 0.219999 27.2616 0.358039 26.9172 0.702446L27.6243 1.40955ZM28.2308 1.22H33.8148V0.219999H28.2308V1.22ZM33.8148 1.22C34.0491 1.22 34.1353 1.28096 34.17 1.31797L34.8995 0.63403C34.6142 0.329704 34.2204 0.219999 33.8148 0.219999V1.22ZM34.1928 1.34077C34.233 1.37849 34.2907 1.46224 34.2907 1.68H35.2907C35.2907 1.27909 35.1778 0.893509 34.8767 0.611231L34.1928 1.34077ZM34.2907 1.68C34.2907 1.91212 34.2306 2.01304 34.1812 2.06245L34.8883 2.76955C35.1802 2.47763 35.2907 2.08788 35.2907 1.68H34.2907ZM34.1812 2.06245C34.148 2.09561 34.0577 2.156 33.8148 2.156V3.156C34.2118 3.156 34.6015 3.05639 34.8883 2.76955L34.1812 2.06245ZM33.8148 2.156H29.3027V3.156H33.8148V2.156ZM28.8027 2.656V5.296H29.8027V2.656H28.8027ZM29.3027 5.796H33.4468V4.796H29.3027V5.796ZM33.4468 5.796C33.6976 5.796 33.7861 5.86001 33.818 5.89397L34.5475 5.21003C34.2594 4.90266 33.8572 4.796 33.4468 4.796V5.796ZM33.8408 5.91677C33.8778 5.95146 33.9388 6.03763 33.9388 6.272H34.9388C34.9388 5.86637 34.829 5.47254 34.5247 5.18723L33.8408 5.91677ZM33.9388 6.272C33.9388 6.50412 33.8786 6.60504 33.8292 6.65445L34.5363 7.36155C34.8282 7.06963 34.9388 6.67988 34.9388 6.272H33.9388ZM33.8292 6.65445C33.7988 6.68488 33.7059 6.748 33.4468 6.748V7.748C33.8489 7.748 34.2467 7.65112 34.5363 7.36155L33.8292 6.65445ZM33.4468 6.748H29.3027V7.748H33.4468V6.748ZM28.8027 7.248V10.064H29.8027V7.248H28.8027ZM29.3027 10.564H33.8148V9.564H29.3027V10.564ZM33.8148 10.564C34.0491 10.564 34.1353 10.625 34.17 10.662L34.8995 9.97803C34.6142 9.6737 34.2204 9.564 33.8148 9.564V10.564ZM34.1928 10.6848C34.233 10.7225 34.2907 10.8062 34.2907 11.024H35.2907C35.2907 10.6231 35.1778 10.2375 34.8767 9.95523L34.1928 10.6848ZM34.2907 11.024C34.2907 11.2561 34.2306 11.357 34.1812 11.4064L34.8883 12.1136C35.1802 11.8216 35.2907 11.4319 35.2907 11.024H34.2907ZM34.1812 11.4064C34.148 11.4396 34.0577 11.5 33.8148 11.5V12.5C34.2118 12.5 34.6015 12.4004 34.8883 12.1136L34.1812 11.4064ZM33.8148 11.5H28.2308V12.5H33.8148V11.5ZM39.9823 11.664L39.6201 12.0089L39.6287 12.0176L39.9823 11.664ZM41.8223 1.008L42.1758 0.654446V0.654446L41.8223 1.008ZM42.1423 9.904H41.6423V10.404H42.1423V9.904ZM47.2142 10.176L46.8607 10.5296L46.8657 10.5346L46.8709 10.5395L47.2142 10.176ZM47.2142 11.728L46.8709 11.3645L46.8657 11.3694L46.8607 11.3744L47.2142 11.728ZM40.9263 11.5C40.6147 11.5 40.4417 11.4164 40.3358 11.3104L39.6287 12.0176C39.9708 12.3596 40.4272 12.5 40.9263 12.5V11.5ZM40.3443 11.3192C40.2421 11.2118 40.1623 11.0392 40.1623 10.736H39.1623C39.1623 11.2222 39.2958 11.6682 39.6202 12.0088L40.3443 11.3192ZM40.1623 10.736V1.952H39.1623V10.736H40.1623ZM40.1623 1.952C40.1623 1.61733 40.2472 1.4502 40.3358 1.36155L39.6287 0.654446C39.2907 0.992463 39.1623 1.45467 39.1623 1.952H40.1623ZM40.3358 1.36155C40.4267 1.27065 40.5906 1.188 40.9102 1.188V0.188C40.4192 0.188 39.9645 0.318686 39.6287 0.654446L40.3358 1.36155ZM40.9102 1.188C41.2148 1.188 41.3754 1.26828 41.4687 1.36155L42.1758 0.654446C41.8424 0.321051 41.395 0.188 40.9102 0.188V1.188ZM41.4687 1.36155C41.5573 1.4502 41.6423 1.61733 41.6423 1.952H42.6423C42.6423 1.45467 42.5138 0.992463 42.1758 0.654446L41.4687 1.36155ZM41.6423 1.952V9.904H42.6423V1.952H41.6423ZM42.1423 10.404H46.4302V9.404H42.1423V10.404ZM46.4302 10.404C46.6844 10.404 46.801 10.4698 46.8607 10.5296L47.5678 9.82245C47.2649 9.51951 46.8588 9.404 46.4302 9.404V10.404ZM46.8709 10.5395C46.9389 10.6037 47.0023 10.714 47.0023 10.944H48.0023C48.0023 10.5127 47.8736 10.111 47.5576 9.81249L46.8709 10.5395ZM47.0023 10.944C47.0023 11.1902 46.9358 11.3032 46.8709 11.3645L47.5576 12.0915C47.8767 11.7901 48.0023 11.3805 48.0023 10.944H47.0023ZM46.8607 11.3744C46.801 11.4342 46.6844 11.5 46.4302 11.5V12.5C46.8588 12.5 47.2649 12.3845 47.5678 12.0816L46.8607 11.3744ZM46.4302 11.5H40.9263V12.5H46.4302V11.5ZM52.1941 11.664L51.8319 12.0089L51.8406 12.0176L52.1941 11.664ZM54.0341 1.008L54.3877 0.654446V0.654446L54.0341 1.008ZM54.3541 9.904H53.8541V10.404H54.3541V9.904ZM59.4261 10.176L59.0726 10.5296L59.0776 10.5346L59.0828 10.5395L59.4261 10.176ZM59.4261 11.728L59.0828 11.3645L59.0776 11.3694L59.0726 11.3744L59.4261 11.728ZM53.1381 11.5C52.8266 11.5 52.6536 11.4164 52.5477 11.3104L51.8406 12.0176C52.1826 12.3596 52.639 12.5 53.1381 12.5V11.5ZM52.5562 11.3192C52.4539 11.2118 52.3741 11.0392 52.3741 10.736H51.3741C51.3741 11.2222 51.5077 11.6682 51.8321 12.0088L52.5562 11.3192ZM52.3741 10.736V1.952H51.3741V10.736H52.3741ZM52.3741 1.952C52.3741 1.61733 52.459 1.4502 52.5477 1.36155L51.8406 0.654446C51.5026 0.992463 51.3741 1.45467 51.3741 1.952H52.3741ZM52.5477 1.36155C52.6386 1.27065 52.8025 1.188 53.1221 1.188V0.188C52.6311 0.188 52.1763 0.318686 51.8406 0.654446L52.5477 1.36155ZM53.1221 1.188C53.4267 1.188 53.5873 1.26828 53.6806 1.36155L54.3877 0.654446C54.0543 0.321051 53.6069 0.188 53.1221 0.188V1.188ZM53.6806 1.36155C53.7692 1.4502 53.8541 1.61733 53.8541 1.952H54.8541C54.8541 1.45467 54.7257 0.992463 54.3877 0.654446L53.6806 1.36155ZM53.8541 1.952V9.904H54.8541V1.952H53.8541ZM54.3541 10.404H58.6421V9.404H54.3541V10.404ZM58.6421 10.404C58.8962 10.404 59.0128 10.4698 59.0726 10.5296L59.7797 9.82245C59.4767 9.51951 59.0707 9.404 58.6421 9.404V10.404ZM59.0828 10.5395C59.1508 10.6037 59.2141 10.714 59.2141 10.944H60.2141C60.2141 10.5127 60.0855 10.111 59.7694 9.81249L59.0828 10.5395ZM59.2141 10.944C59.2141 11.1902 59.1477 11.3032 59.0828 11.3645L59.7694 12.0915C60.0886 11.7901 60.2141 11.3805 60.2141 10.944H59.2141ZM59.0726 11.3744C59.0128 11.4342 58.8962 11.5 58.6421 11.5V12.5C59.0707 12.5 59.4767 12.3845 59.7797 12.0816L59.0726 11.3744ZM58.6421 11.5H53.1381V12.5H58.6421V11.5ZM1.424 33.84L1.05235 34.1745L1.06115 34.1843L1.07045 34.1936L1.424 33.84ZM1.424 22.896L1.06137 22.5515L1.05235 22.5615L1.424 22.896ZM2.88 22.752L2.57109 23.1452L2.58642 23.1572L2.60265 23.168L2.88 22.752ZM3.424 23.296L3.81725 22.9872L3.81602 22.9856L3.424 23.296ZM9.04 30.448V30.948H10.0683L9.43325 30.1392L9.04 30.448ZM8.608 30.448H8.108V30.948H8.608V30.448ZM8.896 22.896L8.5335 22.5516L8.53302 22.5521L8.896 22.896ZM10.608 22.896L10.2364 23.2305L10.2451 23.2403L10.2544 23.2496L10.608 22.896ZM10.64 33.84L11.0127 34.1735L11.021 34.1638L10.64 33.84ZM9.184 33.968L8.90062 34.3802L8.91237 34.3878L9.184 33.968ZM8.624 33.408L8.23032 33.7163L8.23198 33.7184L8.624 33.408ZM3.024 26.256V25.756H1.99746L2.63032 26.5642L3.024 26.256ZM3.44 26.256H3.94V25.756H3.44V26.256ZM3.152 33.84L3.51509 34.184L3.52365 34.1745L3.152 33.84ZM2.288 33.644C2.00548 33.644 1.86054 33.5694 1.77755 33.4864L1.07045 34.1936C1.39279 34.5159 1.82385 34.644 2.288 34.644V33.644ZM1.79565 33.5055C1.71082 33.4113 1.636 33.2469 1.636 32.944H0.636C0.636 33.4091 0.753178 33.8421 1.05235 34.1745L1.79565 33.5055ZM1.636 32.944V23.824H0.636V32.944H1.636ZM1.636 23.824C1.636 23.4915 1.71487 23.3202 1.79565 23.2305L1.05235 22.5615C0.74913 22.8984 0.636 23.3459 0.636 23.824H1.636ZM1.7865 23.2404C1.88264 23.1392 2.01172 23.076 2.224 23.076V22.076C1.77495 22.076 1.3707 22.2262 1.0615 22.5516L1.7865 23.2404ZM2.224 23.076C2.45503 23.076 2.5451 23.1247 2.57109 23.1452L3.18891 22.3588C2.91624 22.1446 2.56897 22.076 2.224 22.076V23.076ZM2.60265 23.168C2.69918 23.2324 2.84247 23.367 3.03198 23.6064L3.81602 22.9856C3.6002 22.713 3.38082 22.485 3.15735 22.336L2.60265 23.168ZM3.03075 23.6048L8.64675 30.7568L9.43325 30.1392L3.81725 22.9872L3.03075 23.6048ZM9.04 29.948H8.608V30.948H9.04V29.948ZM9.108 30.448V23.76H8.108V30.448H9.108ZM9.108 23.76C9.108 23.4704 9.18125 23.3219 9.25898 23.2399L8.53302 22.5521C8.22675 22.8754 8.108 23.3029 8.108 23.76H9.108ZM9.2585 23.2404C9.34289 23.1515 9.48469 23.076 9.76 23.076V22.076C9.28864 22.076 8.85444 22.2138 8.5335 22.5516L9.2585 23.2404ZM9.76 23.076C10.0368 23.076 10.1657 23.152 10.2364 23.2305L10.9796 22.5615C10.6663 22.2134 10.2299 22.076 9.76 22.076V23.076ZM10.2544 23.2496C10.3374 23.3325 10.412 23.4775 10.412 23.76H11.412C11.412 23.2959 11.2839 22.8648 10.9616 22.5424L10.2544 23.2496ZM10.412 23.76V32.992H11.412V23.76H10.412ZM10.412 32.992C10.412 33.2568 10.3454 33.4146 10.259 33.5162L11.021 34.1638C11.2973 33.8387 11.412 33.4312 11.412 32.992H10.412ZM10.2674 33.5066C10.1944 33.5881 10.0927 33.644 9.904 33.644V34.644C10.3339 34.644 10.7229 34.4972 11.0126 34.1734L10.2674 33.5066ZM9.904 33.644C9.66613 33.644 9.5306 33.5967 9.45563 33.5482L8.91237 34.3878C9.20006 34.5739 9.54454 34.644 9.904 34.644V33.644ZM9.46727 33.556C9.35433 33.4783 9.20338 33.3343 9.01602 33.0976L8.23198 33.7184C8.44995 33.9937 8.67233 34.223 8.90073 34.38L9.46727 33.556ZM9.01768 33.0998L3.41768 25.9478L2.63032 26.5642L8.23032 33.7162L9.01768 33.0998ZM3.024 26.756H3.44V25.756H3.024V26.756ZM2.94 26.256V32.944H3.94V26.256H2.94ZM2.94 32.944C2.94 33.2469 2.86518 33.4113 2.78035 33.5055L3.52365 34.1745C3.82282 33.8421 3.94 33.4091 3.94 32.944H2.94ZM2.78902 33.4961C2.72263 33.5662 2.58782 33.644 2.288 33.644V34.644C2.75618 34.644 3.19737 34.5191 3.51498 34.1839L2.78902 33.4961ZM18.8789 34.064L18.9574 33.5701L18.948 33.5688L18.8789 34.064ZM17.5509 33.776L17.4038 34.2539L17.4072 34.2549L17.5509 33.776ZM16.4309 33.296L16.682 32.8635L16.6703 32.8571L16.4309 33.296ZM15.9349 32.8L15.4788 33.0052L15.483 33.014L15.9349 32.8ZM15.8229 32.16L15.3284 32.0858L15.3266 32.098L15.3254 32.1102L15.8229 32.16ZM16.0629 31.6L15.6748 31.2847L15.6724 31.2877L16.0629 31.6ZM16.5749 31.28L16.6779 31.7693L16.6871 31.7673L16.6961 31.7651L16.5749 31.28ZM17.2789 31.392L17.5235 30.9559L17.5131 30.9501L17.5025 30.9448L17.2789 31.392ZM18.7029 31.936L18.5912 32.4234L18.5934 32.4239L18.7029 31.936ZM21.9189 31.76L22.2083 32.1678L22.2168 32.1615L21.9189 31.76ZM22.0629 30.112L21.7572 30.5076L22.0629 30.112ZM20.8309 29.648L20.9375 29.1595L20.9348 29.1589L20.8309 29.648ZM19.0229 29.264L19.1268 28.7749L19.1249 28.7745L19.0229 29.264ZM16.7349 28.176L16.3703 28.5183L16.3776 28.5258L16.7349 28.176ZM16.3349 24.672L16.7799 24.8999L16.3349 24.672ZM17.2789 23.536L16.9691 23.1436L17.2789 23.536ZM18.7189 22.8L18.5744 22.3213L18.5718 22.3221L18.7189 22.8ZM22.3349 22.768L22.2094 23.2521L22.2178 23.2541L22.3349 22.768ZM23.8549 23.392L23.587 23.8144L23.5976 23.8207L23.8549 23.392ZM24.2869 23.888L23.8177 24.0609L23.8233 24.0762L23.83 24.0911L24.2869 23.888ZM24.3669 24.48L23.873 24.402L23.8712 24.4134L23.8699 24.4248L24.3669 24.48ZM24.1269 24.992L23.7605 24.6518L23.7537 24.6591L23.7472 24.6666L24.1269 24.992ZM22.8949 25.136L22.6658 25.5806L22.678 25.5865L22.8949 25.136ZM21.7749 24.736L21.8805 24.2473L21.7749 24.736ZM19.4069 24.784L19.2347 24.3145L19.2295 24.3165L19.4069 24.784ZM18.6869 25.28L18.2964 24.9677L18.2916 24.9738L18.2869 24.98L18.6869 25.28ZM19.9509 27.232L20.0548 26.7429L20.0544 26.7428L19.9509 27.232ZM21.7589 27.616L21.8636 27.1271L21.8628 27.1269L21.7589 27.616ZM24.0949 28.704L23.745 29.0613L23.7489 29.065L24.0949 28.704ZM24.5429 32.112L24.9901 32.3356L24.9923 32.3312L24.5429 32.112ZM23.6149 33.216L23.9182 33.6135L23.6149 33.216ZM22.1589 33.936L22.2951 34.4172L22.3034 34.4147L22.1589 33.936ZM20.2549 33.676C19.8347 33.676 19.4023 33.641 18.9574 33.5702L18.8003 34.5578C19.2941 34.6363 19.779 34.676 20.2549 34.676V33.676ZM18.948 33.5688C18.5135 33.5082 18.0959 33.4175 17.6945 33.2971L17.4072 34.2549C17.8592 34.3905 18.3269 34.4918 18.8098 34.5592L18.948 33.5688ZM17.6979 33.2981C17.3133 33.1798 16.9756 33.0341 16.6819 32.8636L16.1798 33.7284C16.5475 33.9419 16.9564 34.1162 17.4038 34.2539L17.6979 33.2981ZM16.6703 32.8571C16.5101 32.7697 16.4293 32.6758 16.3867 32.586L15.483 33.014C15.6324 33.3295 15.8823 33.5663 16.1914 33.7349L16.6703 32.8571ZM16.3908 32.5948C16.3274 32.4539 16.3086 32.3281 16.3204 32.2098L15.3254 32.1102C15.2945 32.4186 15.3503 32.7195 15.4789 33.0052L16.3908 32.5948ZM16.3173 32.2342C16.337 32.1032 16.3833 31.9998 16.4533 31.9123L15.6724 31.2877C15.4864 31.5202 15.3728 31.7901 15.3284 32.0858L16.3173 32.2342ZM16.4509 31.9153C16.5221 31.8277 16.5946 31.7868 16.6779 31.7693L16.4719 30.7907C16.1498 30.8585 15.881 31.031 15.6748 31.2847L16.4509 31.9153ZM16.6961 31.7651C16.7625 31.7485 16.8732 31.7482 17.0553 31.8392L17.5025 30.9448C17.1725 30.7798 16.8139 30.7048 16.4536 30.7949L16.6961 31.7651ZM17.0343 31.8281C17.5152 32.0979 18.0349 32.2959 18.5912 32.4234L18.8146 31.4486C18.3469 31.3415 17.9173 31.1768 17.5235 30.9559L17.0343 31.8281ZM18.5934 32.4239C19.1503 32.5489 19.7044 32.612 20.2549 32.612V31.612C19.7814 31.612 19.3008 31.5578 18.8124 31.4481L18.5934 32.4239ZM20.2549 32.612C21.0563 32.612 21.7449 32.4965 22.2082 32.1678L21.6295 31.3522C21.4315 31.4928 21.0108 31.612 20.2549 31.612V32.612ZM22.2168 32.1615C22.6549 31.8365 22.9149 31.392 22.9149 30.848H21.9149C21.9149 31.0293 21.8442 31.1928 21.621 31.3585L22.2168 32.1615ZM22.9149 30.848C22.9149 30.3916 22.7318 29.997 22.3686 29.7164L21.7572 30.5076C21.8633 30.5896 21.9149 30.6857 21.9149 30.848H22.9149ZM22.3686 29.7164C22.0411 29.4633 21.5372 29.2903 20.9375 29.1595L20.7243 30.1365C21.2979 30.2617 21.6153 30.3981 21.7572 30.5076L22.3686 29.7164ZM20.9348 29.1589L19.1268 28.7749L18.919 29.7531L20.727 30.1371L20.9348 29.1589ZM19.1249 28.7745C18.1556 28.5726 17.499 28.2417 17.0921 27.8262L16.3776 28.5258C16.9734 29.1343 17.8422 29.5288 18.9209 29.7535L19.1249 28.7745ZM17.0994 27.8338C16.7108 27.4198 16.4989 26.8673 16.4989 26.128H15.4989C15.4989 27.074 15.7776 27.8868 16.3703 28.5182L17.0994 27.8338ZM16.4989 26.128C16.4989 25.667 16.5951 25.2608 16.7799 24.8999L15.8899 24.4441C15.6267 24.9578 15.4989 25.5223 15.4989 26.128H16.4989ZM16.7799 24.8999C16.9695 24.5298 17.2368 24.2063 17.5887 23.9284L16.9691 23.1436C16.5103 23.5057 16.1483 23.9396 15.8899 24.4441L16.7799 24.8999ZM17.5887 23.9284C17.9399 23.6512 18.3631 23.4326 18.8659 23.2779L18.5718 22.3221C17.9654 22.5087 17.4285 22.7808 16.9691 23.1436L17.5887 23.9284ZM18.8634 23.2787C19.3759 23.1239 19.9452 23.044 20.5749 23.044V22.044C19.8605 22.044 19.1925 22.1347 18.5744 22.3213L18.8634 23.2787ZM20.5749 23.044C21.13 23.044 21.6745 23.1133 22.2094 23.252L22.4604 22.284C21.8432 22.124 21.2144 22.044 20.5749 22.044V23.044ZM22.2178 23.2541C22.748 23.3817 23.2023 23.5702 23.5871 23.8143L24.1226 22.9697C23.6328 22.6591 23.0737 22.4316 22.4519 22.2819L22.2178 23.2541ZM23.5976 23.8207C23.7288 23.8995 23.7883 23.9811 23.8177 24.0609L24.756 23.7151C24.6361 23.3896 24.4076 23.1405 24.1121 22.9633L23.5976 23.8207ZM23.83 24.0911C23.8771 24.1972 23.8896 24.297 23.873 24.402L24.8608 24.558C24.9082 24.2576 24.8673 23.9628 24.7438 23.6849L23.83 24.0911ZM23.8699 24.4248C23.8611 24.5042 23.8305 24.5764 23.7605 24.6518L24.4933 25.3322C24.7006 25.1089 24.83 24.8398 24.8638 24.5352L23.8699 24.4248ZM23.7472 24.6666C23.6949 24.7277 23.6289 24.7695 23.5279 24.7907L23.7339 25.7693C24.0382 25.7052 24.3029 25.5549 24.5065 25.3174L23.7472 24.6666ZM23.5279 24.7907C23.4779 24.8013 23.3513 24.8008 23.1118 24.6855L22.678 25.5865C23.0145 25.7485 23.3786 25.8441 23.7339 25.7693L23.5279 24.7907ZM23.1239 24.6915C22.7321 24.4897 22.3172 24.3417 21.8805 24.2473L21.6692 25.2247C22.0219 25.301 22.3537 25.4196 22.6659 25.5805L23.1239 24.6915ZM21.8805 24.2473C21.4501 24.1542 21.0093 24.108 20.5589 24.108V25.108C20.9404 25.108 21.3103 25.1471 21.6692 25.2247L21.8805 24.2473ZM20.5589 24.108C20.0696 24.108 19.6242 24.1718 19.2347 24.3146L19.579 25.2534C19.8296 25.1616 20.1522 25.108 20.5589 25.108V24.108ZM19.2295 24.3165C18.8542 24.4589 18.5337 24.6711 18.2964 24.9677L19.0773 25.5923C19.1814 25.4623 19.3409 25.3438 19.5842 25.2515L19.2295 24.3165ZM18.2869 24.98C18.0592 25.2835 17.9469 25.6351 17.9469 26.016H18.9469C18.9469 25.8422 18.9945 25.7031 19.0869 25.58L18.2869 24.98ZM17.9469 26.016C17.9469 26.4632 18.1167 26.8555 18.4575 27.1476L19.1083 26.3884C19.0011 26.2965 18.9469 26.1875 18.9469 26.016H17.9469ZM18.4575 27.1476C18.7805 27.4245 19.2733 27.5997 19.8474 27.7212L20.0544 26.7428C19.5191 26.6296 19.2333 26.4955 19.1083 26.3884L18.4575 27.1476ZM19.847 27.7211L21.655 28.1051L21.8628 27.1269L20.0548 26.7429L19.847 27.7211ZM21.6541 28.1049C22.6495 28.3182 23.3262 28.6511 23.7451 29.0613L24.4447 28.3467C23.8396 27.7543 22.9589 27.3618 21.8636 27.1271L21.6541 28.1049ZM23.7489 29.065C24.1481 29.4475 24.3629 29.9603 24.3629 30.656H25.3629C25.3629 29.7304 25.0656 28.9418 24.4408 28.343L23.7489 29.065ZM24.3629 30.656C24.3629 31.1208 24.2704 31.5301 24.0935 31.8928L24.9923 32.3312C25.242 31.8192 25.3629 31.2579 25.3629 30.656H24.3629ZM24.0957 31.8884C23.9187 32.2423 23.6606 32.5522 23.3115 32.8185L23.9182 33.6135C24.3799 33.2612 24.7404 32.8351 24.9901 32.3356L24.0957 31.8884ZM23.3115 32.8185C22.9607 33.0862 22.5313 33.3013 22.0144 33.4573L22.3034 34.4147C22.9172 34.2294 23.4583 33.9644 23.9182 33.6135L23.3115 32.8185ZM22.0227 33.4549C21.5094 33.6002 20.9216 33.676 20.2549 33.676V34.676C20.9961 34.676 21.6777 34.5918 22.295 34.4171L22.0227 33.4549ZM32.2169 33.872L32.0513 34.3439L32.0612 34.3472L32.2169 33.872ZM30.6809 32.944L30.3319 33.3021L30.6809 32.944ZM29.7369 31.424L29.2616 31.5797L29.2651 31.5895L29.7369 31.424ZM29.7529 22.896L30.1064 23.2496L29.7529 22.896ZM31.5929 22.896L31.2393 23.2496H31.2393L31.5929 22.896ZM32.5369 31.376L32.1627 31.7077L32.1665 31.7119L32.5369 31.376ZM36.1369 31.376L35.7627 31.0443L35.7622 31.0449L36.1369 31.376ZM37.0809 22.896L37.4344 23.2496L37.0809 22.896ZM38.8889 22.896L38.5263 23.2405L38.5353 23.2496L38.8889 22.896ZM38.6489 32L38.203 31.7738L38.2017 31.7764L38.6489 32ZM37.0169 33.632L36.7933 33.1848L36.7906 33.1861L37.0169 33.632ZM34.3449 33.676C33.5861 33.676 32.931 33.5798 32.3725 33.3968L32.0612 34.3472C32.7401 34.5695 33.5036 34.676 34.3449 34.676V33.676ZM32.3824 33.4002C31.8355 33.2083 31.3882 32.9351 31.0298 32.5859L30.3319 33.3021C30.8055 33.7636 31.3822 34.109 32.0513 34.3438L32.3824 33.4002ZM31.0298 32.5859C30.6749 32.2401 30.3993 31.8017 30.2087 31.2585L29.2651 31.5895C29.5011 32.2623 29.8549 32.8373 30.3319 33.3021L31.0298 32.5859ZM30.212 31.2683C30.0293 30.7105 29.9329 30.0502 29.9329 29.28H28.9329C28.9329 30.1311 29.0391 30.9002 29.2617 31.5797L30.212 31.2683ZM29.9329 29.28V23.84H28.9329V29.28H29.9329ZM29.9329 23.84C29.9329 23.5053 30.0178 23.3382 30.1064 23.2496L29.3993 22.5424C29.0613 22.8805 28.9329 23.3427 28.9329 23.84H29.9329ZM30.1064 23.2496C30.1973 23.1586 30.3612 23.076 30.6809 23.076V22.076C30.1899 22.076 29.7351 22.2067 29.3993 22.5424L30.1064 23.2496ZM30.6809 23.076C30.9854 23.076 31.146 23.1563 31.2393 23.2496L31.9464 22.5424C31.613 22.2091 31.1656 22.076 30.6809 22.076V23.076ZM31.2393 23.2496C31.328 23.3382 31.4129 23.5053 31.4129 23.84H32.4129C32.4129 23.3427 32.2844 22.8805 31.9464 22.5424L31.2393 23.2496ZM31.4129 23.84V29.296H32.4129V23.84H31.4129ZM31.4129 29.296C31.4129 30.2801 31.6352 31.1125 32.1627 31.7077L32.911 31.0443C32.6066 30.7008 32.4129 30.1466 32.4129 29.296H31.4129ZM32.1665 31.7119C32.7019 32.3022 33.4558 32.564 34.3449 32.564V31.564C33.6553 31.564 33.2039 31.3671 32.9072 31.0401L32.1665 31.7119ZM34.3449 32.564C35.2333 32.564 35.9855 32.3024 36.5115 31.7071L35.7622 31.0449C35.4776 31.367 35.0351 31.564 34.3449 31.564V32.564ZM36.511 31.7077C37.0386 31.1125 37.2609 30.2801 37.2609 29.296H36.2609C36.2609 30.1466 36.0672 30.7008 35.7627 31.0443L36.511 31.7077ZM37.2609 29.296V23.84H36.2609V29.296H37.2609ZM37.2609 23.84C37.2609 23.5053 37.3458 23.3382 37.4344 23.2496L36.7273 22.5424C36.3893 22.8805 36.2609 23.3427 36.2609 23.84H37.2609ZM37.4344 23.2496C37.5277 23.1563 37.6883 23.076 37.9929 23.076V22.076C37.5081 22.076 37.0607 22.2091 36.7273 22.5424L37.4344 23.2496ZM37.9929 23.076C38.2991 23.076 38.447 23.1569 38.5264 23.2404L39.2514 22.5516C38.9254 22.2085 38.476 22.076 37.9929 22.076V23.076ZM38.5353 23.2496C38.624 23.3382 38.7089 23.5053 38.7089 23.84H39.7089C39.7089 23.3427 39.5804 22.8805 39.2424 22.5424L38.5353 23.2496ZM38.7089 23.84V29.28H39.7089V23.84H38.7089ZM38.7089 29.28C38.7089 30.3019 38.5316 31.126 38.203 31.7738L39.0948 32.2262C39.5128 31.402 39.7089 30.4128 39.7089 29.28H38.7089ZM38.2017 31.7764C37.8874 32.405 37.4218 32.8705 36.7933 33.1848L37.2405 34.0792C38.0626 33.6682 38.685 33.0457 39.0961 32.2236L38.2017 31.7764ZM36.7906 33.1861C36.1653 33.5034 35.3578 33.676 34.3449 33.676V34.676C35.4652 34.676 36.4391 34.4859 37.2431 34.0779L36.7906 33.1861ZM47.4515 33.808L47.0894 34.1528L47.4515 33.808ZM47.1315 24.768H47.6315V24.268H47.1315V24.768ZM43.5315 24.496L43.8851 24.1424V24.1424L43.5315 24.496ZM43.5315 22.992L43.8742 23.3561L43.8797 23.3509L43.8851 23.3456L43.5315 22.992ZM53.2115 22.992L52.8579 23.3456L52.8633 23.3509L52.8688 23.3561L53.2115 22.992ZM53.2115 24.496L52.8579 24.1424L52.8579 24.1424L53.2115 24.496ZM49.6115 24.768V24.268H49.1115V24.768H49.6115ZM49.2915 33.808L48.9293 33.4631L48.9207 33.4725L49.2915 33.808ZM48.3795 33.644C48.0665 33.644 47.9057 33.5599 47.8136 33.4632L47.0894 34.1528C47.424 34.5041 47.8818 34.644 48.3795 34.644V33.644ZM47.8136 33.4632C47.7136 33.3582 47.6315 33.1821 47.6315 32.864H46.6315C46.6315 33.3566 46.7628 33.8098 47.0894 34.1528L47.8136 33.4632ZM47.6315 32.864V24.768H46.6315V32.864H47.6315ZM47.1315 24.268H44.2995V25.268H47.1315V24.268ZM44.2995 24.268C44.0613 24.268 43.9476 24.205 43.8851 24.1424L43.1779 24.8496C43.478 25.1497 43.8763 25.268 44.2995 25.268V24.268ZM43.8851 24.1424C43.8195 24.0769 43.7595 23.9661 43.7595 23.744H42.7595C42.7595 24.1619 42.8808 24.5525 43.1779 24.8496L43.8851 24.1424ZM43.7595 23.744C43.7595 23.504 43.8231 23.4042 43.8742 23.3561L43.1888 22.6279C42.8772 22.9212 42.7595 23.3227 42.7595 23.744H43.7595ZM43.8851 23.3456C43.9476 23.283 44.0613 23.22 44.2995 23.22V22.22C43.8763 22.22 43.478 22.3383 43.1779 22.6384L43.8851 23.3456ZM44.2995 23.22H52.4435V22.22H44.2995V23.22ZM52.4435 23.22C52.6817 23.22 52.7954 23.283 52.8579 23.3456L53.5651 22.6384C53.265 22.3383 52.8667 22.22 52.4435 22.22V23.22ZM52.8688 23.3561C52.9199 23.4042 52.9835 23.504 52.9835 23.744H53.9835C53.9835 23.3227 53.8658 22.9212 53.5542 22.6279L52.8688 23.3561ZM52.9835 23.744C52.9835 23.9661 52.9235 24.0769 52.8579 24.1424L53.5651 24.8496C53.8621 24.5525 53.9835 24.1619 53.9835 23.744H52.9835ZM52.8579 24.1424C52.7954 24.205 52.6817 24.268 52.4435 24.268V25.268C52.8667 25.268 53.265 25.1497 53.5651 24.8496L52.8579 24.1424ZM52.4435 24.268H49.6115V25.268H52.4435V24.268ZM49.1115 24.768V32.864H50.1115V24.768H49.1115ZM49.1115 32.864C49.1115 33.1821 49.0294 33.3582 48.9294 33.4632L49.6536 34.1528C49.9802 33.8098 50.1115 33.3566 50.1115 32.864H49.1115ZM48.9207 33.4725C48.8422 33.5594 48.6941 33.644 48.3795 33.644V34.644C48.8755 34.644 49.3355 34.5046 49.6623 34.1435L48.9207 33.4725Z" fill="black"/>
<defs>
<filter id="filter0_i_307_21" x="0.544006" y="0.544006" width="59.1701" height="37.632" filterUnits="userSpaceOnUse" color-interpolation-filters="sRGB">
<feFlood flood-opacity="0" result="BackgroundImageFix"/>
<feBlend mode="normal" in="SourceGraphic" in2="BackgroundImageFix" result="shape"/>
<feColorMatrix in="SourceAlpha" type="matrix" values="0 0 0 0 0 0 0 0 0 0 0 0 0 0 0 0 0 0 127 0" result="hardAlpha"/>
<feOffset dy="4"/>
<feGaussianBlur stdDeviation="2"/>
<feComposite in2="hardAlpha" operator="arithmetic" k2="-1" k3="1"/>
<feColorMatrix type="matrix" values="0 0 0 0 0 0 0 0 0 0 0 0 0 0 0 0 0 0 0.25 0"/>
<feBlend mode="normal" in2="shape" result="effect1_innerShadow_307_21"/>
</filter>
</defs>
</svg>
