<svg width="759" height="120" viewBox="0 0 759 120" fill="none" xmlns="http://www.w3.org/2000/svg">
<path d="M235.373 20.8714C234.707 16.0244 241.531 12.0381 246.672 11.6191C249.112 11.4266 251.655 11.8003 253.971 10.9963C258.988 9.24094 260.987 2.74057 265.88 0.679482C269.541 -0.871998 273.789 0.509612 277.303 2.29891C280.817 4.08821 284.353 6.33049 288.319 6.59096C291.709 6.80613 295.516 5.52644 298.488 7.21382C300.748 8.47086 301.877 11.0755 303.979 12.6044C306.081 14.1332 308.657 14.4163 311.165 14.5522C313.673 14.6881 316.283 14.7221 318.577 15.7753C320.871 16.8285 322.757 19.2519 322.283 21.7321L235.373 20.8714Z" fill="#F5F5F5"/>
<path d="M671.311 118.671C670.645 113.824 677.469 109.838 682.61 109.43C685.051 109.226 687.593 109.6 689.898 108.796C694.914 107.041 696.925 100.552 701.818 98.4794C705.479 96.9279 709.727 98.3095 713.241 100.099C716.755 101.888 720.291 104.142 724.257 104.391C727.647 104.617 731.454 103.338 734.426 105.025C736.686 106.282 737.815 108.875 739.917 110.404C742.019 111.933 744.583 112.228 747.103 112.363C749.623 112.499 752.221 112.522 754.515 113.575C756.809 114.628 758.695 117.052 758.221 119.532L671.311 118.671Z" fill="#F5F5F5"/>
<path d="M653.038 17.0834C652.484 13.1197 658.077 9.85823 662.269 9.51849C664.269 9.34862 666.348 9.65439 668.246 8.99756C672.348 7.55932 673.986 2.20275 677.997 0.549345C680.991 -0.719019 684.437 0.413451 687.341 1.87433C690.245 3.33522 693.115 5.18114 696.38 5.39631C699.205 5.5775 702.267 4.52431 704.741 5.90592C706.583 6.93646 707.543 9.0655 709.26 10.3112C711.025 11.4097 713.071 11.9686 715.147 11.9193C717.21 11.8609 719.265 12.1952 721.203 12.9046C723.079 13.7652 724.593 15.7584 724.243 17.7855L653.038 17.0834Z" fill="#EBEBEB"/>
<path d="M0.303542 86.3959C-0.668147 79.3067 9.34249 73.4745 16.7996 72.8743C20.37 72.5798 24.0873 73.1348 27.4656 71.9457C34.8098 69.3863 37.7362 59.8849 44.8995 56.8612C50.2438 54.5963 56.413 56.6121 61.5991 59.2281C66.7852 61.8441 71.9148 65.1395 77.7562 65.5132C82.7955 65.8417 88.2754 63.9618 92.6819 66.4306C95.9698 68.2651 97.6872 72.0929 100.727 74.3012C103.766 76.5095 107.506 76.9625 111.234 77.1663C114.963 77.3702 118.714 77.4042 122.07 78.933C125.425 80.4618 128.182 84.0178 127.493 87.653L0.303542 86.3959Z" fill="#EBEBEB"/>
</svg>
