<svg width="769" height="77" viewBox="0 0 769 77" fill="none" xmlns="http://www.w3.org/2000/svg">
<path d="M237.678 75.5131C237.678 75.5131 200.731 38.2549 156.565 39.0702C112.398 39.8856 82.4002 75.5131 82.4002 75.5131H28.8443V65.1849L43.7021 64.5621C43.7021 64.5621 101.1 34.3705 134.284 32.3321C167.468 30.2936 191.478 33.5551 224.448 47.0542C246.221 55.7074 268.605 62.7291 291.415 68.0614L311.561 66.2268V76.0227L237.678 75.5131Z" fill="#293241"/>
<path d="M314.713 63.6561C315.396 62.9389 315.817 62.0119 315.909 61.0248C316.002 60.0378 315.759 59.0484 315.221 58.2168C314.682 57.3851 313.88 56.7598 312.943 56.4419C312.006 56.124 310.989 56.1321 310.058 56.4649C310.143 55.9253 310.108 55.3734 309.956 54.8488C309.804 54.3242 309.538 53.8397 309.178 53.4298C308.817 53.0199 308.371 52.6947 307.871 52.4775C307.371 52.2602 306.829 52.1562 306.284 52.1729C306.468 50.7841 306.123 49.377 305.318 48.2316C304.513 47.0863 303.307 46.2869 301.941 45.9927C300.574 45.6985 299.147 45.9311 297.944 46.6441C296.741 47.357 295.85 48.4981 295.449 49.84C293.483 47.8148 290.834 46.5991 288.02 46.4315C285.206 46.2639 282.431 47.1565 280.241 48.934C279.716 47.809 278.928 46.8276 277.944 46.0737C276.959 45.3198 275.808 44.8157 274.587 44.6044C273.366 44.393 272.113 44.4807 270.933 44.86C269.753 45.2392 268.682 45.8987 267.812 46.7823V64.9697L291.878 70.0772H311.561L314.713 63.6561Z" fill="#293241"/>
<path d="M231.984 24.3821H237.068V51.9237H231.984V24.3821Z" fill="#293241"/>
<path d="M195.546 11.5286H200.63V39.0702H195.546V11.5286Z" fill="#293241"/>
<path d="M130.623 5.41331H135.708V32.955H130.623V5.41331Z" fill="#293241"/>
<path d="M98.8624 12.7517H103.947V40.2934H98.8624V12.7517Z" fill="#293241"/>
<path d="M67.113 26.5225H72.1974V54.0641H67.113V26.5225Z" fill="#293241"/>
<path d="M28.6523 37.5755H33.7368V65.117H28.6523V37.5755Z" fill="#293241"/>
<path d="M163.593 5.41331H168.677V32.955H163.593V5.41331Z" fill="#293241"/>
<path d="M268.976 53.747C268.976 53.747 206.652 18.2441 160.847 19.1614C115.042 20.0787 41.0808 54.0641 41.0808 54.0641L30.494 56.4196L28.8669 65.1849C28.8669 65.1849 60.0061 64.5734 60.8196 63.9619C61.6332 63.3503 119.437 40.2933 119.437 40.2933C119.437 40.2933 143.865 32.9549 159.943 35.1972C159.943 35.1972 216.324 52.7391 230.368 60.9042C244.412 69.0693 264.162 68.0388 264.162 68.0388L271.077 62.1273L268.976 53.747Z" fill="#293241"/>
<path d="M32.0419 52.7958C32.5955 52.5806 87.0891 30.5427 104.659 24.7332L105.133 24.5747C119.821 19.6937 144.52 11.5399 179.705 16.4322C216.03 21.4717 272.953 49.0133 273.484 49.2738L275.461 45.1969C273.1 44.0644 217.318 17.0551 180.292 11.9137C144.012 6.87417 118.737 15.2431 103.63 20.2486L103.156 20.4072C85.4508 26.262 30.8442 48.3565 30.2566 48.5717L32.0419 52.7958Z" fill="#293241"/>
<path d="M53.5997 71.5834L54.1082 71.2776L55.577 70.315C56.865 69.4656 58.7632 68.2199 61.2263 66.6684C66.1752 63.5428 73.4289 59.1602 82.6939 54.2113C87.3037 51.7312 92.3995 49.1152 97.9697 46.5105C103.54 43.9059 109.63 41.4258 116.127 39.0815C122.925 36.6207 129.887 34.6416 136.962 33.1587C144.55 31.5573 152.291 30.7978 160.045 30.8938C176.01 31.1429 190.936 35.0839 203.793 40.0554C215.199 44.5558 226.167 50.098 236.56 56.6122C245.44 62.1386 252.378 66.9856 257.259 70.2018L262.908 73.9729L264.377 74.9355C264.541 75.0461 264.711 75.1482 264.885 75.2412L264.4 74.8788L262.976 73.8709L257.44 70.0206C252.615 66.6911 245.7 61.7875 236.82 56.2158C226.442 49.631 215.472 44.0348 204.053 39.5006C191.161 34.495 176.179 30.5088 160.124 30.2596C152.328 30.1513 144.545 30.9109 136.916 32.5245C129.781 34.0167 122.762 36.0187 115.912 38.5153C109.404 40.8708 103.314 43.4076 97.7324 46.0122C92.1509 48.6169 87.0665 51.2895 82.4679 53.7923C73.2708 58.8091 66.0396 63.2597 61.1247 66.442C58.6616 68.0274 56.7747 69.3071 55.4753 70.1791L54.0404 71.187C53.7692 71.4588 53.5997 71.5834 53.5997 71.5834Z" fill="#263238"/>
<path d="M267.879 69.8507C268.143 67.0957 268.204 64.325 268.06 61.5611C268.122 58.7913 267.982 56.0208 267.642 53.2714C267.393 56.0273 267.336 58.7973 267.472 61.5611C267.418 64.3304 267.554 67.1001 267.879 69.8507V69.8507Z" fill="#263238"/>
<path d="M232.085 52.4334C232.243 52.4334 232.379 46.1708 232.379 38.4474C232.379 30.7239 232.243 24.4613 232.085 24.4613C231.927 24.4613 231.791 30.7239 231.791 38.4474C231.791 46.1708 231.915 52.4334 232.085 52.4334Z" fill="#263238"/>
<path d="M237.068 54.4718C237.226 54.4718 237.362 48.13 237.362 40.2933C237.362 32.4567 237.226 26.1261 237.068 26.1261C236.909 26.1261 236.774 32.468 236.774 40.2933C236.774 48.1187 236.909 54.4718 237.068 54.4718Z" fill="#263238"/>
<path d="M238.141 46.3293C238.47 46.6183 238.83 46.8691 239.215 47.0768L242.254 48.934C244.842 50.4742 248.423 52.5692 252.423 54.8455C256.423 57.1218 260.016 59.1715 262.648 60.6211L265.767 62.2971C266.136 62.5307 266.535 62.7135 266.953 62.8407C266.625 62.5517 266.265 62.301 265.88 62.0933L262.795 60.2587C260.208 58.7185 256.626 56.6235 252.626 54.3359C248.627 52.0483 245.022 50.0098 242.39 48.5603L239.26 46.8729C238.908 46.6522 238.533 46.47 238.141 46.3293V46.3293Z" fill="#263238"/>
<path d="M201.782 31.596C202.16 31.8001 202.562 31.9525 202.98 32.0489L206.268 33.1021C209.047 34.0081 212.855 35.3671 216.979 37.0092C221.103 38.6512 224.753 40.4065 227.363 41.7202L230.458 43.2717C230.813 43.4904 231.192 43.6653 231.588 43.7926C231.265 43.5169 230.913 43.2777 230.537 43.0792C229.837 42.6488 228.809 42.0487 227.521 41.3578C220.776 37.7228 213.663 34.8222 206.302 32.7058C204.89 32.2981 203.748 32.0036 202.912 31.8224C202.544 31.7094 202.166 31.6335 201.782 31.596Z" fill="#263238"/>
<path d="M200.652 36.6467C200.811 36.6467 200.89 31.1429 200.822 24.3595C200.754 17.576 200.562 12.0835 200.392 12.0835C200.222 12.0835 200.154 17.5873 200.234 24.3708C200.313 31.1543 200.516 36.6467 200.652 36.6467Z" fill="#263238"/>
<path d="M195.443 36.6467C195.602 36.6467 195.738 30.9844 195.738 23.9971C195.738 17.0098 195.602 11.3361 195.443 11.3361C195.285 11.3361 195.149 16.9985 195.149 23.9971C195.149 30.9957 195.274 36.6467 195.443 36.6467Z" fill="#263238"/>
<path d="M168.767 24.1104C168.767 24.201 170.304 24.2236 172.756 24.4501C175.942 24.7691 179.107 25.272 182.236 25.9563C185.908 26.7603 189.184 27.6776 191.546 28.4024C192.799 28.8557 194.078 29.2339 195.376 29.5348C195.08 29.3316 194.756 29.1714 194.416 29.0592C193.772 28.7874 192.845 28.425 191.67 28.006C188.623 26.9399 185.514 26.0625 182.36 25.3787C179.206 24.6808 176.002 24.234 172.778 24.0424C171.547 23.9745 170.519 23.9632 169.852 24.0424C169.489 24.011 169.124 24.0339 168.767 24.1104V24.1104Z" fill="#263238"/>
<path d="M168.767 29.2744C169.073 25.3527 169.175 21.4177 169.073 17.4854C169.175 13.5531 169.073 9.61811 168.767 5.6964C168.609 5.6964 168.473 10.9737 168.473 17.4854C168.473 23.9971 168.609 29.2744 168.767 29.2744Z" fill="#263238"/>
<path d="M163.649 30.9844C163.819 30.9844 163.954 25.3221 163.954 18.4027C163.954 11.4833 163.819 5.82103 163.649 5.82103C163.479 5.82103 163.355 11.4833 163.355 18.4027C163.355 25.3221 163.491 30.9844 163.649 30.9844Z" fill="#263238"/>
<path d="M135.708 27.0888C135.708 27.1794 137.255 26.783 139.752 26.3187C142.249 25.8544 145.741 25.3335 149.605 24.9711C153.469 24.6087 156.983 24.4162 159.537 24.2916C160.912 24.28 162.285 24.1855 163.649 24.0085C163.28 23.9159 162.899 23.8815 162.519 23.9065C161.808 23.9065 160.779 23.9065 159.503 23.9065C156.938 23.9065 153.413 24.0537 149.526 24.4161C146.204 24.7072 142.905 25.2179 139.651 25.945C138.397 26.2281 137.391 26.4999 136.724 26.7264C136.372 26.806 136.031 26.9277 135.708 27.0888V27.0888Z" fill="#263238"/>
<path d="M135.707 32.9548C135.865 32.9548 136.001 26.9075 136.001 19.4559C136.001 12.0043 135.865 5.95689 135.707 5.95689C135.549 5.95689 135.413 12.0043 135.413 19.4559C135.413 26.9075 135.537 32.9548 135.707 32.9548Z" fill="#263238"/>
<path d="M130.6 32.9548C130.77 32.9548 130.894 26.9075 130.894 19.4559C130.894 12.0043 130.77 5.95689 130.6 5.95689C130.43 5.95689 130.306 12.0043 130.306 19.4559C130.306 26.9075 130.453 32.9548 130.6 32.9548Z" fill="#263238"/>
<path d="M104.059 43.7587C104.229 43.7587 104.354 36.9638 104.354 28.493C104.354 20.0222 104.229 13.216 104.059 13.216C103.89 13.216 103.765 20.0108 103.765 28.493C103.765 36.9752 103.901 43.7587 104.059 43.7587Z" fill="#263238"/>
<path d="M98.7377 46.0349C98.8961 46.0349 99.0319 38.7645 99.0319 29.7953C99.0319 20.8262 98.8961 13.5557 98.7377 13.5557C98.5793 13.5557 98.4435 20.8262 98.4435 29.7953C98.4435 38.7645 98.5793 46.0349 98.7377 46.0349Z" fill="#263238"/>
<path d="M104.455 35.6503C105.765 35.3663 107.053 34.9878 108.308 34.5178C110.67 33.7477 113.957 32.6945 117.573 31.6413C121.189 30.5881 124.533 29.7161 126.951 29.0932C128.263 28.8187 129.558 28.4632 130.826 28.0287C130.446 28.0046 130.065 28.0429 129.697 28.142C129.007 28.2439 128.013 28.4364 126.793 28.6969C124.352 29.2065 121.008 30.0105 117.358 31.0751C113.709 32.1396 110.444 33.2494 108.116 34.1328C106.986 34.5631 106.014 34.9368 105.37 35.2652C105.052 35.3584 104.745 35.4875 104.455 35.6503V35.6503Z" fill="#263238"/>
<path d="M74.5477 48.164C74.6042 48.3225 80.0049 46.1708 86.592 43.3736C93.1792 40.5764 98.4896 38.1755 98.4218 38.0283C98.354 37.8811 92.9645 40.0215 86.3661 42.83C79.7676 45.6386 74.4799 48.0167 74.5477 48.164Z" fill="#263238"/>
<path d="M71.9938 59.432C72.1521 59.432 72.2879 52.1955 72.2879 43.249C72.2879 34.3025 72.1521 27.0661 71.9938 27.0661C71.8354 27.0661 71.6996 34.3139 71.6996 43.249C71.6996 52.1842 71.8467 59.432 71.9938 59.432Z" fill="#263238"/>
<path d="M67.1239 62.501C67.2822 62.501 67.418 54.7436 67.418 45.1856C67.418 35.6276 67.2822 27.8588 67.1239 27.8588C66.9656 27.8588 66.8298 35.6163 66.8298 45.1856C66.8298 54.7549 66.9543 62.501 67.1239 62.501Z" fill="#263238"/>
<path d="M43.0582 64.4942C44.2786 64.1294 45.4625 63.6517 46.5947 63.0673C48.7414 62.1047 51.6678 60.6778 54.8314 58.9677C57.995 57.2577 60.7858 55.5703 62.7405 54.3133C63.847 53.6803 64.8945 52.9488 65.8702 52.1276C64.6955 52.6476 63.5623 53.2571 62.4806 53.9509C60.4469 55.0833 57.6335 56.7368 54.4811 58.4808C51.3288 60.2248 48.4476 61.663 46.3461 62.7275C45.2122 63.2426 44.1138 63.8328 43.0582 64.4942V64.4942Z" fill="#263238"/>
<path d="M0.665373 75.513C0.665373 75.6716 172.677 75.8074 384.821 75.8074C596.966 75.8074 768.977 75.6716 768.977 75.513C768.977 75.3545 597 75.2186 384.821 75.2186C172.643 75.2186 0.665373 75.3432 0.665373 75.513Z" fill="#263238"/>
<path d="M389.217 0.690918C393.633 3.68969 397.084 7.91174 399.148 12.8423C401.197 17.7445 402.768 22.8342 403.837 28.04L403.114 54.0868C398.436 44.3249 394.968 33.0229 394.674 22.1965H398.335C397.147 21.8425 396.049 21.2379 395.113 20.4234C394.178 19.6089 393.427 18.6033 392.911 17.4741C391.89 15.2142 391.198 12.8192 390.855 10.3622L395.239 11.3927C391.929 8.73784 389.771 4.90336 389.217 0.690918V0.690918Z" fill="#293241"/>
<g opacity="0.3">
<path opacity="0.3" d="M389.217 0.690918C393.633 3.68969 397.084 7.91174 399.148 12.8423C401.197 17.7445 402.768 22.8342 403.837 28.04L403.114 54.0868C398.436 44.3249 394.968 33.0229 394.674 22.1965H398.335C397.147 21.8425 396.049 21.2379 395.113 20.4234C394.178 19.6089 393.427 18.6033 392.911 17.4741C391.89 15.2142 391.198 12.8192 390.855 10.3622L395.239 11.3927C391.929 8.73784 389.771 4.90336 389.217 0.690918V0.690918Z" fill="black"/>
</g>
<path d="M403.419 60.2361C403.419 60.2361 416.458 47.0202 417.441 33.4419L412.65 33.0455C412.65 33.0455 418.141 30.0558 417.881 28.108C417.622 26.1601 418.096 18.8784 418.096 18.8784L413.633 19.6145C413.633 19.6145 417.023 18.2442 417.678 15.6735C418.333 13.1028 417.938 0.95137 417.938 0.95137C417.938 0.95137 412.142 6.12675 410.029 11.7438C407.916 17.3608 403.046 23.714 402.843 41.3578C402.639 59.0017 403.419 60.2361 403.419 60.2361Z" fill="#293241"/>
<path d="M397.25 61.0741C397.25 61.0741 385.127 51.4368 383.194 40.2707L387.126 39.5346C387.126 39.5346 382.336 37.5075 382.381 35.8767C382.426 34.246 381.443 28.2439 381.443 28.2439L385.206 28.4817C385.206 28.4817 382.257 27.621 381.522 25.5486C380.788 23.4762 380.099 13.3519 380.099 13.3519C380.099 13.3519 385.33 17.157 387.544 21.6416C389.759 26.1262 394.324 30.9845 395.939 45.5933C397.555 60.2021 397.25 61.0741 397.25 61.0741Z" fill="#293241"/>
<path d="M413.678 13.0462C413.678 13.0462 413.678 13.0462 413.622 13.1934L413.486 13.6237L412.967 15.2771C412.741 15.9906 412.481 16.8739 412.187 17.9044C411.893 18.935 411.543 20.1014 411.193 21.4038C410.469 23.9858 409.679 27.0661 408.831 30.5541C407.984 34.0421 407.148 37.8359 406.334 41.8788C405.521 45.9217 404.854 49.806 404.278 53.2827C403.702 56.7594 403.261 59.9643 402.933 62.6369C402.752 63.9732 402.617 65.1849 402.504 66.2494C402.391 67.314 402.278 68.2199 402.21 68.9787C402.142 69.7375 402.086 70.2924 402.041 70.7001C402.041 70.8926 402.041 71.0398 402.041 71.1531C402.041 71.2663 402.041 71.3003 402.041 71.3003C402.044 71.2512 402.044 71.2021 402.041 71.1531C402.041 71.0398 402.041 70.8926 402.041 70.7001C402.041 70.3037 402.154 69.7261 402.244 68.9787C402.334 68.2313 402.436 67.3253 402.572 66.2608C402.707 65.1963 402.843 63.9959 403.024 62.6595C403.374 59.9869 403.848 56.8273 404.413 53.3054C404.978 49.7834 405.69 45.9557 406.492 41.9241C407.295 37.8925 408.153 34.0874 408.967 30.5994C409.78 27.1114 410.582 24.0311 411.227 21.4377C411.577 20.1354 411.904 18.9689 412.198 17.9384C412.492 16.9078 412.729 16.0245 412.944 15.2998L413.52 13.6011C413.577 13.4199 413.611 13.2726 413.644 13.1594L413.678 13.0462Z" fill="#263238"/>
<path d="M404.346 69.092C404.346 69.092 416.209 57.6653 420.164 50.4968L417.712 49.1945C418.634 49.3765 419.583 49.3584 420.497 49.1416C421.411 48.9247 422.269 48.5142 423.011 47.9375C424.486 46.7782 425.787 45.4128 426.875 43.8832L423.576 43.0339C426.726 42.4171 429.515 40.6032 431.361 37.9717C427.344 38.4297 423.547 40.0511 420.435 42.6375C417.91 44.6777 415.583 46.9528 413.486 49.4323C412.43 50.626 411.492 51.9192 410.684 53.294C408.549 56.9292 404.707 64.5621 404.346 69.092Z" fill="#293241"/>
<path d="M384.686 20.9508C384.686 20.9508 384.686 20.9508 384.686 21.0867L384.821 21.449L385.375 22.876C385.612 23.4875 385.906 24.2463 386.234 25.1409C386.561 26.0356 386.957 27.0095 387.364 28.1306C388.177 30.3389 389.115 33.0002 390.12 35.9673C391.126 38.9344 392.143 42.2072 393.16 45.6725C394.177 49.1379 395.069 52.4673 395.838 55.491C396.606 58.5147 397.25 61.2666 397.747 63.5768C398.018 64.7093 398.222 65.7852 398.425 66.7025C398.628 67.6198 398.775 68.4125 398.911 69.058C399.046 69.7035 399.148 70.1905 399.216 70.5529C399.216 70.7114 399.284 70.8473 399.295 70.9379C399.306 71.0285 399.295 71.0738 399.295 71.0738C399.293 71.0285 399.293 70.9832 399.295 70.9379L399.239 70.5415C399.171 70.1867 399.08 69.6884 398.967 69.0467C398.843 68.3898 398.696 67.5971 398.504 66.6798C398.312 65.7625 398.12 64.698 397.871 63.5429C397.374 61.2779 396.742 58.4808 395.996 55.4457C395.25 52.4107 394.346 49.0812 393.341 45.6159C392.335 42.1505 391.273 38.8211 390.267 35.8993C389.262 32.9776 388.313 30.2936 387.465 28.074C387.059 26.9415 386.663 25.9676 386.335 25.0956C386.008 24.2236 385.691 23.4648 385.432 22.8307L384.855 21.4264L384.697 21.064L384.686 20.9508Z" fill="#263238"/>
<path d="M591.023 75.3432L580.967 63.339L565.996 52.1389L536.857 48.7188L526.869 56.9972V75.3432H591.023Z" fill="#E0E0E0"/>
<path d="M591.023 75.3545H589.712H586.051L572.493 75.2752L526.846 75.1167L527.129 75.4111C527.129 70.4283 527.129 65.2755 527.129 59.9869V57.0651L527.016 57.2916L537.015 49.0019L536.789 49.0699L565.928 52.4673H565.815L580.831 63.6108L588.289 72.3421C589.147 73.3387 589.825 74.1201 590.3 74.6864L590.831 75.2979L591.023 75.5131L590.876 75.3092L590.39 74.7203C589.938 74.1541 589.26 73.3727 588.469 72.3648L581.103 63.3843L566.166 52.1275H566.098L536.97 48.6622H536.857L536.755 48.7415C533.512 51.4141 530.179 54.1886 526.756 57.0198L526.654 57.0991V75.8754H526.948L572.877 75.7169L586.311 75.6376H589.893H591.023V75.3545Z" fill="#263238"/>
<path d="M565.996 52.1389L539.343 63.7355L527.66 56.3404L536.857 48.7188L565.996 52.1389Z" fill="#F5F5F5"/>
<path d="M540.744 62.1499C540.597 62.6029 538.484 70.6887 538.484 70.6887L538.111 62.1499H540.744Z" fill="#F5F5F5"/>
<path d="M537.58 73.8936C537.617 73.8302 537.643 73.7614 537.659 73.6898L537.851 73.1009L538.518 70.836C539.083 68.9221 539.874 66.2381 540.777 63.1239L540.721 63.1805L546.156 60.825L557.24 55.9667L560.629 54.4718L561.533 54.0641L561.838 53.9056L561.511 54.0188L560.595 54.4039L557.206 55.8308L546.11 60.6324L540.676 62.9993C539.783 66.1249 539.015 68.8088 538.473 70.734C538.213 71.674 537.998 72.4214 537.851 72.999C537.783 73.2481 537.738 73.4406 537.693 73.5878C537.648 73.7351 537.58 73.8936 537.58 73.8936Z" fill="#263238"/>
<path d="M459.178 59.9529C458.973 57.6335 459.448 55.3045 460.544 53.2512C461.639 51.1979 463.309 49.5095 465.347 48.3929C467.386 47.2763 469.705 46.7799 472.021 46.9645C474.337 47.1491 476.549 48.0068 478.386 49.4324C479.392 46.9461 481.088 44.8015 483.274 43.2535C485.46 41.7055 488.044 40.8192 490.718 40.6999C493.392 40.5806 496.043 41.2334 498.358 42.5807C500.673 43.928 502.552 45.913 503.774 48.2999C507.966 43.6342 515.559 43.1358 521.05 46.1482C526.541 49.1606 530.089 55.0267 531.558 61.1081C533.599 60.6946 535.708 60.7606 537.719 61.301C539.73 61.8414 541.589 62.8414 543.15 64.2227C544.711 65.604 545.931 67.3289 546.715 69.2622C547.5 71.1955 547.826 73.2847 547.67 75.3658H459.099L459.178 59.9529Z" fill="#293241"/>
<path d="M423.802 71.289L436.287 60.7796H461.122L470.872 75.5697L443.801 75.3432L423.802 71.289Z" fill="#E0E0E0"/>
<path d="M423.802 71.289C423.802 71.289 423.892 71.2889 424.118 71.3795L425.147 71.606L429.112 72.4554L443.801 75.581L470.918 75.8642H471.471L471.166 75.3998L468.036 70.6548L461.404 60.6097L461.314 60.4852H461.167L436.31 60.5531H436.231H436.174L427.056 68.4012L424.627 70.5075L424.005 71.0511C423.94 71.1023 423.88 71.1591 423.825 71.221L424.073 71.0285L424.751 70.4849C425.361 69.9753 426.22 69.2845 427.293 68.4125L436.445 60.8702L436.31 60.9268L461.167 60.9948L460.929 60.8702L467.551 70.9266L470.68 75.6716L470.918 75.2186L443.801 75.0488L429.293 72.2629L425.226 71.4928L424.096 71.289H423.802Z" fill="#263238"/>
<path d="M321.786 75.3432L331.83 63.339L346.813 52.1389L375.941 48.7188L385.94 56.9972V75.3432H321.786Z" fill="#E0E0E0"/>
<path d="M321.786 75.3545H322.995H326.577L339.999 75.4338L385.94 75.5923H386.222V75.3092C386.222 70.3263 386.222 65.1736 386.222 59.885V56.8613L386.109 56.782C382.72 53.9508 379.33 51.1763 376.11 48.5037L376.02 48.4244H375.895L346.767 51.8897H346.7L331.717 63.2031L324.351 72.1836L322.43 74.5391L321.955 75.128C321.842 75.2639 321.797 75.3319 321.809 75.3319L322.001 75.1167L322.52 74.5051L324.532 72.1609L331.989 63.4296L347.005 52.2861H346.892L376.031 48.8887L375.816 48.8208L385.804 57.1104L385.703 56.8839V75.2299L385.996 74.9355L340.338 75.094L326.78 75.1733H323.119H321.82L321.786 75.3545Z" fill="#263238"/>
<path d="M346.812 52.1389L373.466 63.7355L385.138 56.3404L375.941 48.7188L346.812 52.1389Z" fill="#F5F5F5"/>
<path d="M372.099 62.1499C372.246 62.6029 374.359 70.6887 374.359 70.6887L374.732 62.1499H372.099Z" fill="#F5F5F5"/>
<path d="M375.218 73.8936C375.181 73.8302 375.154 73.7614 375.138 73.6898L374.958 73.1009C374.788 72.5686 374.562 71.8212 374.28 70.836L372.02 63.1239V63.1805L366.585 60.825L355.513 55.9667L352.123 54.4718L351.208 54.0641L350.903 53.9056L351.23 54.0188L352.146 54.4039L355.535 55.8308L366.744 60.689L372.178 63.0559C373.071 66.1815 373.839 68.8655 374.381 70.7907C374.653 71.7306 374.856 72.478 375.003 73.0556C375.071 73.3047 375.116 73.4972 375.161 73.6445C375.206 73.7917 375.218 73.8936 375.218 73.8936Z" fill="#263238"/>
<path d="M385.94 61.2892L403.091 60.8249L423.621 67.5404L433.767 75.3432H385.94V61.2892Z" fill="#E0E0E0"/>
<path d="M385.951 61.2892C385.931 61.5947 385.931 61.9012 385.951 62.2066C385.951 62.8747 385.951 63.792 385.951 64.9585C385.951 67.4272 385.895 70.9492 385.85 75.3545V75.547H385.951L428.626 75.6489H434.649L433.959 75.128L423.791 67.3366L403.238 60.689H403.159L390.55 61.1421L387.16 61.2892H386.302H386.019H387.251H390.64L403.125 61.0628H403.058L423.576 67.8576H423.486L433.654 75.6716L433.824 75.1507H428.672L385.996 75.2526L386.189 75.4564C386.189 71.0964 386.109 67.6198 386.087 65.1736C386.087 64.0412 386.087 63.0672 386.03 62.3877V61.6516C385.951 61.3912 385.951 61.3006 385.951 61.2892Z" fill="#263238"/>
<path d="M399.239 69.6129C399.239 69.7714 404.38 69.3977 410.684 68.7862C414.515 68.5216 418.328 68.0491 422.107 67.3706C422.107 67.2121 416.978 67.5858 410.673 68.1973C406.84 68.4701 403.023 68.9426 399.239 69.6129V69.6129Z" fill="#263238"/>
<path d="M393.499 74.29C394.555 73.87 395.53 73.2683 396.38 72.512C397.353 71.9159 398.21 71.1486 398.911 70.2471C397.857 70.6722 396.883 71.2734 396.03 72.0251C395.065 72.6327 394.21 73.3983 393.499 74.29V74.29Z" fill="#263238"/>
<path d="M387.94 62.5349C389.531 63.8275 391.241 64.9651 393.047 65.9324C394.758 67.0834 396.574 68.0693 398.47 68.8768C395.17 66.4206 391.644 64.2856 387.94 62.501V62.5349Z" fill="#263238"/>
</svg>
