<svg width="170" height="422" viewBox="0 0 170 422" fill="none" xmlns="http://www.w3.org/2000/svg">
<g filter="url(#filter0_d_22_1757)">
<path d="M4.84399 409.63H68.4973V121.666L4.84399 147.489V409.63Z" fill="#F0F0F0"/>
<path d="M47.6569 169.385H65.0544V152.012H47.6569V169.385Z" fill="#FAFAFA"/>
<path d="M27.9795 169.385H45.3771V152.012H27.9795L27.9795 169.385Z" fill="#F0F0F0"/>
<path d="M8.27139 169.385H25.6689L25.6689 152.012H8.27139L8.27139 169.385Z" fill="#FAFAFA"/>
<path d="M47.6569 188.79H65.0544V171.417H47.6569V188.79Z" fill="#FAFAFA"/>
<path d="M27.9795 188.79H45.3771V171.417H27.9795L27.9795 188.79Z" fill="#FAFAFA"/>
<path d="M8.27139 188.79H25.6689L25.6689 171.417H8.27139L8.27139 188.79Z" fill="#FAFAFA"/>
<path d="M47.6569 208.18H65.0544V190.807H47.6569V208.18Z" fill="#FAFAFA"/>
<path d="M27.9795 208.18H45.3771V190.807H27.9795L27.9795 208.18Z" fill="#F0F0F0"/>
<path d="M8.27139 208.18H25.6689L25.6689 190.807H8.27139L8.27139 208.18Z" fill="#FAFAFA"/>
<path d="M47.6569 227.601H65.0544V210.228H47.6569V227.601Z" fill="#F0F0F0"/>
<path d="M27.9795 227.601H45.3771V210.228H27.9795L27.9795 227.601Z" fill="#FAFAFA"/>
<path d="M8.27139 227.601H25.6689L25.6689 210.228H8.27139L8.27139 227.601Z" fill="#FAFAFA"/>
<path d="M47.6569 246.991H65.0544V229.618H47.6569V246.991Z" fill="#FAFAFA"/>
<path d="M27.9795 246.991H45.3771V229.618H27.9795L27.9795 246.991Z" fill="#FAFAFA"/>
<path d="M8.27139 246.991H25.6689L25.6689 229.618H8.27139L8.27139 246.991Z" fill="#F0F0F0"/>
<path d="M47.6569 266.397H65.0544V249.024H47.6569V266.397Z" fill="#FAFAFA"/>
<path d="M27.9795 266.397H45.3771V249.024H27.9795L27.9795 266.397Z" fill="#F0F0F0"/>
<path d="M8.27139 266.397H25.6689L25.6689 249.024H8.27139L8.27139 266.397Z" fill="#FAFAFA"/>
<path d="M47.6569 285.787H65.0544V268.414H47.6569V285.787Z" fill="#F0F0F0"/>
<path d="M27.9795 285.787H45.3771V268.414H27.9795L27.9795 285.787Z" fill="#F0F0F0"/>
<path d="M8.27139 285.787H25.6689L25.6689 268.414H8.27139L8.27139 285.787Z" fill="#FAFAFA"/>
<path d="M47.6569 305.192H65.0544V287.819H47.6569V305.192Z" fill="#FAFAFA"/>
<path d="M27.9795 305.192H45.3771V287.819H27.9795L27.9795 305.192Z" fill="#F0F0F0"/>
<path d="M8.27139 305.192H25.6689L25.6689 287.819H8.27139L8.27139 305.192Z" fill="#FAFAFA"/>
<path d="M47.6569 324.598H65.0544V307.225H47.6569V324.598Z" fill="#FAFAFA"/>
<path d="M27.9795 324.598H45.3771V307.225H27.9795L27.9795 324.598Z" fill="#FAFAFA"/>
<path d="M8.27139 324.598H25.6689L25.6689 307.225H8.27139L8.27139 324.598Z" fill="#FAFAFA"/>
<path d="M47.6569 343.988H65.0544V326.615H47.6569V343.988Z" fill="#F0F0F0"/>
<path d="M27.9795 343.988H45.3771V326.615H27.9795L27.9795 343.988Z" fill="#FAFAFA"/>
<path d="M8.27139 343.988H25.6689L25.6689 326.615H8.27139L8.27139 343.988Z" fill="#F0F0F0"/>
<path d="M47.6569 363.393H65.0544V346.02H47.6569V363.393Z" fill="#FAFAFA"/>
<path d="M27.9795 363.393H45.3771V346.02H27.9795L27.9795 363.393Z" fill="#F0F0F0"/>
<path d="M8.27139 363.393H25.6689L25.6689 346.02H8.27139L8.27139 363.393Z" fill="#FAFAFA"/>
<path d="M47.6569 382.799H65.0544V365.426H47.6569V382.799Z" fill="#F0F0F0"/>
<path d="M27.9795 382.799H45.3771V365.426H27.9795L27.9795 382.799Z" fill="#FAFAFA"/>
<path d="M8.27139 382.799H25.6689L25.6689 365.426H8.27139L8.27139 382.799Z" fill="#FAFAFA"/>
<path d="M136.986 26.7624H132.854L131.737 43.6314H136.986V26.7624Z" fill="#FAFAFA"/>
<path d="M136.986 26.7624H141.132L142.249 43.6314H136.986V26.7624Z" fill="#F0F0F0"/>
<path d="M136.986 315.781H114.263L108.143 277.383H136.986V315.781Z" fill="#F5F5F5"/>
<path d="M136.986 315.781H159.724L165.844 277.383H136.986V315.781Z" fill="#EBEBEB"/>
<path d="M136.986 312.664H159.724L165.844 413.282H136.986V312.664Z" fill="#FAFAFA"/>
<path d="M136.986 312.664H114.263L108.143 413.282H136.986V312.664Z" fill="#F0F0F0"/>
<path d="M136.986 282.257H114.263L108.143 243.859H136.986V282.257Z" fill="#FAFAFA"/>
<path d="M136.986 282.257H159.724L165.844 243.859H136.986V282.257Z" fill="#F0F0F0"/>
<path d="M136.986 246.288H114.263L108.143 207.89H136.986V246.288Z" fill="#F5F5F5"/>
<path d="M136.986 246.288H159.724L165.844 207.89H136.986V246.288Z" fill="#EBEBEB"/>
<path d="M136.986 212.749H114.263L108.143 174.335H136.986V212.749Z" fill="#FAFAFA"/>
<path d="M136.986 212.749H159.724L165.844 174.335H136.986V212.749Z" fill="#F0F0F0"/>
<path d="M136.986 176.811H114.263L108.143 138.397H136.986V176.811Z" fill="#F5F5F5"/>
<path d="M136.986 176.811H159.724L165.844 138.397H136.986V176.811Z" fill="#EBEBEB"/>
<path d="M136.986 143.226H114.263L108.143 104.827H136.986V143.226Z" fill="#FAFAFA"/>
<path d="M136.986 143.226H159.724L165.844 104.827H136.986V143.226Z" fill="#F0F0F0"/>
<path d="M136.986 111.688H125.617L122.557 92.4659H136.986V111.688Z" fill="#FAFAFA"/>
<path d="M136.986 111.688H148.37L151.43 92.4659H136.986V111.688Z" fill="#F0F0F0"/>
<path d="M136.986 93.3827H128.386L126.076 52.0811H136.986V93.3827Z" fill="#F5F5F5"/>
<path d="M136.986 93.3827H145.6L147.911 52.0811H136.986V93.3827Z" fill="#EBEBEB"/>
<path d="M136.986 57.3069H128.386L126.076 41.5992H136.986V57.3069Z" fill="#FAFAFA"/>
<path d="M136.986 57.3069H145.6L147.911 41.5992H136.986V57.3069Z" fill="#F0F0F0"/>
<path d="M137.567 0.282318H136.404V30.2462H137.567V0.282318Z" fill="#F0F0F0"/>
</g>
<defs>
<filter id="filter0_d_22_1757" x="0.843994" y="0.282318" width="169" height="421" filterUnits="userSpaceOnUse" color-interpolation-filters="sRGB">
<feFlood flood-opacity="0" result="BackgroundImageFix"/>
<feColorMatrix in="SourceAlpha" type="matrix" values="0 0 0 0 0 0 0 0 0 0 0 0 0 0 0 0 0 0 127 0" result="hardAlpha"/>
<feOffset dy="4"/>
<feGaussianBlur stdDeviation="2"/>
<feComposite in2="hardAlpha" operator="out"/>
<feColorMatrix type="matrix" values="0 0 0 0 0 0 0 0 0 0 0 0 0 0 0 0 0 0 0.25 0"/>
<feBlend mode="normal" in2="BackgroundImageFix" result="effect1_dropShadow_22_1757"/>
<feBlend mode="normal" in="SourceGraphic" in2="effect1_dropShadow_22_1757" result="shape"/>
</filter>
</defs>
</svg>
