<svg width="134" height="294" viewBox="0 0 134 294" fill="none" xmlns="http://www.w3.org/2000/svg">
<path d="M72.0116 254.846L80.0887 271.435C80.0887 271.435 65.4041 283.978 66.6015 287.187L99.8787 273.872L88.34 247.514L72.0116 254.846Z" fill="#FF725E"/>
<g opacity="0.6">
<path opacity="0.6" d="M89.5917 265.528C89.9451 265.485 90.302 265.572 90.5963 265.772C90.8906 265.972 91.1022 266.272 91.1919 266.616C91.2446 266.969 91.1617 267.329 90.9598 267.624C90.7579 267.919 90.4519 268.126 90.1034 268.204C89.725 268.252 89.3426 268.156 89.0307 267.937C88.7188 267.718 88.4997 267.39 88.4161 267.019C88.3617 266.301 89.0257 265.43 89.7333 265.485" fill="white"/>
</g>
<g opacity="0.6">
<path opacity="0.6" d="M99.8787 273.872L98.7139 271.218L67.0261 285.153C66.7594 285.464 66.5749 285.837 66.4894 286.238C66.4038 286.639 66.4199 287.055 66.5362 287.448L99.8787 273.872Z" fill="white"/>
</g>
<path d="M79.4899 271.5C79.5661 271.653 80.3934 271.381 81.4058 271.5C82.4181 271.62 83.1366 272.153 83.2563 272.023C83.3761 271.892 82.7338 271.076 81.4929 270.935C80.2519 270.793 79.3811 271.37 79.4899 271.5Z" fill="#293241"/>
<path d="M76.7142 274.438C76.7142 274.612 77.5633 274.579 78.4014 275.014C79.2396 275.449 79.7186 276.102 79.871 276.015C80.0234 275.928 79.7295 274.992 78.6736 274.47C77.6177 273.948 76.6162 274.285 76.7142 274.438Z" fill="#293241"/>
<path d="M76.5509 279.409C76.7142 279.409 76.5509 278.484 75.778 277.788C75.0051 277.092 74.0798 277.081 74.069 277.244C74.0581 277.407 74.733 277.668 75.3861 278.256C76.0392 278.843 76.3876 279.463 76.5509 279.409Z" fill="#293241"/>
<path d="M78.064 267.519C78.1946 267.628 78.826 267.084 79.7621 266.747C80.6983 266.41 81.5256 266.377 81.5474 266.203C81.5691 266.029 80.633 265.768 79.5444 266.203C78.4559 266.638 77.9334 267.421 78.064 267.519Z" fill="#293241"/>
<path d="M66.2205 264.354L68.0057 282.716C68.0057 282.716 49.8703 289.362 49.8703 292.789L85.6838 291.951L84.0728 263.222L66.2205 264.354Z" fill="#FF725E"/>
<g opacity="0.6">
<path opacity="0.6" d="M78.9675 280.497C79.3152 280.584 79.6185 280.797 79.8193 281.094C80.0201 281.391 80.1044 281.752 80.056 282.107C79.9799 282.454 79.7745 282.76 79.4815 282.962C79.1885 283.164 78.8297 283.247 78.4776 283.195C78.1054 283.106 77.7796 282.882 77.5642 282.566C77.3487 282.25 77.2591 281.865 77.3129 281.487C77.4262 281.127 77.6742 280.826 78.005 280.646C78.3357 280.465 78.7236 280.42 79.0872 280.519" fill="white"/>
</g>
<g opacity="0.6">
<path opacity="0.6" d="M85.6838 291.951L85.5205 289.047L50.9698 291.07C50.6088 291.268 50.303 291.552 50.0805 291.898C49.858 292.244 49.7259 292.64 49.6962 293.05L85.6838 291.951Z" fill="white"/>
</g>
<path d="M67.4179 282.574C67.4179 282.748 68.3105 282.77 69.2031 283.282C70.0957 283.793 70.5964 284.5 70.7597 284.369C70.923 284.239 70.5964 283.282 69.497 282.705C68.3975 282.128 67.3743 282.411 67.4179 282.574Z" fill="#293241"/>
<path d="M63.7604 284.348C63.7604 284.522 64.5115 284.772 65.1429 285.435C65.7742 286.099 66.0028 286.904 66.177 286.882C66.3512 286.86 66.3947 285.871 65.5892 285.022C64.7836 284.174 63.7604 284.184 63.7604 284.348Z" fill="#293241"/>
<path d="M61.9098 288.971C62.0622 288.971 62.2581 288.111 61.7465 287.176C61.2348 286.24 60.4075 285.925 60.3422 286.088C60.2769 286.251 60.8103 286.708 61.2131 287.48C61.6158 288.253 61.7356 288.96 61.9098 288.971Z" fill="#293241"/>
<path d="M67.4723 278.343C67.5594 278.495 68.3431 278.212 69.3337 278.212C70.3243 278.212 71.1189 278.484 71.1951 278.332C71.2713 278.18 70.4985 277.603 69.3337 277.603C68.169 277.603 67.3852 278.223 67.4723 278.343Z" fill="#293241"/>
<path d="M45.5271 133.707C45.5271 133.707 42.0111 147.337 43.1867 158.868C44.3624 170.399 65.5239 278.136 65.5239 278.136L85.1723 275.264C85.1723 275.264 86.9466 238.638 85.1723 229.478C83.398 220.319 76.3006 204.361 76.8884 195.756C77.4762 187.151 77.1932 165.297 77.1932 165.297C77.1932 165.297 89.7007 156.486 90.4953 143.432C91.29 130.378 90.4953 131.912 90.4953 131.912L45.5271 133.707Z" fill="#293241"/>
<path d="M97.2878 137.188C97.2878 137.188 96.1993 157.389 90.8436 164.775C87.307 169.717 84.0367 174.845 81.0466 180.135L78.9675 213.857L96.1231 260.242L82.2222 266.769C82.2222 266.769 63.891 226.585 60.6471 215.946C57.4032 205.307 51.7753 146.815 51.7753 146.815L53.2776 134.469L97.2878 137.188Z" fill="#293241"/>
<path d="M90.4953 143.497C90.4512 143.65 90.422 143.807 90.4082 143.965C90.3538 144.302 90.2885 144.759 90.2123 145.325C89.9217 147.054 89.4548 148.749 88.8189 150.383C87.7746 152.938 86.3985 155.345 84.726 157.541C82.549 160.418 79.9848 162.98 77.1061 165.156L77.0081 165.232V165.341C77.0081 171.095 77.0843 177.666 77.0081 184.813C77.0081 188.381 76.8884 192.09 76.6706 195.897C76.7022 199.86 77.3147 203.796 78.4885 207.581C79.7513 212.171 81.2426 216.566 82.5815 220.83C83.9204 225.094 85.2049 229.217 85.4118 233.318C85.9451 241.499 85.7601 248.917 85.7056 255.129C85.6512 261.34 85.4444 266.366 85.3464 269.847C85.3464 271.555 85.2594 272.893 85.2267 273.85C85.2267 274.285 85.2267 274.623 85.2267 274.938C85.2148 275.054 85.2148 275.17 85.2267 275.286C85.2381 275.17 85.2381 275.054 85.2267 274.938L85.3029 273.85C85.3573 272.904 85.4335 271.566 85.5206 269.858C85.6948 266.377 85.9125 261.351 86.054 255.14C86.1955 248.928 86.3914 241.509 85.8907 233.275C85.6948 229.119 84.3885 224.92 83.0713 220.656C81.7542 216.392 80.252 211.954 79.0002 207.428C77.835 203.705 77.2225 199.831 77.1822 195.93C77.4 192.101 77.4653 188.391 77.4979 184.813C77.5633 177.666 77.4979 171.095 77.4217 165.341L77.3238 165.526C82.5339 161.661 86.594 156.453 89.0693 150.459C89.6798 148.799 90.1104 147.077 90.3538 145.325L90.4844 143.954C90.4991 143.802 90.5027 143.65 90.4953 143.497Z" fill="#455A64"/>
<path d="M71.6088 11.0886C69.8468 12.3622 68.4181 14.0417 67.444 15.9846C66.47 17.9276 65.9793 20.0767 66.0137 22.2496C66.079 24.3491 66.5362 26.7749 65.0884 28.2979C63.6406 29.8208 61.0063 29.6359 59.6456 31.2023C58.0237 33.0407 59.1558 35.9561 58.4809 38.3166C58.1355 39.4169 57.4085 40.3579 56.4307 40.9701C55.4528 41.5824 54.2884 41.8257 53.147 41.6562C55.7318 43.9825 58.9059 45.5553 62.3235 46.2033L65.1211 42.9398C64.6453 43.5509 64.387 44.3031 64.387 45.0774C64.387 45.8517 64.6453 46.6039 65.1211 47.215C66.1139 48.4159 67.4392 49.2975 68.931 49.7496C72.4117 51.0159 76.1377 51.4626 79.8194 51.0551C83.501 50.6476 87.0389 49.3967 90.1578 47.3999" fill="#293241"/>
<path d="M110.067 31.5939C109.632 29.9622 108.827 28.4284 108.554 26.764C107.977 23.1742 109.904 19.2581 108.348 15.9729C107.259 13.645 104.679 12.394 102.241 11.5129C99.8024 10.6318 97.1899 9.83764 95.4373 7.93397C94.1528 6.54157 93.4779 4.67053 92.1716 3.26725C90.3428 1.26567 87.5453 0.482434 84.8565 0.177846C82.0921 -0.235919 79.2676 0.0752105 76.6597 1.08073C75.3639 1.59526 74.2072 2.40668 73.2827 3.44966C72.3581 4.49263 71.6915 5.738 71.3367 7.08547C71.2117 8.4312 70.9861 9.76569 70.6618 11.0778C70.1284 12.4702 68.9527 13.5145 68.2016 14.7981C67.44 16.1807 67.1593 17.777 67.4036 19.3363C67.6479 20.8956 68.4034 22.3297 69.5514 23.4136L87.3276 48.9337C91.2463 50.6416 101.022 49.3144 104.255 46.5187C107.488 43.7231 111.189 35.7167 110.067 31.5939Z" fill="#293241"/>
<path d="M70.2481 20.3242C71.3367 14.7872 75.8869 8.4126 81.3841 9.71797L98.1914 16.321C99.0009 16.5041 99.7103 16.9884 100.175 17.6754C100.64 18.3624 100.826 19.2006 100.695 20.0196L93.467 61.6394H93.5868C93.5868 61.6394 88.144 72.9526 77.106 67.9052C74.9289 66.8935 74.1887 64.2828 74.069 61.6611L74.7003 55.0255C75.0922 51.6424 75.2664 50.2499 75.2664 50.2826C75.2664 50.3152 68.2887 48.1831 67.9948 38.6974C67.8533 34.0197 69.0943 26.4703 70.2481 20.3242Z" fill="#FFBE9D"/>
<path d="M83.1802 29.9296C83.1331 30.2409 83.2107 30.5582 83.3961 30.8127C83.5816 31.0672 83.8599 31.2385 84.1708 31.2893C84.3218 31.3209 84.4776 31.3218 84.629 31.2921C84.7803 31.2624 84.9242 31.2027 85.052 31.1165C85.1799 31.0303 85.2892 30.9194 85.3734 30.7902C85.4576 30.6611 85.5151 30.5164 85.5424 30.3647C85.5833 30.0539 85.5017 29.7394 85.3148 29.4877C85.1279 29.236 84.8504 29.0668 84.5409 29.0158C84.3909 28.9758 84.2341 28.9683 84.0809 28.9938C83.9277 29.0194 83.7818 29.0774 83.6529 29.1639C83.5241 29.2504 83.4152 29.3635 83.3337 29.4956C83.2521 29.6277 83.1998 29.7756 83.1802 29.9296Z" fill="#293241"/>
<path d="M71.1081 28.7765C71.0672 29.0873 71.1488 29.4017 71.3357 29.6535C71.5226 29.9052 71.8001 30.0744 72.1096 30.1254C72.2596 30.1654 72.4165 30.1729 72.5696 30.1474C72.7228 30.1218 72.8687 30.0638 72.9976 29.9773C73.1265 29.8907 73.2353 29.7776 73.3169 29.6456C73.3984 29.5135 73.4507 29.3655 73.4703 29.2116C73.5172 28.9016 73.4393 28.5856 73.2537 28.3328C73.068 28.08 72.7897 27.911 72.4797 27.8627C72.3295 27.8311 72.1745 27.8298 72.0237 27.8588C71.873 27.8878 71.7295 27.9465 71.6018 28.0316C71.4741 28.1167 71.3646 28.2264 71.2798 28.3543C71.1951 28.4822 71.1367 28.6258 71.1081 28.7765V28.7765Z" fill="#293241"/>
<path d="M70.8795 24.5775C70.9992 24.7951 72.1531 24.1533 73.5356 24.4252C74.9181 24.6972 75.7127 25.698 75.9631 25.5131C76.2134 25.3281 75.9631 25.0562 75.593 24.5993C75.1199 24.0107 74.4526 23.6097 73.7105 23.4681C72.9685 23.3266 72.2002 23.4538 71.5435 23.8269C71.0428 24.1424 70.8251 24.4688 70.8795 24.5775Z" fill="#293241"/>
<path d="M83.7571 26.7205C83.9095 26.9381 85.0524 26.1984 86.5438 26.3289C88.0351 26.4594 89.0692 27.4167 89.2434 27.1992C89.4175 26.9816 89.2434 26.7423 88.7535 26.3289C88.1513 25.7868 87.385 25.4613 86.5764 25.4043C85.7876 25.3289 84.9966 25.5246 84.334 25.9591C83.8768 26.2963 83.6809 26.6335 83.7571 26.7205Z" fill="#293241"/>
<path d="M78.0966 35.249C77.4453 34.9568 76.7622 34.7415 76.061 34.6072C75.7344 34.531 75.4405 34.4331 75.4079 34.1938C75.4288 33.8544 75.55 33.5288 75.7562 33.2583C76.159 32.4968 76.5944 31.7136 77.0407 30.8869C78.2174 28.8889 79.226 26.7967 80.056 24.6319C78.7318 26.5347 77.5598 28.5389 76.5509 30.6258C76.1154 31.4634 75.6909 32.2575 75.299 33.019C75.0385 33.3854 74.9187 33.8334 74.9616 34.2808C74.9934 34.4039 75.0531 34.5179 75.1362 34.6142C75.2193 34.7104 75.3234 34.7861 75.4405 34.8356C75.6157 34.9041 75.7984 34.9516 75.9848 34.977C76.6735 35.1612 77.3837 35.2526 78.0966 35.249V35.249Z" fill="#293241"/>
<path d="M75.2664 50.3261C79.639 50.956 84.1006 50.361 88.1549 48.6074C88.1549 48.6074 84.1817 54.7317 74.9834 52.6649L75.2664 50.3261Z" fill="#EB996E"/>
<path d="M78.249 38.4145C78.5319 38.1396 78.8803 37.9413 79.2613 37.8385C79.6423 37.7357 80.0432 37.7318 80.4261 37.8271C80.7076 37.8857 80.9738 38.002 81.208 38.1686C81.4422 38.3353 81.6393 38.5486 81.7868 38.7953C81.9311 39.0311 82.0001 39.3052 81.9845 39.5812C81.969 39.8572 81.8696 40.1218 81.6997 40.34C81.4617 40.5414 81.1697 40.6684 80.86 40.7051C80.5503 40.7419 80.2366 40.6868 79.958 40.5466C79.3813 40.2535 78.8673 39.8507 78.4449 39.3609C78.3117 39.2359 78.2012 39.0886 78.1184 38.9258C78.0821 38.8482 78.069 38.7617 78.0806 38.6769C78.0922 38.592 78.128 38.5122 78.1837 38.4472" fill="#FF725E"/>
<path d="M81.7651 36.6305C81.5583 36.6305 81.3732 37.9794 80.0561 38.8061C78.7389 39.6329 77.2694 39.2957 77.2367 39.4915C77.2041 39.6873 77.5306 39.8069 78.162 39.9048C78.9767 40.0167 79.8048 39.8396 80.5024 39.4044C81.1725 38.9856 81.6528 38.3222 81.8413 37.5552C81.9719 37.0004 81.8631 36.6305 81.7651 36.6305Z" fill="#293241"/>
<path d="M84.0074 23.2395C84.0945 23.6094 85.4008 23.6094 86.8812 23.9792C88.3617 24.3491 89.5264 24.9256 89.7768 24.6319C89.8748 24.5014 89.7115 24.1424 89.2652 23.7399C88.6639 23.2356 87.9512 22.8814 87.186 22.7065C86.4279 22.522 85.6365 22.522 84.8783 22.7065C84.334 22.8261 83.9748 23.0655 84.0074 23.2395Z" fill="#293241"/>
<path d="M72.4796 19.4539C72.6973 19.7803 73.7532 19.6062 74.9615 19.7476C76.1698 19.889 77.1387 20.2263 77.4652 19.9543C77.7918 19.6824 77.4652 19.5083 77.0516 19.1711C76.4735 18.7638 75.7999 18.5127 75.0961 18.4422C74.3924 18.3716 73.6823 18.4841 73.0348 18.7686C72.5558 19.0188 72.3599 19.3234 72.4796 19.4539Z" fill="#293241"/>
<path d="M101.903 17.8657C100.975 16.567 99.6608 15.5929 98.1478 15.0809C91.8772 12.3019 85.3004 10.2718 78.5538 9.03265C77.6503 10.3815 78.3252 12.2961 79.5553 13.3839C80.8847 14.3308 82.3538 15.0649 83.9095 15.5595C84.6831 15.8159 85.397 16.2254 86.0086 16.7637C86.6202 17.302 87.1169 17.958 87.4691 18.6925C88.0569 20.3242 87.4038 22.1843 87.9045 23.8378C88.7753 26.6879 92.6288 27.7866 93.4779 30.6366C94.1201 32.8123 92.7812 34.9879 92.3893 37.1635C92.1735 38.2878 92.2004 39.4453 92.4684 40.5583C92.7363 41.6714 93.239 42.7144 93.9429 43.6176C94.6468 44.5209 95.5356 45.2634 96.5499 45.7956C97.5642 46.3278 98.6805 46.6374 99.8242 46.7037L102.437 22.6956C102.765 21.0693 102.578 19.3814 101.903 17.8657Z" fill="#293241"/>
<path d="M117.056 38.9584C115.837 37.7618 114.302 36.6958 113.877 35.0423C113.257 32.6382 115.303 29.9513 114.193 27.7322C113.17 25.7088 109.839 25.6436 108.935 23.5767C108.206 21.9668 109.208 20.6288 108.935 19.2255C108.692 18.4757 108.22 17.8207 107.586 17.3525C106.951 16.8843 106.186 16.6263 105.398 16.6147L93.6194 31.942C92.3241 37.2288 91.1593 40.0136 92.1499 43.1791C92.8097 44.8827 93.2877 46.6512 93.5759 48.455C93.7071 49.3593 93.597 50.2822 93.2567 51.1303C92.9165 51.9784 92.3582 52.7216 91.6383 53.2849C98.1696 54.1334 104.483 51.0114 110.329 47.9873L116.523 44.7238C117.195 44.443 117.787 43.9979 118.243 43.4293C119.233 42.0913 118.264 40.155 117.056 38.9584Z" fill="#293241"/>
<path d="M110.612 46.3991C110.381 46.4593 110.143 46.4922 109.904 46.497C109.216 46.5325 108.527 46.4479 107.869 46.2468C106.814 45.9371 105.858 45.36 105.093 44.5716C104.086 43.5021 103.492 42.1106 103.416 40.6445C103.365 39.7966 103.48 38.9467 103.754 38.1426C104.099 37.297 104.553 36.4998 105.104 35.7711C105.679 35.0177 106.145 34.1862 106.486 33.3018C106.662 32.8497 106.734 32.3642 106.698 31.8806C106.663 31.397 106.52 30.9275 106.279 30.5061C105.724 29.6794 104.625 29.4183 103.612 28.9614C103.067 28.7414 102.6 28.3624 102.273 27.8736C101.97 27.3469 101.84 26.7377 101.903 26.1331C102.102 24.9818 102.412 23.8525 102.829 22.7609C102.982 22.2159 103.012 21.6436 102.916 21.0856C102.8 20.5359 102.491 20.0458 102.045 19.7041C101.073 19.0562 99.9455 18.6806 98.7792 18.6163C97.5889 18.5051 96.4447 18.1015 95.4482 17.4415C94.498 16.7811 93.7454 15.8749 93.2711 14.8198C92.8735 13.8046 92.6419 12.7321 92.5853 11.6434C92.5187 10.6356 92.3509 9.63707 92.0846 8.66279C91.7908 7.76692 91.304 6.94632 90.6586 6.25872C89.5949 5.11491 88.1944 4.33916 86.66 4.04384C85.1257 3.74852 83.5371 3.94896 82.1243 4.61611C81.1492 5.05229 80.2605 5.66029 79.5009 6.41102C78.8623 7.07115 78.3 7.80094 77.8245 8.58665L77.9007 8.42346C77.9722 8.26144 78.0559 8.10508 78.1511 7.95571C78.499 7.36486 78.9155 6.81715 79.392 6.32399C80.1528 5.5422 81.049 4.9046 82.0372 4.44208C83.3487 3.80809 84.8133 3.55912 86.2608 3.72411C88.0266 3.95764 89.6612 4.78204 90.8981 6.06291C91.5729 6.78545 92.0884 7.64154 92.4112 8.57576C92.6908 9.57014 92.8659 10.591 92.9337 11.6216C92.9958 12.6768 93.2236 13.7157 93.6086 14.7002C94.059 15.6939 94.7746 16.5445 95.6768 17.1586C96.6234 17.7836 97.7135 18.1579 98.8445 18.2464C100.071 18.2943 101.263 18.67 102.295 19.3342C102.817 19.7272 103.181 20.2948 103.318 20.9333C103.425 21.5463 103.388 22.1756 103.21 22.7717C102.812 23.8502 102.507 24.96 102.295 26.0896C102.221 26.614 102.33 27.148 102.604 27.6016C102.877 28.0552 103.299 28.401 103.797 28.5807C104.276 28.8091 104.788 28.9723 105.289 29.2225C105.807 29.4417 106.255 29.7992 106.584 30.2559C106.856 30.7208 107.019 31.2415 107.061 31.7785C107.102 32.3156 107.021 32.855 106.824 33.3562C106.472 34.2672 105.988 35.1213 105.387 35.8908C104.841 36.5915 104.394 37.3639 104.059 38.1861C103.785 38.9527 103.666 39.7663 103.71 40.5793C103.77 41.9864 104.325 43.3272 105.278 44.3649C106.004 45.1453 106.919 45.7259 107.934 46.051C108.796 46.338 109.705 46.4562 110.612 46.3991V46.3991Z" fill="#455A64"/>
<path d="M119.93 35.5427C120.035 35.7113 120.101 35.9006 120.126 36.0975C120.199 36.6611 120.068 37.2325 119.756 37.7074C119.538 38.0569 119.234 38.3452 118.874 38.5451C118.44 38.7778 117.95 38.8833 117.459 38.8496C116.858 38.8102 116.279 38.6054 115.788 38.2579C115.296 37.9104 114.91 37.4338 114.672 36.8807C114.392 36.2446 114.269 35.5508 114.313 34.8574C114.365 34.1033 114.557 33.3655 114.879 32.6817C115.478 31.2893 116.49 29.9513 116.588 28.3305C116.644 27.9243 116.616 27.511 116.505 27.1162C116.395 26.7213 116.204 26.3534 115.946 26.0352C115.304 25.4541 114.46 25.1459 113.594 25.1758C112.636 25.198 111.682 25.0506 110.775 24.7407C110.308 24.4995 109.928 24.1194 109.686 23.6529C109.447 23.1984 109.31 22.6973 109.284 22.1843C109.29 21.2042 109.418 20.2286 109.665 19.2799C109.861 18.3876 109.861 17.4635 109.665 16.5712C109.281 14.8726 108.26 13.3855 106.813 12.4158C105.443 11.6263 103.898 11.189 102.317 11.143C100.909 11.0745 99.5201 10.7845 98.2023 10.2837C97.1293 9.81562 96.1627 9.13467 95.3611 8.28208C94.7477 7.64136 94.2406 6.90691 93.8589 6.10645C93.508 5.44575 93.2793 4.72712 93.184 3.9852C93.3833 4.69563 93.6532 5.38437 93.9895 6.04117C94.388 6.80118 94.9021 7.49476 95.5135 8.09714C96.3089 8.91265 97.2603 9.56004 98.3111 10.0008C99.6076 10.4743 100.97 10.7423 102.35 10.7949C103.986 10.8343 105.587 11.2791 107.009 12.0894C108.536 13.1004 109.619 14.6573 110.035 16.4407C110.236 17.3837 110.236 18.3586 110.035 19.3016C109.791 20.2177 109.663 21.1605 109.654 22.1082C109.649 22.556 109.769 22.9963 110 23.3803C110.23 23.7643 110.563 24.077 110.96 24.2838C111.825 24.5783 112.735 24.7182 113.649 24.6972C114.609 24.6733 115.54 25.029 116.24 25.6871C116.528 26.0419 116.741 26.4513 116.866 26.8907C116.991 27.33 117.026 27.7902 116.969 28.2435C116.885 29.0882 116.638 29.9085 116.24 30.6584C115.88 31.3872 115.499 32.0617 115.151 32.7361C114.838 33.3694 114.646 34.0557 114.585 34.7595C114.537 35.4101 114.645 36.0628 114.901 36.6631C115.116 37.1752 115.467 37.619 115.916 37.9467C116.365 38.2744 116.894 38.4738 117.448 38.5233C117.902 38.5682 118.359 38.4813 118.765 38.2731C119.107 38.0935 119.399 37.8319 119.614 37.5116C119.916 37.0676 120.062 36.5355 120.028 35.9996C120.006 35.7385 119.908 35.5536 119.93 35.5427Z" fill="#293241"/>
<path d="M50.5888 35.9561C50.3654 36.5035 50.3423 37.112 50.5235 37.6748C50.6173 37.9958 50.7812 38.2921 51.0033 38.5423C51.2254 38.7924 51.5002 38.9903 51.808 39.1216C52.2259 39.2663 52.6755 39.2931 53.1076 39.1991C53.5397 39.105 53.9375 38.8938 54.2573 38.5886C54.6154 38.224 54.8382 37.7481 54.8886 37.2397C54.9372 36.6789 54.8781 36.114 54.7145 35.5753C54.211 34.3656 53.9556 33.0672 53.9634 31.7571C54.0514 31.0254 54.2904 30.3199 54.6651 29.6852C55.0398 29.0505 55.5422 28.5003 56.1405 28.0694C56.7736 27.6175 57.4864 27.289 58.2414 27.1012C59.0121 26.9256 59.8027 26.8525 60.5927 26.8837C61.3531 26.9161 62.1149 26.8761 62.8677 26.764C63.574 26.6512 64.2178 26.293 64.6856 25.7524C65.1073 25.2004 65.364 24.5404 65.4259 23.8487C65.497 23.1708 65.475 22.4864 65.3605 21.8145C65.0613 20.5499 64.9295 19.2516 64.9687 17.9527C65.0874 16.8023 65.5501 15.7144 66.2967 14.8307C66.928 14.1308 67.6849 13.5552 68.5282 13.1337C69.1419 12.8147 69.7313 12.4511 70.2917 12.0459C70.7568 11.6847 71.1485 11.238 71.4456 10.7296V10.8384C71.4066 10.9471 71.3593 11.0525 71.304 11.1539C71.0813 11.5438 70.7857 11.8872 70.4332 12.1656C69.881 12.5996 69.2949 12.9888 68.6806 13.3295C67.8546 13.7487 67.1158 14.3209 66.5035 15.0156C65.8112 15.8669 65.3869 16.9041 65.2843 17.9962C65.2677 19.2673 65.4103 20.5354 65.7089 21.771C65.8369 22.4889 65.8626 23.2214 65.7851 23.9466C65.7234 24.7091 65.4438 25.4378 64.9795 26.0461C64.4574 26.6552 63.7362 27.0599 62.9439 27.1883C62.1662 27.3073 61.3788 27.351 60.5927 27.3188C59.8321 27.2874 59.0707 27.3569 58.3285 27.5255C57.6201 27.6981 56.9513 28.0046 56.3582 28.4284C55.7958 28.8253 55.3223 29.335 54.9681 29.925C54.6138 30.515 54.3866 31.1723 54.3008 31.855C54.2895 33.12 54.5339 34.3743 55.0193 35.5427C55.1828 36.1261 55.2345 36.735 55.1717 37.3376C55.1047 37.9081 54.8433 38.4381 54.4314 38.8388C54.0753 39.173 53.6322 39.4002 53.1528 39.4945C52.6735 39.5888 52.1772 39.5462 51.7209 39.3718C51.1853 39.1171 50.7565 38.6821 50.5097 38.143C50.2629 37.604 50.2139 36.9954 50.3711 36.4238C50.4144 36.2559 50.4882 36.0973 50.5888 35.9561V35.9561Z" fill="#293241"/>
<path d="M57.2072 63.815C57.2072 63.815 51.7644 76.6839 51.7644 81.6443C51.7644 86.6047 57.0112 95.0679 55.6832 99.0493C54.3552 103.031 43.0668 128.116 43.0668 134.229C43.0668 134.229 88.895 137.384 88.895 136.731C88.895 136.079 94.7732 107.774 96.5911 101.377C98.409 94.9809 103.612 71.6038 102.622 66.4802C101.631 61.3566 89.2869 54.9928 89.2869 54.9928C89.2869 54.9928 76.3005 53.4481 72.2946 53.905C68.2887 54.3619 57.2072 63.815 57.2072 63.815Z" fill="#455A64"/>
<path d="M72.3599 120.98C70.9884 125.266 72.7518 133.076 75.016 136.796C77.2802 140.517 92.4329 149.285 100.684 149.85C108.935 150.416 111.428 145.956 111.428 145.956C116.229 139.723 123.533 124.765 126.777 117.607C130.021 110.45 132.405 102.563 130.63 94.9808C129.955 92.0873 128.682 89.2481 128.878 86.2783C129.106 82.7212 131.425 79.6644 132.459 76.2596C134.277 70.2222 131.817 63.456 127.408 58.9416C123 54.4272 118.134 52.8063 112.016 51.2616H111.82C108.262 50.3783 104.504 50.8434 101.269 52.5671C98.0345 54.2907 95.5535 57.1508 94.3052 60.595L72.3599 120.98Z" fill="#FF725E"/>
<path d="M95.8401 62.3791C93.2812 59.5725 90.1252 57.3749 86.6043 55.9479C83.0835 54.5209 79.2873 53.9009 75.495 54.1334C75.495 54.1334 79.8492 55.7651 81.5691 58.1366C81.5691 58.1366 91.9539 60.0838 92.2587 67.9269" fill="#FF725E"/>
<path d="M64.6639 74.5735C64.6639 74.5735 67.1893 105.413 77.2367 115.149L72.8825 123.721C72.8825 123.721 63.5535 109.819 60.9084 96.9607C59.3103 89.6122 58.7099 82.0821 59.1231 74.5735H64.6639Z" fill="#FF725E"/>
<path d="M78.8913 135.556C78.8913 135.556 78.9784 135.241 79.109 134.621C79.2396 134.001 79.4029 133.065 79.6206 131.934C80.1431 129.628 80.8834 126.266 82.1787 122.22C83.4741 118.173 85.1832 113.419 87.2732 108.209C89.3632 102.998 91.7689 97.3306 94.0549 91.2279C96.2284 85.5187 98.0461 79.6804 99.4977 73.7467C100.88 68.3077 102.556 63.4887 104.995 60.0294C106.829 57.2325 109.357 54.9577 112.332 53.4264C113.441 52.9007 114.601 52.4888 115.793 52.1971C115.474 52.2196 115.158 52.2669 114.846 52.3385C113.951 52.5411 113.079 52.8364 112.245 53.2197C109.168 54.6783 106.538 56.9315 104.625 59.7466C102.088 63.2384 100.358 68.1227 98.9425 73.5618C97.4811 79.4678 95.6635 85.2801 93.4997 90.9668C91.2137 97.0368 88.8189 102.726 86.7616 107.959C84.7042 113.191 82.9952 117.966 81.776 122.1C80.7995 125.317 80.0001 128.586 79.3812 131.89C79.207 132.978 79.0655 133.925 78.9675 134.599C78.9123 134.915 78.8868 135.236 78.8913 135.556V135.556Z" fill="#293241"/>
<path d="M87.1752 111.2C87.5906 111.487 88.0359 111.727 88.5032 111.918C89.3632 112.353 90.6259 112.952 92.1934 113.67C95.3285 115.105 99.7045 116.998 104.603 118.935C109.501 120.871 113.997 122.492 117.263 123.59C118.896 124.134 120.224 124.569 121.149 124.841C121.622 125.015 122.11 125.142 122.608 125.222C122.17 124.975 121.707 124.778 121.225 124.635L117.393 123.21C114.128 122.013 109.708 120.349 104.81 118.412C99.9113 116.476 95.5353 114.649 92.3567 113.3L88.5903 111.722C88.1368 111.503 87.6628 111.328 87.1752 111.2V111.2Z" fill="#293241"/>
<path d="M98.2349 79.077C98.2349 79.077 98.42 79.1858 98.7901 79.3599L100.445 80.1431L106.747 83.1672C112.19 85.7671 119.941 89.6941 129.607 94.0454L129.727 93.5993C124.632 92.9902 119.048 92.5985 113.072 92.1634C107.096 91.7283 100.749 91.3367 94.1311 90.9451H93.7827V91.2388C93.8085 91.35 93.8651 91.4518 93.946 91.5325L94.044 91.5978L94.229 91.7392L94.5991 91.9676L95.3285 92.4027L96.8089 93.2404L99.846 94.883C101.882 95.9708 103.972 97.0586 106.094 98.1464C109.418 99.8434 112.702 101.464 115.946 103.009C119.211 104.543 122.39 106.022 125.612 107.241L125.71 106.707L93.1187 106.044H92.2152L93.0099 106.468L112.43 116.9L117.753 119.718L119.157 120.436C119.31 120.525 119.47 120.601 119.636 120.664C119.496 120.551 119.342 120.456 119.179 120.381L117.818 119.609L112.549 116.683L93.2167 106.087L93.1078 106.501L125.699 107.284H127.299L125.808 106.718C122.619 105.511 119.429 104.021 116.185 102.487C112.941 100.953 109.654 99.3212 106.388 97.6351C104.269 96.5546 102.186 95.4667 100.14 94.3717L97.1137 92.74L95.6442 91.9024L94.9257 91.4781L94.5774 91.2605C94.523 91.2295 94.472 91.1931 94.425 91.1518L94.3488 91.0974C94.3488 91.0974 94.3488 91.0974 94.3488 91.1518C94.3488 91.2062 94.4032 91.1517 94.3488 91.2061C94.2735 91.2226 94.1955 91.2226 94.1202 91.2061V91.489C100.739 91.8697 107.085 92.2613 113.061 92.6638C119.037 93.0663 124.621 93.4579 129.694 94.0345L131.153 94.2085L129.814 93.5993C120.18 89.2481 112.397 85.3972 106.954 82.8626C104.222 81.579 102.078 80.5999 100.608 79.9581L98.9207 79.2293C98.4853 79.1532 98.2349 79.077 98.2349 79.077Z" fill="white"/>
<path d="M79.4356 136.078C79.778 135.494 80.0728 134.883 80.3173 134.251C80.8507 133.065 81.6127 131.336 82.6033 129.225C83.5939 127.115 84.7804 124.624 86.2173 121.893C86.914 120.566 87.7086 119.054 89.1782 118.445C90.6477 117.836 92.3785 118.445 94.0222 119.022C100.739 121.36 106.726 123.754 111.015 125.548L116.087 127.724L117.47 128.311C117.629 128.39 117.797 128.448 117.97 128.486C117.97 128.486 117.818 128.366 117.524 128.203L116.185 127.528C115.01 126.952 113.301 126.136 111.178 125.189C106.911 123.275 100.945 120.838 94.2073 118.467C93.372 118.15 92.513 117.899 91.6383 117.716C90.7485 117.53 89.8243 117.598 88.9713 117.912C88.1683 118.27 87.4764 118.837 86.9684 119.555C86.5078 120.214 86.1001 120.909 85.7492 121.632C84.3559 124.384 83.1802 126.908 82.2332 129.04C81.2862 131.172 80.5786 132.924 80.1105 134.142L79.588 135.556C79.5133 135.722 79.462 135.898 79.4356 136.078V136.078Z" fill="white"/>
<path d="M73.7315 117.292C73.8395 117.114 73.9272 116.924 73.9927 116.726L74.6459 115.062L76.9645 108.905C78.8912 103.629 81.5146 96.4603 84.3993 88.5301C87.284 80.6 89.8421 73.3986 91.6817 68.101L93.8589 61.8896C94.0766 61.1934 94.2616 60.6386 94.414 60.1926C94.4929 59.9976 94.5442 59.7926 94.5664 59.5834C94.4526 59.7585 94.3646 59.949 94.3052 60.1491L93.6411 61.8134C93.0751 63.3364 92.2913 65.425 91.3334 67.9704L83.8877 88.3452L76.6161 108.763L74.439 114.986C74.2213 115.667 74.0363 116.233 73.8839 116.683C73.805 116.878 73.7537 117.083 73.7315 117.292V117.292Z" fill="#293241"/>
<path d="M25.3997 46.7798L42.2288 55.7108L30.1893 63.4886L20.523 48.5965L25.3997 46.7798Z" fill="#455A64"/>
<path d="M18.139 31.8659C18.139 31.8659 21.8183 32.214 22.4932 32.8123C23.1681 33.4106 24.888 41.3516 24.9751 43.0595C25.0622 44.7674 24.9751 46.8233 24.9751 46.8233C24.9751 46.8233 20.8604 49.4776 20.0113 48.999C19.1622 48.5203 17.8342 44.9849 17.8342 44.9849C17.8342 44.9849 14.9604 45.6594 14.4052 44.9196C13.8501 44.1799 13.6215 43.995 15.7768 43.6034C16.4828 43.4123 17.1711 43.1612 17.8342 42.8528L17.5729 41.5692L15.6897 41.4822C15.6897 41.4822 15.5917 42.9725 14.4052 42.9725C13.2187 42.9725 13.7303 41.5474 13.7303 41.5474L13.8501 39.1651L17.1157 38.9802L15.7224 37.7074L14.6338 37.5551C14.6338 37.5551 14.5141 38.5015 13.8501 38.458C13.6781 38.465 13.5067 38.4335 13.3485 38.3658C13.1903 38.298 13.0492 38.1957 12.9357 38.0664C12.7927 37.0561 12.7927 36.0308 12.9357 35.0205C13.2264 34.6516 13.5714 34.3288 13.9589 34.0633C13.6258 33.3693 13.3738 32.6392 13.2078 31.8876C13.3841 31.6407 13.6156 31.4384 13.884 31.2968C14.1524 31.1551 14.4501 31.0781 14.7536 31.0718C15.3196 31.0935 18.139 31.8659 18.139 31.8659Z" fill="#FFBE9D"/>
<path d="M18.5091 28.4828C18.5091 30.3212 18.4003 33.4541 18.3459 35.5644C18.3398 35.8156 18.2742 36.0617 18.1545 36.2826C18.0348 36.5035 17.8643 36.6929 17.6571 36.8351C17.4499 36.9774 17.2119 37.0685 16.9627 37.1011C16.7134 37.1336 16.4599 37.1065 16.2232 37.0221L5.27232 33.1386C4.74924 32.9521 4.29678 32.6083 3.97712 32.1545C3.65746 31.7006 3.48628 31.159 3.48709 30.604V24.0227C3.4856 23.7942 3.53873 23.5685 3.64206 23.3646C3.7454 23.1607 3.89595 22.9844 4.0812 22.8504C4.26645 22.7163 4.48106 22.6284 4.70716 22.5939C4.93327 22.5594 5.16435 22.5794 5.38118 22.6521L17.1267 26.5247C17.5377 26.6583 17.8944 26.9212 18.1435 27.2742C18.3927 27.6271 18.521 28.051 18.5091 28.4828V28.4828Z" fill="#293241"/>
<path d="M8.83183 39.1216C9.37372 38.9734 9.89351 38.7539 10.3776 38.4689C11.1685 37.6414 11.6326 36.5554 11.6838 35.4122L9.50673 34.444L9.23459 33.3562C9.23459 33.3562 11.4117 24.6537 11.0198 24.0663C10.6279 23.4788 9.85507 22.9023 8.84271 24.2077C7.99402 25.6898 7.23786 27.2229 6.57854 28.7983V28.7983C6.41178 28.4402 6.16838 28.1231 5.86555 27.8693C5.56272 27.6156 5.20785 27.4314 4.82596 27.3297C3.90069 27.0795 2.84479 28.8744 2.84479 28.8744C2.64623 28.8085 2.43609 28.7847 2.22781 28.8047C2.01953 28.8246 1.81771 28.8878 1.6353 28.9902C1.45288 29.0926 1.29389 29.232 1.16851 29.3993C1.04312 29.5667 0.954102 29.7585 0.907163 29.9622C0.417314 31.5178 0.123403 32.486 0.123403 32.486C-0.041216 33.3887 -0.041216 34.3137 0.123403 35.2164C0.395542 37.6313 1.30993 41.6018 2.30051 43.2227C3.29109 44.8435 8.83183 39.1216 8.83183 39.1216Z" fill="#FFBE9D"/>
<path d="M22.1449 37.4355L14.7319 33.9436C14.5107 34.2085 14.3583 34.5237 14.288 34.8614C14.2178 35.1991 14.2319 35.5489 14.3291 35.8799C14.6883 36.9677 19.4018 40.873 19.4018 40.873C19.4055 42.7204 19.6993 44.5557 20.2726 46.312" fill="#FFBE9D"/>
<path d="M20.2726 46.3012C20.2037 45.8027 20.1056 45.3087 19.9787 44.8217C19.7536 43.5177 19.6443 42.1963 19.6521 40.873V40.7642L19.5651 40.6881C18.0432 39.4284 16.5897 38.0885 15.2108 36.674C15.0275 36.4773 14.86 36.2663 14.7101 36.0431C14.5818 35.8523 14.5066 35.6307 14.4924 35.4013C14.4612 34.9414 14.6051 34.4869 14.8952 34.1285H14.5795C16.7566 35.1293 18.6071 35.9669 19.9461 36.5435C20.6438 36.8906 21.3727 37.171 22.1232 37.3811C21.4926 36.9479 20.8175 36.5832 20.1093 36.2933C18.814 35.6297 16.9743 34.7268 14.8298 33.6934L14.6448 33.6064L14.5142 33.7587C14.1203 34.2249 13.9215 34.8249 13.959 35.4339C13.9716 35.7596 14.0732 36.0756 14.2529 36.3477C14.4204 36.5932 14.606 36.8259 14.8081 37.0439C16.1918 38.481 17.6721 39.8221 19.2385 41.0579L19.1514 40.873C19.2385 44.2561 20.1093 46.3664 20.2726 46.3012Z" fill="#EB996E"/>
<path d="M72.2946 53.8397L32.0181 55.8413L10.8348 41.2646L8.82098 39.089L2.28964 43.2335C2.28964 43.2335 16.9416 66.0776 22.1558 70.8096C24.0825 72.5501 40.6612 74.9215 54.1702 74.6496C63.412 74.4647 79.5771 76.129 81.9175 65.0877C83.5503 57.3207 77.8027 53.2958 72.2946 53.8397Z" fill="#455A64"/>
<path d="M23.1137 71.2665C23.6057 71.5129 24.1195 71.7132 24.6485 71.8648L26.5317 72.3217L29.0463 72.7894C32.7909 73.3877 38.0051 73.8773 43.7636 74.2145C49.522 74.5517 54.758 74.6714 58.5353 74.704C60.4293 74.704 61.9642 74.704 63.0201 74.704C63.5701 74.713 64.1198 74.6766 64.6638 74.5952C64.1206 74.5071 63.5702 74.4707 63.0201 74.4864L58.5461 74.3233C54.7689 74.1927 49.5547 73.9969 43.7962 73.6706C38.0378 73.3442 32.8453 72.9091 29.1007 72.4087L26.5862 72.028L24.703 71.669C24.1864 71.4872 23.6545 71.3525 23.1137 71.2665V71.2665Z" fill="#293241"/>
<path d="M10.8457 41.2646C10.9617 41.3792 11.0894 41.4813 11.2267 41.5692L12.4023 42.4068L16.8654 45.4962L32.791 56.3743H32.8563H32.9434L55.9228 55.2213L65.9157 54.6773L70.6618 54.4163C72.1515 54.2395 73.659 54.2835 75.1358 54.5468C77.8598 55.1004 80.2522 56.7125 81.7869 59.0286C83.1051 61.0579 83.6247 63.5032 83.2455 65.8927C83.044 66.9206 82.6447 67.8996 82.0699 68.7754C81.5692 69.5731 80.9694 70.3042 80.2847 70.951C79.2006 72.0071 77.9502 72.8781 76.5836 73.5292C75.4074 74.0709 74.1729 74.4761 72.9043 74.7367H73.1655L73.9166 74.6279C74.8802 74.4281 75.8186 74.1217 76.7142 73.7141C78.1194 73.077 79.4103 72.2134 80.535 71.1577C81.2511 70.5169 81.8805 69.7855 82.4073 68.9821C83.0166 68.0713 83.4453 67.0521 83.6701 65.9798C84.1035 63.4849 83.5828 60.9185 82.2114 58.7893C81.4277 57.579 80.4112 56.5365 79.2208 55.7223C78.0304 54.9081 76.6899 54.3384 75.2773 54.0464C73.7548 53.7688 72.2001 53.7138 70.6618 53.8832L65.8286 54.1334L55.8357 54.6665L32.8563 55.9283H33.0087L16.9743 45.2351L12.4894 42.2763L11.2702 41.5039C11.1381 41.4085 10.9957 41.3282 10.8457 41.2646Z" fill="#293241"/>
</svg>
