<svg width="94" height="318" viewBox="0 0 94 318" fill="none" xmlns="http://www.w3.org/2000/svg">
<path d="M31.1131 288.57L32.0819 306.997C32.0819 306.997 13.6635 312.828 13.5111 316.244L49.3246 317.005L48.998 288.233L31.1131 288.57Z" fill="#FF725E"/>
<g opacity="0.6">
<path opacity="0.6" d="M43.1307 305.268C43.487 305.356 43.797 305.575 43.9988 305.882C44.2006 306.188 44.2793 306.559 44.2192 306.921C44.1336 307.269 43.9174 307.57 43.6153 307.763C43.3133 307.955 42.9487 308.024 42.5973 307.955C42.2305 307.85 41.9159 307.613 41.7146 307.289C41.5134 306.965 41.44 306.578 41.5087 306.203C41.6372 305.848 41.8985 305.557 42.2375 305.391C42.5766 305.224 42.967 305.196 43.3266 305.311" fill="white"/>
</g>
<g opacity="0.6">
<path opacity="0.6" d="M49.3246 317.005V314.101L14.7194 314.579C14.3494 314.761 14.0308 315.032 13.7931 315.369C13.5553 315.705 13.406 316.096 13.3587 316.505L49.3246 317.005Z" fill="white"/>
</g>
<path d="M31.4941 306.823C31.4941 306.997 32.3758 307.063 33.2466 307.617C34.1175 308.172 34.5855 308.89 34.7488 308.814C34.9121 308.738 34.6291 307.726 33.5623 307.095C32.4955 306.464 31.4505 306.66 31.4941 306.823Z" fill="#293241"/>
<path d="M27.7603 308.444C27.7603 308.607 28.4896 308.89 29.0992 309.619C29.7088 310.348 29.883 311.131 30.0571 311.12C30.2313 311.109 30.3293 310.119 29.5564 309.227C28.7835 308.335 27.7603 308.27 27.7603 308.444Z" fill="#293241"/>
<path d="M25.7028 312.969C25.8661 312.969 26.0947 312.121 25.6266 311.175C25.1585 310.228 24.3421 309.858 24.2659 310C24.1897 310.141 24.7122 310.652 25.0823 311.436C25.4525 312.219 25.5287 312.948 25.7028 312.969Z" fill="#293241"/>
<path d="M31.7443 302.603C31.8205 302.755 32.6152 302.505 33.6057 302.603C34.5963 302.7 35.3692 302.951 35.4563 302.798C35.5434 302.646 34.7923 302.037 33.6275 301.993C32.4628 301.95 31.6572 302.461 31.7443 302.603Z" fill="#293241"/>
<path d="M61.7885 142.705C61.5381 143.455 60.4713 156.139 59.2521 164.896C58.8074 168.101 57.5398 171.137 55.5728 173.708L55.2245 174.164C53.0473 188.719 52.1547 226.662 52.1547 226.662C52.1547 226.662 56.0082 254.391 55.2245 261.712C54.4407 269.033 49.0088 305.159 49.0088 305.159L30.9497 305.061L22.5134 223.932L12.8905 159.827L50.99 152.484L61.7885 142.705Z" fill="#293241"/>
<path d="M44.5894 21.0654L41.9551 58.3992C41.746 61.3361 40.4319 64.085 38.2771 66.0931C36.1223 68.1011 33.2865 69.2194 30.3402 69.2229V69.2229C28.7462 69.2234 27.169 68.8968 25.7064 68.2635C24.2437 67.6302 22.9267 66.7036 21.8369 65.5411C20.7471 64.3786 19.9076 63.005 19.3705 61.5052C18.8335 60.0054 18.6101 58.4114 18.7144 56.8218C18.943 53.2647 19.1607 50.3493 19.1607 50.3493C19.1607 50.3493 10.1148 48.9461 10.006 39.9063C9.94065 34.6957 10.8442 22.8494 11.6061 13.7988C11.8519 10.8342 13.2038 8.07029 15.3936 6.05528C17.5834 4.04026 20.4511 2.9214 23.4279 2.92064H28.8706C31.1067 3.04761 33.2945 3.62191 35.3043 4.60953C37.3141 5.59714 39.1051 6.97795 40.571 8.67009C42.0369 10.3622 43.1479 12.3313 43.8382 14.4605C44.5284 16.5897 44.7839 18.8357 44.5894 21.0654V21.0654Z" fill="#FFBE9D"/>
<path d="M19.1607 50.3493C23.3345 50.3408 27.4183 49.1365 30.928 46.8792C30.928 46.8792 28.0215 53.4061 18.9539 52.6338L19.1607 50.3493Z" fill="#EB996E"/>
<path d="M13.3042 22.4034C13.4675 22.5775 14.3928 21.8486 15.8406 21.8486C17.2883 21.8486 18.2463 22.5557 18.3987 22.3816C18.5511 22.2076 18.3116 22.0009 17.8653 21.6746C17.2623 21.2631 16.549 21.0432 15.8188 21.0436C15.0953 21.0427 14.3902 21.2713 13.805 21.6963C13.3695 22.0227 13.228 22.3273 13.3042 22.4034Z" fill="#293241"/>
<path d="M25.692 26.2543C25.689 26.5921 25.8182 26.9177 26.0521 27.1615C26.286 27.4054 26.606 27.5483 26.9439 27.5596C27.1081 27.573 27.2733 27.5532 27.4297 27.5015C27.5862 27.4497 27.7306 27.3671 27.8545 27.2586C27.9783 27.15 28.0791 27.0177 28.1508 26.8695C28.2225 26.7212 28.2637 26.5601 28.2719 26.3957C28.275 26.0597 28.1473 25.7357 27.9157 25.4921C27.6842 25.2485 27.3669 25.1044 27.031 25.0903C26.8662 25.077 26.7004 25.0967 26.5433 25.1483C26.3863 25.1999 26.2411 25.2823 26.1164 25.3907C25.9917 25.4992 25.8899 25.6314 25.817 25.7797C25.7441 25.928 25.7017 26.0893 25.692 26.2543V26.2543Z" fill="#293241"/>
<path d="M13.2934 26.2543C13.2875 26.591 13.4143 26.9167 13.6464 27.1609C13.8786 27.4051 14.1975 27.5483 14.5343 27.5596C14.6986 27.573 14.8638 27.5532 15.0202 27.5015C15.1766 27.4497 15.321 27.3671 15.4449 27.2586C15.5688 27.15 15.6696 27.0177 15.7413 26.8695C15.813 26.7212 15.8542 26.5601 15.8624 26.3957C15.8655 26.0597 15.7378 25.7357 15.5062 25.4921C15.2746 25.2485 14.9573 25.1044 14.6214 25.0903C14.4575 25.0785 14.2929 25.0993 14.1371 25.1516C13.9813 25.2039 13.8375 25.2866 13.7139 25.3949C13.5904 25.5031 13.4896 25.6349 13.4174 25.7824C13.3452 25.9299 13.303 26.0903 13.2934 26.2543V26.2543Z" fill="#293241"/>
<path d="M26.7261 22.5883C26.8894 22.7624 27.8147 22.0335 29.2624 22.0444C30.7102 22.0553 31.6681 22.7406 31.8205 22.5666C31.9729 22.3925 31.7335 22.1858 31.2872 21.8704C30.6849 21.449 29.9649 21.2282 29.2298 21.2394C28.5104 21.2323 27.808 21.4574 27.2268 21.8812C26.7914 22.2076 26.6499 22.5122 26.7261 22.5883Z" fill="#293241"/>
<path d="M21.7949 33.3903C21.0635 33.1629 20.3066 33.0277 19.5416 32.9878C19.1824 32.9878 18.8449 32.8791 18.7905 32.6397C18.7513 32.2608 18.8353 31.8794 19.03 31.5519C19.3566 30.6925 19.7049 29.8005 20.1186 28.8541C21.0914 26.5669 21.8813 24.2062 22.4807 21.7942C21.3161 23.9935 20.3367 26.2858 19.5525 28.6475C19.2042 29.5939 18.8667 30.4967 18.551 31.367C18.3277 31.795 18.2622 32.2879 18.366 32.7594C18.4182 32.8839 18.4984 32.9948 18.6003 33.0834C18.7022 33.1721 18.8232 33.2362 18.9538 33.2707C19.1483 33.3274 19.3499 33.3567 19.5525 33.3577C20.2952 33.4681 21.0493 33.4791 21.7949 33.3903V33.3903Z" fill="#293241"/>
<path d="M25.8771 34.3585C25.6485 34.3585 25.6485 35.8488 24.3531 36.9148C23.0577 37.9809 21.4575 37.8286 21.4467 38.0027C21.4358 38.1767 21.8059 38.2964 22.4808 38.3181C23.3645 38.3287 24.2238 38.0283 24.9083 37.4696C25.5746 36.9285 26.0009 36.1469 26.0948 35.294C26.1492 34.7175 25.9751 34.3476 25.8771 34.3585Z" fill="#293241"/>
<path d="M26.8132 17.5517C26.9547 17.9325 28.3371 17.7584 29.97 17.9542C31.6028 18.15 32.92 18.596 33.1377 18.2588C33.2356 18.0956 33.007 17.7367 32.4737 17.3668C31.7635 16.917 30.9587 16.6378 30.1224 16.551C29.2906 16.4451 28.4456 16.5459 27.6622 16.8447C27.0635 17.084 26.7587 17.3777 26.8132 17.5517Z" fill="#293241"/>
<path d="M13.0865 18.2153C13.326 18.5308 14.284 18.2153 15.4378 18.2153C16.5917 18.2153 17.6149 18.4329 17.7891 18.0957C17.8871 17.9434 17.7891 17.6279 17.3101 17.3233C16.74 16.9586 16.0705 16.7799 15.3943 16.812C14.7162 16.8219 14.058 17.0423 13.5111 17.443C13.0865 17.7367 12.9886 18.063 13.0865 18.2153Z" fill="#293241"/>
<path d="M41.5413 27.8425C41.6937 27.7772 47.757 26.0149 47.561 32.1937C47.3651 38.3725 41.193 36.8931 41.193 36.719C41.193 36.545 41.5413 27.8425 41.5413 27.8425Z" fill="#FFBE9D"/>
<path d="M43.1525 34.4346C43.1525 34.4346 43.2613 34.5108 43.4355 34.6087C43.6941 34.7116 43.9824 34.7116 44.241 34.6087C44.6503 34.3701 44.9883 34.0263 45.2199 33.6132C45.4516 33.2 45.5683 32.7325 45.5582 32.259C45.587 31.7311 45.4978 31.2034 45.2969 30.7143C45.2458 30.5195 45.1476 30.3403 45.0109 30.1924C44.8743 30.0444 44.7033 29.9323 44.5131 29.8658C44.3912 29.8288 44.2601 29.8358 44.1427 29.8855C44.0253 29.9352 43.9291 30.0244 43.8709 30.1378C43.7838 30.3009 43.8709 30.4315 43.7838 30.4423C43.6967 30.4532 43.6532 30.3336 43.7185 30.0834C43.7328 30.0064 43.7622 29.9331 43.8052 29.8677C43.8482 29.8024 43.9039 29.7462 43.9689 29.7026C44.0542 29.6405 44.1512 29.596 44.254 29.5717C44.3568 29.5474 44.4634 29.5438 44.5676 29.5612C44.8183 29.62 45.0499 29.7418 45.2404 29.915C45.4309 30.0882 45.574 30.3072 45.6561 30.5511C45.9032 31.0964 46.0117 31.6943 45.9718 32.2916C45.9862 32.8417 45.8366 33.3837 45.542 33.8486C45.2474 34.3135 44.821 34.6803 44.3172 34.9024C44.1501 34.9503 43.974 34.9575 43.8035 34.9234C43.6331 34.8894 43.4733 34.815 43.3375 34.7066C43.1633 34.5869 43.1307 34.4455 43.1525 34.4346Z" fill="#EB996E"/>
<path d="M44.9812 27.6358C44.3945 27.5989 43.8088 27.7209 43.2857 27.9889C42.7627 28.257 42.3218 28.6611 42.0094 29.1587C41.6067 30.0399 41.5196 31.0407 41.1168 31.9218C40.9582 32.3814 40.6501 32.7747 40.2417 33.0389C39.8333 33.3031 39.3481 33.423 38.8635 33.3795C38.5445 33.2796 38.2577 33.0972 38.0321 32.8507C37.8065 32.6043 37.6502 32.3025 37.579 31.9762C37.4482 31.319 37.4482 30.6426 37.579 29.9855C37.9491 27.0919 38.5478 24.2309 38.6676 21.283C38.8968 18.3657 38.2527 15.4463 36.817 12.8959C36.0898 11.6316 35.0342 10.5871 33.7619 9.87285C32.4896 9.15862 31.0478 8.8012 29.589 8.83837C27.6732 8.99066 25.9097 9.99146 23.9938 10.2525C22.8585 10.4053 21.7033 10.2965 20.6166 9.93445C19.5298 9.57245 18.5403 8.96681 17.7238 8.16391C17.3465 7.86478 16.9541 7.58522 16.5481 7.32631C16.5746 6.63818 16.8016 5.97274 17.2013 5.41174C20.9894 1.90898 27.8147 0.929949 32.8111 2.1483C35.3625 2.78164 37.7444 3.96463 39.7902 5.61445C41.836 7.26426 43.4962 9.34102 44.6546 11.6993C46.8317 16.3769 46.1677 22.8929 44.9812 27.6358Z" fill="#293241"/>
<path d="M22.1542 5.16154C25.5723 5.30296 32.0927 6.59745 34.7815 8.70781C35.108 8.95801 35.4455 9.37138 35.2278 9.71948C35.0101 10.0676 34.7053 9.98056 34.4005 9.96968C31.2492 10.1136 28.1203 10.5728 25.0607 11.3403C23.1236 12.0097 21.0778 12.3086 19.0301 12.2215C18.0044 12.1649 17.0113 11.8422 16.1485 11.2852C15.2857 10.7282 14.583 9.95609 14.1098 9.04504L13.2498 9.3605C14.2509 7.95816 15.5952 6.8358 17.1541 6.10066C18.713 5.36553 20.4346 5.04218 22.1542 5.16154V5.16154Z" fill="#293241"/>
<path d="M11.5081 12.3846C13.3617 10.6621 15.7279 9.59248 18.2463 9.33874C26.0621 8.67517 38.9289 11.0792 45.6235 24.5681C46.3716 22.2457 46.8429 19.8431 47.0277 17.4103C47.0277 15.5719 45.9392 4.62851 34.6617 1.19102C34.6617 1.15839 17.6803 -5.325 11.5081 12.3846Z" fill="#455A64"/>
<g opacity="0.2">
<path opacity="0.2" d="M11.5081 12.3846C13.482 10.3068 16.1874 9.07786 19.0518 8.95802C26.0512 8.64256 39.2772 11.8516 45.6235 24.5355C46.3716 22.2131 46.8429 19.8105 47.0277 17.3777C47.0277 15.5393 45.9392 4.59589 34.6617 1.15839C34.6617 1.15839 17.6803 -5.32499 11.5081 12.3846Z" fill="black"/>
</g>
<path d="M44.5675 22.6101C41.193 16.9426 36.1421 13.0373 30.6884 9.63246C25.2348 6.2276 16.2107 2.86625 10.0059 1.21277C8.16875 0.610292 6.22414 0.406335 4.30186 0.614489C3.34063 0.734691 2.43267 1.12288 1.68188 1.73464C0.931099 2.3464 0.367817 3.15701 0.0564916 4.07373C-0.531328 6.42341 3.62696 10.035 5.58635 11.4491C7.49859 12.7271 9.47907 13.9 11.519 14.9627C11.519 14.9627 11.519 10.6115 18.4204 9.71949C27.9017 8.54465 44.8614 22.8603 44.5675 22.6101Z" fill="#455A64"/>
<path d="M15.2636 64.7194C15.2636 64.7194 8.16621 87.5635 8.16621 95.1129C8.16621 102.662 10.8767 141.66 10.3433 147.078C9.80993 152.495 12.2701 161.426 12.2701 161.426C12.2701 161.426 31.5593 163.264 38.0362 161.426C44.5131 159.588 61.7885 152.136 61.7885 152.136L54.2774 63.773C54.2774 63.773 47.2562 49.9795 35.772 51.5459C24.2877 53.1124 16.7549 59.9004 15.2636 64.7194Z" fill="#455A64"/>
<path d="M41.487 145.751C41.487 145.751 42.1183 147.622 39.1684 148.601C36.2184 149.58 30.6123 148.601 30.6123 148.601V145.12C32.3772 145.665 34.2085 145.965 36.0551 146.012C37.9274 145.838 41.487 145.751 41.487 145.751Z" fill="#FFBE9D"/>
<path d="M54.0379 62.1195C54.0379 62.1195 43.0218 50.4799 32.6805 50.7301C23.4822 50.9585 15.3398 56.1692 13.8267 74.4009C12.3136 92.6327 33.9541 126.681 50.1627 135.58L50.6634 122.765C50.6634 122.765 32.8547 110.799 25.6267 96.4944C18.3986 82.1897 15.8297 72.16 17.8108 65.8833C20.3036 58.0728 25.115 52.4271 35.7067 53.2973C46.2983 54.1676 55.17 78.6978 55.17 78.6978L54.0379 62.1195Z" fill="#FF725E"/>
<path d="M51.85 63.2726C51.8699 62.1135 52.344 61.0085 53.1703 60.1949C53.9967 59.3813 55.1094 58.924 56.2695 58.9213C64.0635 58.9975 73.0224 64.578 76.6581 71.355C79.5755 76.7941 81.5566 82.6139 83.7446 88.3794C86.9123 96.7773 87.4457 102.967 89.4813 111.724C91.0597 118.534 92.3224 127.084 91.0488 133.97C90.3304 137.918 90.0909 142.226 87.3695 145.185C84.6481 148.144 79.3904 150.624 75.243 151.255C67.0897 152.495 52.0568 153.083 49.9341 145.12L51.85 63.2726Z" fill="#FF725E"/>
<path d="M44.5548 76.711C44.5548 76.711 50.9455 100.54 51.0159 104.58C51.0863 108.619 31.3533 140.837 31.3533 140.837L21.6421 137.677L32.8599 102.366L26.3209 80.6876C26.3209 80.6876 41.1036 76.6783 44.5548 76.711Z" fill="#FFBE9D"/>
<path d="M21.6535 142.183C21.6535 142.183 17.5605 141.824 16.9291 143.075C16.412 144.315 15.9969 145.596 15.6882 146.904L17.3754 147.35C17.3754 147.35 15.5031 150.287 15.329 151.897C15.1548 153.507 16.6679 158.13 16.6679 158.13L22.9924 161.393C22.9924 161.393 23.8197 160.588 22.5134 159.163C21.7931 158.34 20.8409 157.752 19.7811 157.477L20.3254 153.55L25.4961 151.745C25.4961 151.745 31.7335 151.864 32.441 150.439C33.1486 149.014 32.2669 140.943 32.2669 140.943L22.4699 138.06L21.6535 142.183Z" fill="#FFBE9D"/>
<path d="M24.5816 55.7558C27.103 54.1768 30.098 53.5299 33.0468 53.9273C35.9957 54.3247 38.7122 55.7414 40.7249 57.9314C42.0866 59.3755 43.2473 60.9965 44.1756 62.7504C46.9079 68.1895 49.9341 81.9504 49.9341 81.9504C49.9341 81.9504 35.2386 85.7903 30.0788 86.3995C26.7043 86.7911 23.7761 87.4329 23.7761 87.4329L21.7296 78.6651C21.7296 78.6651 17.789 66.3946 20.0423 61.9346C21.4357 59.215 22.4372 57.1264 24.5816 55.7558Z" fill="#455A64"/>
<path d="M23.3298 85.2465C23.337 85.44 23.3589 85.6327 23.3952 85.823C23.4714 86.2364 23.5693 86.7911 23.6891 87.4982V87.5853H23.7653L33.497 85.9862C38.7941 85.0777 44.005 83.724 49.0742 81.9395L49.281 81.8633V81.6458C47.6736 74.2812 45.306 67.1031 42.2163 60.2267C41.4267 58.6465 40.3142 57.2494 38.9506 56.1257C38.2941 55.5527 37.5614 55.0731 36.7735 54.7006C35.9838 54.3675 35.1583 54.1266 34.3134 53.9827C32.6951 53.6839 31.0472 53.578 29.404 53.6672C27.7844 53.741 26.2249 54.3022 24.93 55.2772C23.8183 56.2454 22.9151 57.4293 22.2751 58.757C21.6352 60.0846 21.2718 61.5284 21.2072 63.0006C21.0593 65.5134 21.1066 68.0338 21.3487 70.5392C21.697 75.1298 22.2195 78.8175 22.6441 81.3521C22.8509 82.6139 23.0468 83.593 23.1774 84.2565L23.3407 85.0071C23.3551 85.097 23.3807 85.1847 23.4169 85.2682C23.429 85.1816 23.429 85.0937 23.4169 85.0071C23.4169 84.8005 23.3516 84.5502 23.3081 84.2457C23.2101 83.5277 23.0686 82.5487 22.8835 81.3194C22.5243 78.7739 22.0671 75.0863 21.795 70.5174C21.5824 68.0354 21.557 65.5409 21.7188 63.055C21.8415 61.6871 22.1795 60.3471 22.7203 59.0845C23.2826 57.7554 24.1696 56.5884 25.3001 55.6905C26.4796 54.822 27.8867 54.3155 29.3496 54.2329C30.9502 54.1573 32.5542 54.2705 34.1283 54.5701C34.9289 54.7015 35.7109 54.9279 36.4578 55.2445C37.201 55.5999 37.893 56.0536 38.5152 56.5934C39.8359 57.6563 40.9156 58.9874 41.6829 60.4987C44.7531 67.3348 47.1237 74.4636 48.7585 81.7763L48.9327 81.4826C43.8913 83.2928 38.7108 84.6899 33.4425 85.6598L23.7653 87.4547L23.8523 87.52C23.7 86.8238 23.5802 86.2799 23.4822 85.8556C23.4528 85.6478 23.4017 85.4437 23.3298 85.2465V85.2465Z" fill="#293241"/>
<path d="M43.2286 102.467C43.2286 102.467 42.8803 102.76 42.6843 103.435C42.4269 104.317 42.4768 105.26 42.8258 106.111C43.1908 106.966 43.8356 107.671 44.6546 108.112C45.2751 108.439 45.7432 108.471 45.7432 108.406C45.7432 108.341 45.3839 108.156 44.8832 107.775C44.2208 107.3 43.7053 106.648 43.3954 105.894C43.0856 105.14 42.9938 104.314 43.1306 103.511C43.1633 102.891 43.3048 102.51 43.2286 102.467Z" fill="#EB996E"/>
<path d="M50.5328 143.651C50.577 143.374 50.6025 143.094 50.609 142.814C50.609 142.215 50.6743 141.41 50.7179 140.42C50.7941 138.245 50.9029 135.275 51.0336 131.598C51.2513 124.092 51.5452 113.823 51.8609 102.477C52.1765 91.1315 52.3507 80.8517 52.5249 73.3458C52.5249 69.669 52.6228 66.6666 52.6555 64.5236C52.6555 63.5228 52.6555 62.7287 52.6555 62.1195C52.6835 61.841 52.6835 61.5604 52.6555 61.2819C52.6052 61.5583 52.5797 61.8386 52.5793 62.1195C52.5793 62.7178 52.514 63.5228 52.4596 64.5236C52.3834 66.6992 52.2745 69.6581 52.1439 73.3458C51.9371 80.8517 51.6432 91.1206 51.3166 102.467C50.99 113.812 50.8267 124.071 50.6635 131.576C50.5981 135.264 50.5546 138.267 50.5219 140.41C50.5219 141.41 50.5219 142.204 50.5219 142.814C50.5001 143.093 50.5037 143.373 50.5328 143.651V143.651Z" fill="#293241"/>
<path d="M90.8311 118.708H58.7296L58.4249 137.092C58.416 137.762 58.467 138.432 58.5772 139.093C58.7078 143.47 59.4404 147.807 60.7544 151.984C60.7544 151.984 84.2672 155.019 91.1795 141.04C92.8525 137.714 93.4243 133.943 92.8123 130.271L90.8203 118.708" fill="#EBEBEB"/>
<path d="M58.4902 59.6719C58.4665 59.9869 58.4665 60.3033 58.4902 60.6183C58.4902 61.2819 58.4902 62.1739 58.5446 63.3052C58.6099 65.6875 58.7079 69.0489 58.8277 73.1717C59.0454 81.5152 59.3719 93.0352 59.0454 105.752C58.893 112.115 58.4793 118.164 58.2289 123.679C57.9545 128.563 57.9545 133.459 58.2289 138.343C58.4329 141.637 58.8915 144.91 59.6005 148.133C59.84 149.221 60.1121 150.145 60.2754 150.733C60.3441 151.039 60.4425 151.338 60.5693 151.625C60.5276 151.317 60.4658 151.011 60.3843 150.711C60.2537 150.113 60.0251 149.232 59.8182 148.089C59.1938 144.858 58.7973 141.586 58.6317 138.299C58.4064 133.427 58.4391 128.547 58.7297 123.679C59.0127 118.175 59.4372 112.115 59.5896 105.741C59.9162 93.0026 59.5243 81.4717 59.1978 73.1064C59.0127 68.9836 58.8494 65.6223 58.7406 63.24C58.6753 62.1521 58.6208 61.2166 58.5882 60.553C58.5796 60.2572 58.5468 59.9625 58.4902 59.6719V59.6719Z" fill="#293241"/>
<path d="M64.8255 61.9019C64.802 62.0788 64.802 62.2581 64.8255 62.435C64.8255 62.8483 64.8473 63.3596 64.8909 63.9688C64.9671 65.3938 65.065 67.2975 65.1848 69.6146C65.446 74.3683 65.7617 80.9496 65.9794 88.2162C66.1971 95.4828 66.2842 102.075 66.306 106.85C66.306 109.167 66.306 111.071 66.306 112.496C66.306 113.105 66.306 113.584 66.306 114.03C66.294 114.209 66.3124 114.39 66.3604 114.563C66.4062 114.4 66.4282 114.232 66.4257 114.063C66.4257 113.649 66.4257 113.138 66.5019 112.529C66.5563 111.202 66.5999 109.265 66.6325 106.883C66.7087 102.108 66.6325 95.5154 66.4693 88.2379C66.306 80.9605 65.8706 74.3792 65.5113 69.6146C65.3372 67.2431 65.1739 65.2633 65.0324 63.9905L64.8691 62.4567C64.8876 62.2707 64.8728 62.0828 64.8255 61.9019V61.9019Z" fill="white"/>
</svg>
