<svg width="149" height="131" viewBox="0 0 149 131" fill="none" xmlns="http://www.w3.org/2000/svg">
<path d="M84.4127 49.1792L76.2098 57.684L71.1254 130.253H64.1541L70.0294 64.5808L58.5161 53.1881L57.8382 50.6854L61.0018 48.8395L61.273 52.0104L70.8317 61.9082L71.5548 59.7112V56.0759L67.2725 49.5303L70.3797 49.3944L74.3342 53.9016L79.7689 49.0999L84.4127 49.1792Z" fill="#263238"/>
<path d="M98.5699 48.6696C99.8761 50.8391 101.511 52.7915 103.417 54.4565C104.38 55.2784 105.519 55.8672 106.745 56.1775C107.972 56.4878 109.253 56.5111 110.49 56.2458C112.919 55.555 114.829 52.9164 114.162 50.4816C116.988 51.5863 120.076 51.8296 123.039 51.1809C126.002 50.5321 128.708 49.0201 130.816 46.835C133.2 47.7636 135.81 48.6923 138.262 47.9675C140.714 47.2427 142.431 43.9246 140.748 41.9994C143.166 41.5237 145.753 40.9462 147.437 39.1342C149.12 37.3223 149.177 33.8343 146.94 32.7811C149.493 31.6486 148.646 27.3566 146.137 26.1222C143.629 24.8878 140.646 25.7032 137.98 26.5412C139.11 23.3023 135.81 19.9049 132.41 19.5765C129.009 19.2481 125.777 20.9695 122.783 22.6342C124.783 20.2787 122.783 16.3037 119.913 15.2958C117.043 14.2879 113.789 15.2958 110.953 16.5415C111.51 15.5973 111.873 14.5512 112.022 13.4645C112.17 12.3778 112.101 11.2723 111.818 10.2128C111.535 9.15328 111.043 8.16106 110.373 7.29424C109.702 6.42743 108.866 5.70345 107.913 5.1647C106.959 4.62595 105.909 4.28327 104.821 4.15673C103.734 4.03019 102.633 4.12232 101.582 4.42775C100.531 4.73318 99.5513 5.24576 98.7004 5.93546C97.8494 6.62516 97.1444 7.47812 96.6265 8.44437C96.5202 6.89245 95.8771 5.4263 94.8079 4.29876C93.7387 3.17121 92.3105 2.45292 90.7695 2.26774C89.2285 2.08256 87.6714 2.44209 86.3665 3.28435C85.0617 4.1266 84.0909 5.3988 83.6217 6.88156C83.0068 5.16572 81.8843 3.67877 80.404 2.61934C78.9236 1.55991 77.156 0.97844 75.3372 0.952591C73.5184 0.926743 71.7351 1.45775 70.2254 2.47469C68.7156 3.49163 67.5514 4.94606 66.8883 6.64373C65.9485 5.63416 64.8116 4.82917 63.5481 4.27877C62.2847 3.72836 60.9218 3.44433 59.5441 3.44433C58.1665 3.44433 56.8037 3.72836 55.5402 4.27877C54.2768 4.82917 53.1398 5.63416 52.2 6.64373C49.9234 5.59171 47.4936 4.9112 45.0027 4.62794C43.7521 4.50076 42.4894 4.67723 41.3213 5.14242C40.1531 5.60761 39.1138 6.34785 38.2913 7.30057C36.7773 9.29371 36.9241 12.5666 38.9918 13.9821C37.8712 13.2254 36.5505 12.8216 35.1993 12.8225C33.8481 12.8234 32.528 13.229 31.4084 13.9873C30.2888 14.7455 29.4209 15.8218 28.9159 17.078C28.411 18.3342 28.292 19.713 28.5744 21.0374C25.7837 21.0374 22.7669 21.0374 20.4958 22.6342C18.2248 24.231 17.3887 28.138 19.6484 29.8027C16.948 29.1006 13.9991 28.4211 11.4456 29.5196C8.89214 30.6181 7.36679 34.3552 9.37796 36.3144C5.79627 35.533 1.02818 36.405 0.158184 39.9836C-0.542336 42.894 2.09031 45.7705 5.00537 46.45C7.92043 47.1295 10.9485 46.2348 13.807 45.3175C15.2483 48.0469 17.663 50.1315 20.5696 51.1558C23.4762 52.1801 26.6613 52.0687 29.4896 50.844C31.0178 53.2135 33.4119 54.8881 36.158 55.5084C38.9041 56.1288 41.7834 55.6454 44.1779 54.1621C45.3078 53.4033 46.3699 52.3841 47.7144 52.2142C49.3979 52.0104 50.9007 53.1768 52.4712 53.8224C54.3226 54.5311 56.366 54.5518 58.2314 53.8808C60.0967 53.2098 61.6607 51.8914 62.64 50.1645C63.5129 51.1867 64.6328 51.9672 65.8928 52.4313C67.1528 52.8954 68.5106 53.0275 69.8361 52.815C71.1617 52.6024 72.4105 52.0524 73.4632 51.2175C74.5159 50.3826 75.3371 49.2909 75.8482 48.0468C75.9759 48.7711 76.2501 49.4617 76.654 50.0758C77.058 50.69 77.5831 51.2148 78.197 51.6179C78.8109 52.021 79.5006 52.2939 80.2236 52.4199C80.9467 52.5458 81.6879 52.5221 82.4015 52.3501C84.0398 51.8858 85.3956 50.6175 87.0678 50.3457C89.0903 50.0173 91.0223 51.1837 93.0448 51.4781C95.0673 51.7726 97.7225 50.2777 97.0784 48.3299" fill="#293241"/>
</svg>
